<?xml version="1.0" encoding="iso-8859-1"?>
<!-- Generator: Adobe Illustrator 16.0.0, SVG Export Plug-In . SVG Version: 6.00 Build 0)  -->
<!DOCTYPE svg PUBLIC "-//W3C//DTD SVG 1.1//EN" "http://www.w3.org/Graphics/SVG/1.1/DTD/svg11.dtd">
<svg version="1.1" id="Layer_1" xmlns="http://www.w3.org/2000/svg" xmlns:xlink="http://www.w3.org/1999/xlink" x="0px" y="0px"
	 width="65px" height="65px" viewBox="0 0 65 65" style="enable-background:new 0 0 65 65;" xml:space="preserve">
<g>
	<g>
		<g>
			<path style="opacity:0.6;fill:#05A4FF;" d="M62.795,42.414l-9.361-3.041c-2.351,7.236-8.151,12.382-14.988,14.218l2.546,9.505
				C50.938,60.423,59.375,52.939,62.795,42.414z"/>
			<path style="opacity:0.8;fill:#05A4FF;" d="M51.354,7.202l-5.786,7.961c6.156,4.475,9.256,11.582,8.892,18.654l9.826,0.515
				C64.817,24.044,60.307,13.707,51.354,7.202z"/>
			<path style="fill:#05A4FF;" d="M14.33,7.202l5.785,7.961C26.27,10.692,33.987,9.94,40.6,12.471l3.526-9.185
				C34.508-0.398,23.283,0.697,14.33,7.202z"/>
			<path style="opacity:0.2;fill:#05A4FF;" d="M8.37,12.867c-6.474,8.009-8.901,19.021-5.481,29.549l9.359-3.043
				c-2.351-7.234-0.684-14.807,3.769-20.312L8.37,12.867z"/>
			<path style="opacity:0.4;fill:#05A4FF;" d="M14.688,44.472l-8.252,5.359c5.614,8.632,15.34,14.346,26.406,14.346v-9.843
				C25.233,54.334,18.549,50.408,14.688,44.472z"/>
		</g>
	</g>
</g>
</svg>
