<?xml version="1.0" encoding="iso-8859-1"?>
<!-- Generator: Adobe Illustrator 18.1.1, SVG Export Plug-In . SVG Version: 6.00 Build 0)  -->
<!DOCTYPE svg PUBLIC "-//W3C//DTD SVG 1.1//EN" "http://www.w3.org/Graphics/SVG/1.1/DTD/svg11.dtd">
<svg version="1.1" id="Layer_1" xmlns="http://www.w3.org/2000/svg" xmlns:xlink="http://www.w3.org/1999/xlink" x="0px" y="0px"
	 viewBox="0 0 16 16" style="enable-background:new 0 0 16 16;" xml:space="preserve">
<g>
	<g>
		<g>
			<path style="fill:#EF202A;" d="M13.714,13.714c-3.086,3.086-8.229,3.086-11.314,0S-0.8,5.486,2.286,2.286s8.229-3.086,11.429,0
				S16.8,10.514,13.714,13.714z M2.971,2.971c-2.743,2.743-2.743,7.314,0,10.057s7.314,2.743,10.057,0s2.743-7.314,0-10.057
				S5.714,0.229,2.971,2.971z"/>
		</g>
	</g>
	<g>
		<g>
			
				<rect x="7.086" y="3.543" transform="matrix(-0.7071 0.7071 -0.7071 -0.7071 19.3139 8.0004)" style="fill:#EF202A;" width="1.829" height="8.914"/>
			
				<rect x="7.086" y="3.543" transform="matrix(0.7071 0.7071 -0.7071 0.7071 8.0004 -3.3139)" style="fill:#EF202A;" width="1.829" height="8.914"/>
		</g>
	</g>
</g>
</svg>
