<?xml version="1.0" encoding="utf-8"?>
<!-- Generator: Adobe Illustrator 19.1.0, SVG Export Plug-In . SVG Version: 6.00 Build 0)  -->
<!DOCTYPE svg PUBLIC "-//W3C//DTD SVG 1.1//EN" "http://www.w3.org/Graphics/SVG/1.1/DTD/svg11.dtd">
<svg version="1.1" id="Layer_1" xmlns="http://www.w3.org/2000/svg" xmlns:xlink="http://www.w3.org/1999/xlink" x="0px" y="0px"
	 viewBox="0 0 14.929 16" style="enable-background:new 0 0 14.929 16;" xml:space="preserve">
<g>
	<path style="fill:#0099FF;" d="M14.929,14.645l-4.099-4.16c0.645-0.743,1.065-1.562,1.351-2.579
		c0.421-1.578,0.183-3.278-0.669-4.782c-0.838-1.397-2.17-2.507-3.833-2.918C6.121-0.221,4.443,0.02,2.958,0.884
		c-1.365,0.955-2.355,2.29-2.776,3.868c-0.813,3.369,1.162,6.771,4.488,7.594c0.779,0.213,1.633,0.199,2.367,0.094
		c0.944-0.136,1.839-0.393,2.514-0.924L13.632,16L14.929,14.645z M5.091,10.768c-1.213-0.259-2.172-0.989-2.86-2.082
		C1.648,7.576,1.484,6.408,1.74,5.178c0.481-1.912,2.011-3.216,3.795-3.472c0.525-0.075,1.169-0.059,1.723,0.078
		c1.213,0.259,2.187,1.095,2.755,2.098c0.568,1.002,0.747,2.278,0.491,3.507C10.007,9.953,7.533,11.392,5.091,10.768z"/>
</g>
</svg>
