<?xml version="1.0" encoding="utf-8"?>
<!-- Generator: Adobe Illustrator 19.2.1, SVG Export Plug-In . SVG Version: 6.00 Build 0)  -->
<svg version="1.1" id="Layer_1" xmlns="http://www.w3.org/2000/svg" xmlns:xlink="http://www.w3.org/1999/xlink" x="0px" y="0px"
	 viewBox="0 0 11 11" style="enable-background:new 0 0 11 11;" xml:space="preserve">
<style type="text/css">
	.st0{}
</style>
<path id="Fill-68" class="st0" d="M5.4,10.1c-2.5,0-4.5-2.1-4.5-4.6c0-2.5,2-4.6,4.5-4.6c1.2,0,2.2,0.4,3,1.2L7.2,3.3l3.8,1l-0.8-4
	L9.1,1.4C8.1,0.5,6.8,0,5.4,0C2.4,0,0,2.5,0,5.5c0,3,2.4,5.5,5.4,5.5c2.2,0,4.1-1.4,5-3.3L9.5,7.5C8.8,9,7.2,10.1,5.4,10.1"/>
</svg>
