<svg id="icon_info_search" data-name="Layer 1" xmlns="http://www.w3.org/2000/svg" viewBox="0 0 18 18"><defs><style>.cls-2{fill:#fff;}</style></defs><title>icon_arrow_dashboard</title><path class="cls-1" d="M9,18a9,9,0,1,1,9-9A9,9,0,0,1,9,18Z"/><path class="cls-2" d="M10.39,7.26H10l-2.38.39-.09.28h.25A.53.53,0,0,1,8.11,8a.36.36,0,0,1,.13.27A2.89,2.89,0,0,1,8.11,9l-1,3.36a2.44,2.44,0,0,0-.12.66.86.86,0,0,0,.27.65A1,1,0,0,0,8,14q1.2,0,2.26-1.85L10,12a4.3,4.3,0,0,1-.76.94A.36.36,0,0,1,9,13,.18.18,0,0,1,8.9,13a.2.2,0,0,1-.06-.14A2.71,2.71,0,0,1,9,12.26Z"/><path class="cls-2" d="M10,4a1,1,0,0,0-.73.3,1,1,0,0,0,0,1.46,1,1,0,0,0,.73.3,1,1,0,0,0,.73-1.76A1,1,0,0,0,10,4Z"/></svg>