<?xml version="1.0" encoding="utf-8"?>
<!-- Generator: Adobe Illustrator 19.2.1, SVG Export Plug-In . SVG Version: 6.00 Build 0)  -->
<!DOCTYPE svg PUBLIC "-//W3C//DTD SVG 1.1//EN" "http://www.w3.org/Graphics/SVG/1.1/DTD/svg11.dtd">
<svg version="1.1" id="Layer_1" xmlns="http://www.w3.org/2000/svg" xmlns:xlink="http://www.w3.org/1999/xlink" x="0px" y="0px"
	 viewBox="0 0 18 18" style="enable-background:new 0 0 18 18;" xml:space="preserve">
<style type="text/css">
	.st0{fill:none;}
	.st1{fill:#FFFFFF;}
</style>
<g>
	<path class="st0" d="M1.9,14.9C1.9,14.9,1.9,15,1.9,14.9L16,15c0.1,0,0.1,0,0.1-0.1V4.8H1.9V14.9z"/>
	<path class="st1" d="M16.7,3.9h-2.6V2.3c0-0.1-0.1-0.2-0.2-0.2h-3.6c-0.1,0-0.2,0.1-0.2,0.2v1.6H7.8V2.3c0-0.1-0.1-0.2-0.2-0.2H4
		c-0.1,0-0.2,0.1-0.2,0.2v1.6H1.3C1.1,3.9,1,4,1,4.2v10.7c0,0.6,0.4,1,1,1h14c0.6,0,1-0.4,1-1V4.2C17,4,16.9,3.9,16.7,3.9z
		 M16.1,14.9c0,0.1,0,0.1-0.1,0.1H2c-0.1,0-0.1,0-0.1-0.1V4.8h14.2V14.9z"/>
</g>
</svg>
