<?xml version="1.0" encoding="iso-8859-1"?>
<!-- Generator: Adobe Illustrator 18.1.1, SVG Export Plug-In . SVG Version: 6.00 Build 0)  -->
<!DOCTYPE svg PUBLIC "-//W3C//DTD SVG 1.1//EN" "http://www.w3.org/Graphics/SVG/1.1/DTD/svg11.dtd">
<svg version="1.1" id="Layer_1" xmlns="http://www.w3.org/2000/svg" xmlns:xlink="http://www.w3.org/1999/xlink" x="0px" y="0px"
	 viewBox="0 0 664 1040" style="enable-background:new 0 0 664 1040;" xml:space="preserve">
<g style="opacity:0.5;">
	<path style="opacity:0.33;fill:#FFFFFF;enable-background:new    ;" d="M661.999,80.638C635.07,53.761,608.142,26.888,581.213,0
		H13.299C-17.973,90.203-0.88,192.198,60.686,268.078c62.027,76.72,157.862,94.815,248.28,119.329
		c117.751,31.161,235.528,62.959,353.033,94.295V80.638z"/>
	<path style="opacity:0.33;fill:#FFFFFF;enable-background:new    ;" d="M661.999,141.125
		c-117.505,31.565-235.281,62.851-353.033,94.541c-90.418,24.293-186.253,42.499-248.28,119.109
		c-72.934,90.115-83.455,216.513-25.09,316.752C93.867,771.901,208.433,826.276,323.206,808.42
		c97.664-15.454,161.172-89.078,227.486-154.97c37.134-37.01,74.222-74.039,111.307-111.07V141.125z"/>
	<path style="opacity:0.33;fill:#FFFFFF;enable-background:new    ;" d="M574.006,0.138
		c-19.138,71.157-38.03,141.216-57.138,212.283c-32.49,121.713-65.058,243.425-97.83,364.916
		c-24.19,90.431-56.333,182.276-20.73,274.325c33.748,87.056,107.899,151.754,196.367,173.221
		c17.032,4.738,67.324,15.117,67.324,15.117L662,0.138H574.006z"/>
	<path style="opacity:0.6;fill:#FFFFFF;enable-background:new    ;" d="M662,0.138H405.713c0.088,0.313,0.77,2.37,0.857,2.683
		c4.141,15.214,8.416,30.391,12.467,45.515c32.771,121.712,65.34,243.129,97.83,364.898C564.842,591.777,661.62,946.611,662,945.195
		V1.883V0.138z"/>
	<path style="opacity:0.33;fill:#FFFFFF;enable-background:new    ;" d="M661.999,78.331
		c-52.916,52.816-105.828,105.608-158.814,158.294c-131.344,130.787-262.538,261.74-393.58,392.288
		c179.017-47.741,358.221-95.701,537.347-143.811c5.011-1.334,10.032-2.682,15.046-4.018V78.331z"/>
	<path style="opacity:0.33;fill:#FFFFFF;enable-background:new    ;" d="M661.999,141.744c-5.014-1.345-10.035-2.684-15.046-4.033
		C474.078,91.407,301.247,46.365,128.47,0.138h-13.729C244.113,129.082,373.52,257.33,503.185,386.157
		c52.986,52.83,105.901,105.692,158.814,158.556L661.999,141.744L661.999,141.744z"/>
</g>
</svg>
