<?xml version="1.0" encoding="utf-8"?>
<!-- Generator: Adobe Illustrator 19.2.1, SVG Export Plug-In . SVG Version: 6.00 Build 0)  -->
<svg version="1.1" id="Layer_1" xmlns="http://www.w3.org/2000/svg" xmlns:xlink="http://www.w3.org/1999/xlink" x="0px" y="0px"
	 viewBox="0 0 20 20" style="enable-background:new 0 0 20 20;" xml:space="preserve">
<style type="text/css">
	.st0{fill:#CCCCCC;}
</style>
<title>icon_info</title>
<path class="st0" d="M10,20C4.5,20,0,15.5,0,10S4.5,0,10,0s10,4.5,10,10S15.5,20,10,20z M10,1.1c-4.9,0-8.9,4-8.9,8.9s4,8.9,8.9,8.9
	s8.9-4,8.9-8.9l0,0C18.9,5.1,14.9,1.1,10,1.1z"/>
<path class="st0" d="M11.6,8.1h-0.5L8.4,8.5L8.3,8.8h0.3c0.1,0,0.3,0,0.4,0.1C9.1,9,9.1,9.1,9.1,9.2c0,0.3,0,0.6-0.1,0.8l-1.1,3.7
	c-0.1,0.2-0.1,0.5-0.1,0.7c0,0.3,0.1,0.5,0.3,0.7c0.2,0.2,0.5,0.3,0.8,0.3c0.9,0,1.7-0.7,2.5-2.1l-0.3-0.2c-0.2,0.4-0.5,0.7-0.8,1
	c-0.1,0.1-0.2,0.1-0.3,0.1s-0.1,0-0.1-0.1c0,0-0.1-0.1-0.1-0.2c0-0.2,0.1-0.4,0.1-0.6L11.6,8.1z"/>
<path class="st0" d="M11.1,4.5c-0.3,0-0.6,0.1-0.8,0.3c-0.4,0.5-0.4,1.2,0,1.6c0.2,0.2,0.5,0.3,0.8,0.3c0.6,0,1.2-0.5,1.2-1.1
	c0-0.3-0.1-0.7-0.4-0.9C11.7,4.6,11.4,4.5,11.1,4.5z"/>
</svg>
