<?xml version="1.0" encoding="utf-8"?>
<!-- Generator: Adobe Illustrator 19.1.0, SVG Export Plug-In . SVG Version: 6.00 Build 0)  -->
<!DOCTYPE svg PUBLIC "-//W3C//DTD SVG 1.1//EN" "http://www.w3.org/Graphics/SVG/1.1/DTD/svg11.dtd">
<svg version="1.1" id="Layer_1" xmlns="http://www.w3.org/2000/svg" xmlns:xlink="http://www.w3.org/1999/xlink" x="0px" y="0px"
	 viewBox="0 0 16 16" style="enable-background:new 0 0 16 16;" xml:space="preserve">
<style type="text/css">
	.st0{fill:#CCCCCC;}
</style>
<g>
	<g>
		<path class="st0" d="M8,16c-4.4,0-8-3.6-8-8s3.6-8,8-8s8,3.6,8,8S12.4,16,8,16z M8,0.9C4.1,0.9,0.9,4.1,0.9,8s3.2,7.1,7.1,7.1
			s7.1-3.2,7.1-7.1S11.9,0.9,8,0.9z"/>
	</g>
</g>
<g>
	<path class="st0" d="M10.7,3.9C10,3.3,9.1,3,8,3c-1,0-1.9,0.3-2.5,0.9c-0.6,0.5-0.9,1-1,1.7l1.2,0.1C5.9,5.2,6.3,3.9,8,3.9
		c0.6,0,1.2,0.2,1.5,0.5c0.4,0.4,0.6,0.8,0.6,1.3c0,1-0.8,1.6-1.4,2.1C8.2,8.2,7.8,8.7,7.6,9c-0.2,0.3-0.3,0.8-0.3,1.3
		c0,0,0,0.1,0,0.1h1.2c0-0.4,0.1-0.8,0.2-1c0.1-0.3,0.4-0.6,0.9-1c0.8-0.7,1.3-1.2,1.6-1.6c0.3-0.4,0.3-0.6,0.3-1.1
		S11.3,4.5,10.7,3.9z"/>
	<rect x="7.3" y="11.7" class="st0" width="1.3" height="1.3"/>
</g>
</svg>
