<?xml version="1.0" encoding="iso-8859-1"?>
<!-- Generator: Adobe Illustrator 18.1.1, SVG Export Plug-In . SVG Version: 6.00 Build 0)  -->
<!DOCTYPE svg PUBLIC "-//W3C//DTD SVG 1.1//EN" "http://www.w3.org/Graphics/SVG/1.1/DTD/svg11.dtd">
<svg version="1.1" id="Layer_1" xmlns="http://www.w3.org/2000/svg" xmlns:xlink="http://www.w3.org/1999/xlink" x="0px" y="0px"
	 viewBox="0 0 18 18" style="enable-background:new 0 0 18 18;" xml:space="preserve">
<g>
	<path style="" d="M7.565,2.088c-2.785,0-4.972,2.288-4.972,4.972s2.188,4.874,4.972,4.972
		c2.785,0,4.972-2.288,4.972-4.972C12.538,4.276,10.25,2.088,7.565,2.088z M3.69,8.055c0,0.1,0,0.199,0,0.298
		c0-0.497-0.301-1.094-0.301-1.791c0-1.989,1.59-3.481,3.579-3.481c0.298,0,0.449,0,0.748,0.199C5.528,3.779,3.69,5.668,3.69,8.055z
		"/>
	<path style="" d="M16.814,15.216c0,0-3.78-3.78-3.878-3.878c0.994-1.194,1.492-2.685,1.492-4.375
		c0-3.878-3.083-6.961-6.961-6.961c-3.78-0.001-6.963,3.082-6.963,6.96c0,3.78,3.083,6.961,6.961,6.961
		c1.194,0,2.188-0.298,3.183-0.795c0.1,0.199,3.978,4.177,3.978,4.177c0.497,0.497,0.994,0.697,1.492,0.697
		c0.398,0,0.697-0.1,0.994-0.398C17.71,17.005,17.61,16.011,16.814,15.216z M7.565,12.033c-2.785-0.1-4.972-2.288-4.972-4.972
		s2.188-4.972,4.972-4.972c2.685,0,4.972,2.188,4.972,4.972C12.538,9.746,10.35,12.033,7.565,12.033z"/>
	<path style="" d="M3.389,6.564c0,0.696,0.301,1.292,0.301,1.789c0-0.099,0-0.199,0-0.298
		c0-2.386,1.888-4.277,4.076-4.774C7.468,3.082,7.169,3.082,6.871,3.082C4.882,3.082,3.389,4.575,3.389,6.564z"/>
</g>
</svg>
