<svg id="Layer_1" data-name="Layer 1" xmlns="http://www.w3.org/2000/svg" viewBox="0 0 15 14.94"><defs><style>.cls-1{}</style></defs><title>icon_edit_dashboard</title><path class="cls-1" d="M14.81,2h0S13.41.47,13,.19s-.66,0-.66,0l-.75.75,2.44,2.44a7,7,0,0,1,.75-.66A.71.71,0,0,0,15,2.35.41.41,0,0,0,14.81,2Z" transform="translate(0 -0.06)"/><polygon class="cls-1" points="5.06 12.22 12.94 4.63 10.41 2.09 2.81 9.88 5.06 12.22"/><path class="cls-1" d="M0,14.91c.09.09.38.09.38.09l3.56-1.59L1.78,11.16c-.37.66-1.41,2.72-1.69,3.38A.93.93,0,0,0,0,14.91Z" transform="translate(0 -0.06)"/></svg>
