<?xml version="1.0" encoding="iso-8859-1"?>
<!-- Generator: Adobe Illustrator 18.1.1, SVG Export Plug-In . SVG Version: 6.00 Build 0)  -->
<!DOCTYPE svg PUBLIC "-//W3C//DTD SVG 1.1//EN" "http://www.w3.org/Graphics/SVG/1.1/DTD/svg11.dtd">
<svg version="1.1" id="Layer_1" xmlns="http://www.w3.org/2000/svg" xmlns:xlink="http://www.w3.org/1999/xlink" x="0px" y="0px"
	 viewBox="0 0 16 16" style="enable-background:new 0 0 16 16;" xml:space="preserve">
<g>
	<g>
		<path style="fill:none;" d="M8,1.778c-3.431,0-6.222,2.79-6.222,6.22c0,3.432,2.791,6.224,6.222,6.224s6.222-2.792,6.222-6.224
			C14.222,4.568,11.431,1.778,8,1.778z"/>
		<path style="fill:#EC1C24;" d="M8,0C3.588,0,0,3.588,0,7.998C0,12.41,3.588,16,8,16c4.411,0,8-3.589,8-8.002
			C16,3.588,12.412,0,8,0z M8,14.222c-3.431,0-6.222-2.792-6.222-6.224c0-3.43,2.791-6.22,6.222-6.22s6.222,2.79,6.222,6.22
			C14.222,11.43,11.431,14.222,8,14.222z"/>
	</g>
	<g>
		<path style="fill:#EC1C24;" d="M7.999,10.284c-0.587,0-1.063,0.467-1.063,1.041s0.477,1.041,1.063,1.041
			c0.59,0,1.066-0.467,1.066-1.041C9.065,10.75,8.589,10.284,7.999,10.284z"/>
		<path style="fill:#EC1C24;" d="M7.998,3.635c-0.857,0-1.554,0.682-1.554,1.521l1.019,4.109h1.074l1.019-4.109
			C9.556,4.316,8.86,3.635,7.998,3.635z"/>
	</g>
</g>
</svg>
