<?xml version="1.0" encoding="utf-8"?>
<!-- Generator: Adobe Illustrator 19.2.1, SVG Export Plug-In . SVG Version: 6.00 Build 0)  -->
<svg version="1.1" id="Layer_1" xmlns="http://www.w3.org/2000/svg" xmlns:xlink="http://www.w3.org/1999/xlink" x="0px" y="0px"
	 viewBox="0 0 14 14" style="enable-background:new 0 0 14 14;" xml:space="preserve">
<style type="text/css">
	.st0{fill:#CCCCCC;}
</style>
<g>
	<rect x="5.8" y="2.7" class="st0" width="5.7" height="1.2"/>
</g>
<g>
	<path class="st0" d="M2.9,0v5.8C2.1,6.4,1.5,7.3,1.5,8.4c0,0.7,0.2,1.3,0.6,1.8l-2,2.1l0.9,0.9l2-2.1V14H14V0H2.9z M2.6,8.4
		c0-1.1,0.9-2,2-2c1.1,0,2,0.9,2,2c0,1.1-0.9,2-2,2C3.5,10.4,2.6,9.5,2.6,8.4z M12.8,12.8H4.1v-1.3c0.2,0,0.3,0,0.5,0
		c1.7,0,3.1-1.4,3.1-3.1c0,0,0-0.1,0-0.1h3.8V7.1H7.4C7.2,6.7,7,6.4,6.6,6.1h4.9V4.9H5.8v0.7C5.4,5.4,5,5.3,4.6,5.3
		c-0.2,0-0.3,0-0.5,0V1.3h8.7V12.8z"/>
</g>
</svg>
