<?xml version="1.0" encoding="utf-8"?>
<!-- Generator: Adobe Illustrator 19.2.1, SVG Export Plug-In . SVG Version: 6.00 Build 0)  -->
<!DOCTYPE svg PUBLIC "-//W3C//DTD SVG 1.1//EN" "http://www.w3.org/Graphics/SVG/1.1/DTD/svg11.dtd">
<svg version="1.1" id="Layer_1" xmlns="http://www.w3.org/2000/svg" xmlns:xlink="http://www.w3.org/1999/xlink" x="0px" y="0px"
	 viewBox="0 0 18 18" style="enable-background:new 0 0 18 18;" xml:space="preserve">
<style type="text/css">
	.st0{}
</style>
<g>
	<path class="st0" d="M14.7,17.5H3.3c-0.9,0-1.6-0.7-1.6-1.6V2.1c0-0.9,0.7-1.6,1.6-1.6h11.4c0.9,0,1.6,0.7,1.6,1.6v13.9
		C16.2,16.8,15.6,17.5,14.7,17.5z M3.3,1.4c-0.4,0-0.7,0.3-0.7,0.7v13.9c0,0.4,0.3,0.7,0.7,0.7h11.4c0.4,0,0.7-0.3,0.7-0.7V2.1
		c0-0.4-0.3-0.7-0.7-0.7H3.3z M13.2,7.4H4.8v1.1h8.3V7.4z M13.2,10.8H4.8v1.1h8.3V10.8z M13.2,4.1H4.8v1.1h8.3V4.1z"/>
</g>
</svg>
