<?xml version="1.0" encoding="utf-8"?>
<!-- Generator: Adobe Illustrator 19.2.1, SVG Export Plug-In . SVG Version: 6.00 Build 0)  -->
<!DOCTYPE svg PUBLIC "-//W3C//DTD SVG 1.1//EN" "http://www.w3.org/Graphics/SVG/1.1/DTD/svg11.dtd">
<svg version="1.1" id="Layer_1" xmlns="http://www.w3.org/2000/svg" xmlns:xlink="http://www.w3.org/1999/xlink" x="0px" y="0px"
	 viewBox="0 0 18 18" style="enable-background:new 0 0 18 18;" xml:space="preserve">
<style type="text/css">
	.st0{}
</style>
<g>
	<path class="st0" d="M10.4,17.5H7.6c-0.3,0-0.5-0.1-0.7-0.3c-0.2-0.2-0.3-0.4-0.2-0.7l0.1-0.7l-1-0.4L5.3,16
		c-0.2,0.2-0.4,0.3-0.7,0.3l0,0c-0.3,0-0.5-0.1-0.7-0.3L2,14c-0.2-0.2-0.3-0.4-0.3-0.7s0.1-0.5,0.3-0.7l0.6-0.5l-0.4-1l-0.8,0.1
		c-0.3,0-0.5-0.1-0.7-0.2c-0.2-0.2-0.3-0.4-0.3-0.7V7.6c0-0.3,0.1-0.5,0.3-0.7C1,6.8,1.2,6.7,1.5,6.7l0.8,0.1l0.4-1L2.1,5.3
		C1.9,5.2,1.8,4.9,1.7,4.7C1.7,4.4,1.8,4.1,2,4l2-2c0.2-0.2,0.4-0.3,0.7-0.3C5,1.7,5.2,1.8,5.4,2l0.5,0.6l1-0.4L6.7,1.5
		c0-0.3,0.1-0.5,0.2-0.7c0.2-0.2,0.4-0.3,0.7-0.3h2.8c0.3,0,0.5,0.1,0.7,0.3s0.3,0.4,0.2,0.7l-0.1,0.8l1,0.4l0.5-0.6
		c0.2-0.2,0.4-0.3,0.7-0.3s0.5,0.1,0.7,0.3L16,4c0.2,0.2,0.3,0.4,0.3,0.7c0,0.3-0.1,0.5-0.3,0.7l-0.6,0.5l0.4,1l0.8-0.1
		c0.3,0,0.5,0.1,0.7,0.2l0,0c0.2,0.2,0.3,0.4,0.3,0.7v2.8c0,0.3-0.1,0.5-0.3,0.7c-0.2,0.2-0.4,0.3-0.7,0.2l-0.7-0.1l-0.4,1l0.6,0.5
		c0.2,0.2,0.3,0.4,0.3,0.7s-0.1,0.5-0.3,0.7L14,16c-0.2,0.2-0.4,0.3-0.7,0.3s-0.5-0.1-0.7-0.3l-0.5-0.5c-0.3,0.1-0.7,0.3-1,0.4
		l0.1,0.7c0,0.3-0.1,0.5-0.2,0.7C10.9,17.4,10.6,17.5,10.4,17.5z M7.7,16.5h2.6l-0.1-1.4l0.4-0.1c0.5-0.2,1.2-0.5,1.6-0.7l0.4-0.2
		l0.9,1.1l1.8-1.8l-1.1-0.9l1-2.3l1.4,0.1V7.7l-1.4,0.1l-1-2.3l1.1-0.9l-1.8-1.8l-0.9,1.1l-2.3-1l0.1-1.4H7.7l0.1,1.4l-2.3,1
		L4.6,2.8L2.8,4.6l1.1,0.9l-1,2.3L1.5,7.7v2.6l1.4-0.1l1,2.3l-1.1,0.9l1.8,1.8l0.9-1.1l2.3,1L7.7,16.5z M9,12.3
		c-0.9,0-1.7-0.3-2.4-1c-0.6-0.6-1-1.5-1-2.4s0.3-1.7,1-2.4c1.3-1.3,3.4-1.3,4.7,0c0.6,0.6,1,1.5,1,2.4s-0.3,1.7-1,2.4
		C10.7,12,9.9,12.3,9,12.3z M9,6.7c-0.6,0-1.2,0.2-1.6,0.7C6.9,7.8,6.7,8.4,6.7,9s0.2,1.2,0.7,1.6c0.9,0.9,2.4,0.9,3.3,0
		c0.4-0.4,0.7-1,0.7-1.6s-0.2-1.2-0.7-1.6C10.2,6.9,9.6,6.7,9,6.7z"/>
</g>
</svg>
