<?xml version="1.0" encoding="iso-8859-1"?>
<!-- Generator: Adobe Illustrator 16.0.0, SVG Export Plug-In . SVG Version: 6.00 Build 0)  -->
<!DOCTYPE svg PUBLIC "-//W3C//DTD SVG 1.1//EN" "http://www.w3.org/Graphics/SVG/1.1/DTD/svg11.dtd">
<svg version="1.1" id="Layer_1" xmlns="http://www.w3.org/2000/svg" xmlns:xlink="http://www.w3.org/1999/xlink" x="0px" y="0px"
	 width="18px" height="18px" viewBox="0 0 30 30" style="enable-background:new 0 0 30 30;" xml:space="preserve">
<g>
	<g>
		
			<path style="fill:none;stroke:#FFFFFF;stroke-width:0.9543;stroke-linecap:round;stroke-linejoin:round;stroke-miterlimit:10;" d="
			M23.553,22.979l-9.336-8.248l-1.12,1.26L3.879,7.85l0.003-0.006L3.873,7.843H3.87l0,0L3.225,7.71L2.578,7.579l0.207,0.63
			l0.214,0.627l0.006-0.004l9.216,8.141l-1.12,1.256l9.336,8.244c0.967,0.86,2.453,0.771,3.313-0.197
			C24.615,25.311,24.527,23.831,23.553,22.979z"/>
	</g>
	<g>
		<path style="fill:none;stroke:#FFFFFF;stroke-width:0.9543;stroke-miterlimit:10;" d="M26.113,6.698l-4.629,5.188
			c-0.525,0.59-1.433,0.643-2.025,0.119l-1.707-1.511c-0.59-0.523-0.645-1.425-0.121-2.014l4.627-5.188
			c-2.137-0.607-4.531,0-6.104,1.766c-1.521,1.709-1.875,4.053-1.113,6.048c-0.125,0.083-0.238,0.183-0.343,0.299l-2.982,3.341
			l1.405,1.243l1.121-1.258l2.814,2.484l1.856-2.087c0.106-0.116,0.19-0.241,0.258-0.374c2.086,0.517,4.384-0.108,5.902-1.818
			C26.648,11.171,26.973,8.735,26.113,6.698z"/>
		<path style="fill:none;stroke:#FFFFFF;stroke-width:0.9543;stroke-miterlimit:10;" d="M11.125,18.227l1.12-1.256l-1.404-1.24
			l-6.137,6.879c-0.64,0.719-0.573,1.826,0.147,2.467l1.592,1.404c0.723,0.639,1.836,0.574,2.482-0.146l5.013-5.623L11.125,18.227z"
			/>
	</g>
</g>
</svg>
