<?xml version="1.0" encoding="iso-8859-1"?>
<!-- Generator: Adobe Illustrator 18.1.1, SVG Export Plug-In . SVG Version: 6.00 Build 0)  -->
<!DOCTYPE svg PUBLIC "-//W3C//DTD SVG 1.1//EN" "http://www.w3.org/Graphics/SVG/1.1/DTD/svg11.dtd">
<svg version="1.1" id="Layer_1" xmlns="http://www.w3.org/2000/svg" xmlns:xlink="http://www.w3.org/1999/xlink" x="0px" y="0px"
	 viewBox="1 1 16 16" style="enable-background:new 1 1 16 16;" xml:space="preserve">
<g>
	<path style="fill:none;" d="M9,2.778c-3.431,0-6.222,2.79-6.222,6.22c0,3.432,2.791,6.224,6.222,6.224s6.222-2.792,6.222-6.224
		C15.222,5.568,12.431,2.778,9,2.778z"/>
	<path style="fill:#EC1C24;" d="M9,1C4.588,1,1,4.588,1,8.998C1,13.41,4.588,17,9,17c4.411,0,8-3.589,8-8.002C17,4.588,13.412,1,9,1
		z M9,15.222c-3.431,0-6.222-2.792-6.222-6.224c0-3.43,2.791-6.22,6.222-6.22s6.222,2.79,6.222,6.22
		C15.222,12.43,12.431,15.222,9,15.222z"/>
</g>
<g>
	<path style="fill:#EC1C24;" d="M8.999,11.284c-0.587,0-1.063,0.467-1.063,1.041c0,0.574,0.477,1.041,1.063,1.041
		c0.59,0,1.066-0.467,1.066-1.041C10.065,11.75,9.589,11.284,8.999,11.284z"/>
	<path style="fill:#EC1C24;" d="M8.998,4.635c-0.857,0-1.554,0.682-1.554,1.521l1.019,4.109h1.074l1.019-4.109
		C10.556,5.316,9.86,4.635,8.998,4.635z"/>
</g>
</svg>
