<?xml version="1.0" encoding="iso-8859-1"?>
<!-- Generator: Adobe Illustrator 16.0.0, SVG Export Plug-In . SVG Version: 6.00 Build 0)  -->
<!DOCTYPE svg PUBLIC "-//W3C//DTD SVG 1.1//EN" "http://www.w3.org/Graphics/SVG/1.1/DTD/svg11.dtd">
<svg version="1.1" id="Layer_1" xmlns="http://www.w3.org/2000/svg" xmlns:xlink="http://www.w3.org/1999/xlink" x="0px" y="0px"
	 width="30px" height="30px" viewBox="0 0 30 30" style="enable-background:new 0 0 30 30;" xml:space="preserve">
<g>
	<g>
		
			<path style="fill:none;stroke:#FFFFFF;stroke-width:0.9543;stroke-linecap:round;stroke-linejoin:round;stroke-miterlimit:10;" d="
			M240.553,110.978l-9.336-8.247l-1.119,1.261l-9.219-8.142l0.004-0.006l-0.01-0.001l-0.003-0.001l0,0l-0.646-0.132l-0.646-0.132
			l0.207,0.631l0.213,0.627l0.006-0.004l9.217,8.14l-1.119,1.256l9.336,8.245c0.967,0.86,2.453,0.771,3.314-0.197
			C241.615,113.31,241.527,111.831,240.553,110.978z"/>
	</g>
	<g>
		<path style="fill:none;stroke:#FFFFFF;stroke-width:0.9543;stroke-miterlimit:10;" d="M243.113,94.697l-4.629,5.189
			c-0.525,0.59-1.432,0.643-2.025,0.119l-1.707-1.512c-0.59-0.522-0.645-1.425-0.121-2.014l4.627-5.188
			c-2.137-0.606-4.531,0.001-6.104,1.767c-1.52,1.709-1.875,4.053-1.113,6.048c-0.125,0.083-0.238,0.183-0.343,0.299l-2.981,3.341
			l1.404,1.243l1.121-1.259l2.814,2.484l1.857-2.088c0.107-0.115,0.191-0.24,0.258-0.373c2.086,0.516,4.383-0.108,5.902-1.818
			C243.648,99.172,243.973,96.734,243.113,94.697z"/>
		<path style="fill:none;stroke:#FFFFFF;stroke-width:0.9543;stroke-miterlimit:10;" d="M228.125,106.226l1.12-1.256l-1.404-1.239
			l-6.137,6.879c-0.64,0.718-0.573,1.825,0.147,2.466l1.592,1.405c0.723,0.638,1.836,0.573,2.482-0.147l5.013-5.623L228.125,106.226
			z"/>
	</g>
</g>
<g>
	<g>
		
			<path style="fill:none;stroke:#FFFFFF;stroke-width:0.9543;stroke-linecap:round;stroke-linejoin:round;stroke-miterlimit:10;" d="
			M240.553,110.978l-9.336-8.247l-1.119,1.261l-9.219-8.142l0.004-0.006l-0.01-0.001l-0.003-0.001l0,0l-0.646-0.132l-0.646-0.132
			l0.207,0.631l0.213,0.627l0.006-0.004l9.217,8.14l-1.119,1.256l9.336,8.245c0.967,0.86,2.453,0.771,3.314-0.197
			C241.615,113.31,241.527,111.831,240.553,110.978z"/>
	</g>
	<g>
		<path style="fill:none;stroke:#FFFFFF;stroke-width:0.9543;stroke-miterlimit:10;" d="M243.113,94.697l-4.629,5.189
			c-0.525,0.59-1.432,0.643-2.025,0.119l-1.707-1.512c-0.59-0.522-0.645-1.425-0.121-2.014l4.627-5.188
			c-2.137-0.606-4.531,0.001-6.104,1.767c-1.52,1.709-1.875,4.053-1.113,6.048c-0.125,0.083-0.238,0.183-0.343,0.299l-2.981,3.341
			l1.404,1.243l1.121-1.259l2.814,2.484l1.857-2.088c0.107-0.115,0.191-0.24,0.258-0.373c2.086,0.516,4.383-0.108,5.902-1.818
			C243.648,99.172,243.973,96.734,243.113,94.697z"/>
		<path style="fill:none;stroke:#FFFFFF;stroke-width:0.9543;stroke-miterlimit:10;" d="M228.125,106.226l1.12-1.256l-1.404-1.239
			l-6.137,6.879c-0.64,0.718-0.573,1.825,0.147,2.466l1.592,1.405c0.723,0.638,1.836,0.573,2.482-0.147l5.013-5.623L228.125,106.226
			z"/>
	</g>
</g>
<g>
	<path style="fill:none;stroke:#FFFFFF;stroke-width:1.2;stroke-miterlimit:10;" d="M311.383,113.493
		c0,0.574-0.43,1.038-0.959,1.038h-22.082c-0.531,0-0.959-0.464-0.959-1.038V93.969c0-0.574,0.428-1.039,0.959-1.039h22.082
		c0.529,0,0.959,0.465,0.959,1.039V113.493z"/>
	<path style="fill:#FFFFFF;" d="M289.408,105.693c-0.566,0-0.566,0.676,0,0.676h3.671l2.013,4.056
		c0.203,0.407,0.785,0.334,0.818-0.103l0.914-9.354c0,0,2.195,7.2,2.972,7.2h2.335c0.195,0,0.402-0.147,0.422-0.301l0.691-4.265
		c0,0,3.145,5.409,3.701,5.409h2.613c0.566,0,0.566-0.676,0-0.676h-2.34l-3.889-6.466c-0.088-0.454-0.781-0.44-0.842,0.017
		l-0.74,5.605h-1.598l-3.328-8.992c-0.066-0.461-0.811-0.446-0.846,0.018l-0.796,10.246l-1.417-2.857
		c-0.046-0.09-0.273-0.213-0.395-0.213H289.408L289.408,105.693z"/>
</g>
<g>
	<path style="fill:none;stroke:#FFFFFF;stroke-width:1.2;stroke-miterlimit:10;" d="M311.383,113.493
		c0,0.574-0.43,1.038-0.959,1.038h-22.082c-0.531,0-0.959-0.464-0.959-1.038V93.969c0-0.574,0.428-1.039,0.959-1.039h22.082
		c0.529,0,0.959,0.465,0.959,1.039V113.493z"/>
	<path style="fill:#FFFFFF;" d="M289.408,105.693c-0.566,0-0.566,0.676,0,0.676h3.671l2.013,4.056
		c0.203,0.407,0.785,0.334,0.818-0.103l0.914-9.354c0,0,2.195,7.2,2.972,7.2h2.335c0.195,0,0.402-0.147,0.422-0.301l0.691-4.265
		c0,0,3.145,5.409,3.701,5.409h2.613c0.566,0,0.566-0.676,0-0.676h-2.34l-3.889-6.466c-0.088-0.454-0.781-0.44-0.842,0.017
		l-0.74,5.605h-1.598l-3.328-8.992c-0.066-0.461-0.811-0.446-0.846,0.018l-0.796,10.246l-1.417-2.857
		c-0.046-0.09-0.273-0.213-0.395-0.213H289.408L289.408,105.693z"/>
</g>
<g>
	<path style="fill:none;stroke:#FFFFFF;stroke-width:1.2;stroke-miterlimit:10;" d="M8.245,19.931c0,1.416-1.197,2.564-2.5,2.564
		l0,0c-1.303,0-2.5-1.148-2.5-2.564V14.8c0-1.418,1.197-2.566,2.5-2.566l0,0c1.303,0,2.5,1.148,2.5,2.566V19.931z"/>
	<rect x="25.245" y="14.162" style="fill:none;stroke:#FFFFFF;stroke-width:1.2;stroke-miterlimit:10;" width="2" height="5"/>
	<path style="fill:none;stroke:#FFFFFF;stroke-width:1.2;stroke-miterlimit:10;" d="M25.981,13.966
		c0-7.924-4.621-11.412-9.984-11.412s-9.713,4.327-9.756,9.68"/>
	<path style="fill:none;stroke:#FFFFFF;stroke-width:1.2;stroke-miterlimit:10;" d="M8.423,20.607c0,0-0.737,2.509,6.566,2.509"/>
	<path style="fill:none;stroke:#FFFFFF;stroke-width:1.2;stroke-miterlimit:10;" d="M20.245,24.929c0,0.681-0.553,1.233-1.234,1.233
		h-2.531c-0.682,0-1.234-0.553-1.234-1.233v-0.532c0-0.682,0.553-1.234,1.234-1.234h2.531c0.682,0,1.234,0.553,1.234,1.234V24.929z"
		/>
</g>
</svg>
