<?xml version="1.0" encoding="utf-8"?>
<!-- Generator: Adobe Illustrator 19.2.1, SVG Export Plug-In . SVG Version: 6.00 Build 0)  -->
<!DOCTYPE svg PUBLIC "-//W3C//DTD SVG 1.1//EN" "http://www.w3.org/Graphics/SVG/1.1/DTD/svg11.dtd">
<svg version="1.1" id="Layer_1" xmlns="http://www.w3.org/2000/svg" xmlns:xlink="http://www.w3.org/1999/xlink" x="0px" y="0px"
	 viewBox="0 0 18 18" style="enable-background:new 0 0 18 18;" xml:space="preserve">
<style type="text/css">
	.st0{}
</style>
<g>
	<g>
		<path class="st0" d="M9,0L9,0L9,0c2.5,0,4.7,1,6.4,2.6C17,4.3,18,6.5,18,9h0v0l0,0h0c0,2.5-1,4.7-2.6,6.4C13.7,17,11.5,18,9,18v0
			h0l0,0v0c-2.5,0-4.7-1-6.4-2.6C1,13.7,0,11.5,0,9h0l0,0l0,0h0c0-2.5,1-4.7,2.6-6.4C4.3,1,6.5,0,9,0L9,0L9,0L9,0z M9,1.2L9,1.2
			L9,1.2L9,1.2L9,1.2c-2.1,0-4.1,0.9-5.5,2.3C2.1,4.9,1.2,6.9,1.2,9h0l0,0l0,0h0c0,2.1,0.9,4.1,2.3,5.5c1.4,1.4,3.4,2.3,5.5,2.3v0
			l0,0h0v0c2.1,0,4.1-0.9,5.5-2.3c1.4-1.4,2.3-3.4,2.3-5.5h0l0,0v0h0c0-2.1-0.9-4.1-2.3-5.5C13.1,2.1,11.1,1.2,9,1.2L9,1.2z"/>
	</g>
	<g>
		<path class="st0" d="M8.1,12.8h1.8v1.6H8.1V12.8z M8.2,3.6h1.5l-0.2,7.8H8.4L8.2,3.6z"/>
	</g>
</g>
</svg>
