<?xml version="1.0" encoding="utf-8"?>
<!-- Generator: Adobe Illustrator 19.2.1, SVG Export Plug-In . SVG Version: 6.00 Build 0)  -->
<svg version="1.1" id="Layer_1" xmlns="http://www.w3.org/2000/svg" xmlns:xlink="http://www.w3.org/1999/xlink" x="0px" y="0px"
	 viewBox="0 0 293.5 63.2" style="enable-background:new 0 0 293.5 63.2;" xml:space="preserve">
<style type="text/css">
	.st0{fill:#F5F5F5;}
	.st1{fill:#D9D9D9;}
	.st2{fill:#D5D5D5;}
	.st3{fill:#E7E7E7;}
	.st4{fill:#C3C3C3;}
	.st5{fill:#DCDDDE;}
	.st6{fill:#B9B9B9;}
	.st7{fill:#E4E4E4;}
	.st8{fill:#CFCFCF;}
</style>
<g id="Layer_1_1_">
	<g>
		<rect x="0.5" y="0.7" class="st0" width="90.7" height="62.1"/>
		<path class="st1" d="M90.7,1.2v61H1v-61H90.7 M91.7,0.2H0v63h91.7L91.7,0.2L91.7,0.2z"/>
	</g>
	<g>
		<rect x="101.6" y="0.5" class="st0" width="90.7" height="62.1"/>
		<path class="st1" d="M191.8,1v61.1h-89.7V1L191.8,1 M192.8,0h-91.7v63.1h91.7V0L192.8,0z"/>
	</g>
	<g>
		<rect x="202.2" y="0.7" class="st0" width="90.7" height="62.1"/>
		<path class="st1" d="M292.5,1.2v61h-89.7v-61H292.5 M293.5,0.2h-91.7v63h91.7V0.2L293.5,0.2z"/>
	</g>
	<g>
		<rect x="170.6" y="24.1" class="st2" width="5.7" height="5.7"/>
		<rect x="170.6" y="31" class="st3" width="5.7" height="5.7"/>
		<g>
			<path class="st4" d="M137.6,11.6v6.8c7.2,0,13.1,5.9,13.1,13.1c0,3.6-1.5,6.9-3.8,9.2l4.8,4.8c3.6-3.6,5.8-8.6,5.8-14.1
				C157.5,20.5,148.6,11.6,137.6,11.6z"/>
			<path class="st3" d="M137.6,11.6c-5.5,0-10.5,2.2-14.1,5.8l4.8,4.8c2.4-2.4,5.7-3.8,9.3-3.8L137.6,11.6L137.6,11.6z"/>
			<path class="st2" d="M146.8,40.8c-2.4,2.4-5.7,3.8-9.3,3.8c-3.6,0-6.9-1.5-9.3-3.8c-2.4-2.4-3.8-5.6-3.8-9.2
				c0-3.6,1.5-6.9,3.8-9.2l-4.8-4.8c-3.6,3.6-5.8,8.6-5.8,14.1c0,5.5,2.2,10.5,5.8,14.1c3.6,3.6,8.6,5.8,14.1,5.8s10.5-2.2,14.1-5.8
				L146.8,40.8z"/>
		</g>
		<g>
			<rect x="170.6" y="17.3" class="st4" width="5.7" height="5.7"/>
		</g>
	</g>
	<g>
		<g>
			<rect x="218.8" y="49.8" class="st5" width="57.6" height="2.2"/>
			<rect x="218.8" y="43.6" class="st6" width="12.6" height="2.8"/>
			<rect x="218.8" y="37.2" class="st7" width="12.6" height="6.6"/>
			<rect x="218.8" y="32.7" class="st8" width="12.6" height="4.6"/>
			<rect x="233.7" y="40.2" class="st6" width="12.6" height="6.1"/>
			<rect x="233.7" y="26.6" class="st7" width="12.6" height="13.8"/>
			<rect x="233.7" y="15.3" class="st8" width="12.6" height="11.5"/>
			<rect x="248.7" y="42.5" class="st6" width="12.6" height="3.8"/>
			<rect x="248.7" y="17.2" class="st7" width="12.6" height="25.5"/>
			<rect x="248.7" y="11.8" class="st8" width="12.6" height="5.6"/>
			<rect x="263.6" y="33.5" class="st7" width="12.6" height="11"/>
			<rect x="263.6" y="22.5" class="st8" width="12.6" height="11.2"/>
			<rect x="263.8" y="41.5" class="st6" width="12.6" height="4.8"/>
		</g>
	</g>
	<g>
		<rect x="26" y="21.1" class="st8" width="31.5" height="6.1"/>
		<rect x="26" y="11.5" class="st7" width="15.1" height="6.1"/>
		<rect x="26" y="40.4" class="st7" width="31.5" height="6.1"/>
		<rect x="26" y="30.8" class="st6" width="46.4" height="6.1"/>
		<rect x="17" y="49.7" class="st5" width="57.8" height="2.2"/>
		<rect x="17" y="45.5" class="st5" width="4.8" height="1.4"/>
		<rect x="17" y="41.3" class="st5" width="4.8" height="1.4"/>
		<rect x="17" y="37.1" class="st5" width="4.8" height="1.4"/>
		<rect x="17" y="32.9" class="st5" width="4.8" height="1.4"/>
		<rect x="17" y="28.7" class="st5" width="4.8" height="1.4"/>
		<rect x="17" y="24.5" class="st5" width="4.8" height="1.4"/>
		<rect x="17" y="20.3" class="st5" width="4.8" height="1.4"/>
		<rect x="17" y="16.1" class="st5" width="4.8" height="1.4"/>
		<rect x="17" y="12" class="st5" width="4.8" height="1.4"/>
	</g>
</g>
<g id="Layer_2">
</g>
</svg>
