<?xml version="1.0" encoding="utf-8"?>
<!-- Generator: Adobe Illustrator 18.1.1, SVG Export Plug-In . SVG Version: 6.00 Build 0)  -->
<!DOCTYPE svg PUBLIC "-//W3C//DTD SVG 1.1//EN" "http://www.w3.org/Graphics/SVG/1.1/DTD/svg11.dtd">
<svg version="1.1" id="Layer_1" xmlns="http://www.w3.org/2000/svg" xmlns:xlink="http://www.w3.org/1999/xlink" x="0px" y="0px"
	 viewBox="0 0 16 16" enable-background="new 0 0 16 16" xml:space="preserve">
<g>
	<path fill="none" d="M14.1,13.5l-1.4-4.7V8.4c0-0.1,0.8-4.4-2.2-5.5h-0.1l-0.2-0.2C9.5,1.8,8.8,1.3,8,1.3c-0.5,0-1.3,0.5-2,1.4
		L5.7,3C2.5,4.1,3.4,8.8,3.4,8.8l0,0.3l-1.5,4.4H14.1z"/>
	<path fill="#EEEEEE" d="M14,8.7c0.1-1,0.5-5.4-3-6.9c-1-1.2-2-1.8-3-1.8c-1.3,0-2.5,1-2.9,1.6C3.4,2.4,1.6,4.2,2,9l-2,5.9h6
		c0.4,0.6,1,1,1.8,1c0.8,0,1.6-0.4,2.1-1H16L14,8.7z M3.4,8.8c0,0-0.9-4.7,2.2-5.9L6,2.7c0.7-0.8,1.5-1.4,2-1.4
		c0.8,0,1.5,0.4,2.1,1.4l0.2,0.2h0.1c3,1.2,2.2,5.4,2.2,5.5v0.4l1.4,4.7H1.9l1.5-4.4L3.4,8.8z"/>
</g>
</svg>
