<?xml version="1.0" encoding="utf-8"?>
<!-- Generator: Adobe Illustrator 19.1.0, SVG Export Plug-In . SVG Version: 6.00 Build 0)  -->
<!DOCTYPE svg PUBLIC "-//W3C//DTD SVG 1.1//EN" "http://www.w3.org/Graphics/SVG/1.1/DTD/svg11.dtd">
<svg version="1.1" id="Layer_1" xmlns="http://www.w3.org/2000/svg" xmlns:xlink="http://www.w3.org/1999/xlink" x="0px" y="0px"
	 width="13" height="13" viewBox="0 0 13 13" style="enable-background:new 0 0 13 13;" xml:space="preserve">
<g>
	<g>
		<g>
			<path style="fill:#444444;" d="M6,12c-3.3,0-6-2.7-6-6s2.7-6,6-6s6,2.7,6,6S9.3,12,6,12z M6,0.675
				c-2.925,0-5.325,2.4-5.325,5.325s2.4,5.325,5.325,5.325s5.325-2.4,5.325-5.325S8.925,0.675,6,0.675z"/>
		</g>
	</g>
	<g>
		<path style="fill:#444444;" d="M8.025,2.925C6.289,1.031,3.471,2.54,3.375,4.2l0.9,0.075C4.425,3.9,4.725,2.925,6,2.925
			c0.45,0,0.9,0.15,1.125,0.375c0.3,0.3,0.45,0.6,0.45,0.975c0,0.75-0.6,1.2-1.05,1.575C6.15,6.15,5.85,6.525,5.7,6.75
			c-0.15,0.225-0.225,0.6-0.225,0.975V7.8h0.9c0-0.3,0.075-0.6,0.15-0.75C6.6,6.825,6.825,6.6,7.2,6.3
			C8.414,5.51,9,4.148,8.025,2.925z"/>
		<rect x="5.475" y="8.775" style="fill:#444444;" width="0.975" height="0.975"/>
	</g>
</g>
</svg>
