<?xml version="1.0" encoding="utf-8"?>
<!-- Generator: Adobe Illustrator 19.2.1, SVG Export Plug-In . SVG Version: 6.00 Build 0)  -->
<svg version="1.1" id="Layer_1" xmlns="http://www.w3.org/2000/svg" xmlns:xlink="http://www.w3.org/1999/xlink" x="0px" y="0px"
	 viewBox="0 0 18 18" style="enable-background:new 0 0 18 18;" xml:space="preserve">
<style type="text/css">
	.st0{fill:#666666;}
</style>
<g>
	<g>
		<path class="st0" d="M9,18.2c-5,0-9-4-9-9s4-9,9-9s9,4,9,9S14,18.2,9,18.2z M9,1.2c-4.4,0-8,3.6-8,8s3.6,8,8,8s8-3.6,8-8
			S13.4,1.2,9,1.2z"/>
	</g>
	<g>
		<path class="st0" d="M10.4,7.4H10L7.6,7.8L7.5,8.1c0.1,0,0.2,0,0.3,0c0.2,0,0.3,0,0.4,0.1s0.1,0.2,0.1,0.3c0,0.2,0,0.4-0.1,0.7
			l-1,3.4C7.1,12.8,7,13.1,7,13.2c0,0.3,0.1,0.5,0.3,0.6s0.4,0.3,0.7,0.3c0.8,0,1.6-0.6,2.3-1.8L10,12.2c-0.3,0.5-0.5,0.8-0.8,0.9
			c-0.1,0.1-0.2,0.1-0.2,0.1c0,0-0.1,0-0.1-0.1c0,0-0.1-0.1-0.1-0.1c0-0.1,0-0.3,0.1-0.6L10.4,7.4z"/>
		<path class="st0" d="M10,4.2c-0.3,0-0.5,0.1-0.7,0.3C9,4.7,8.9,4.9,8.9,5.2C8.9,5.5,9,5.8,9.2,6S9.7,6.3,10,6.3
			c0.3,0,0.5-0.1,0.7-0.3C10.9,5.8,11,5.5,11,5.2s-0.1-0.5-0.3-0.7C10.5,4.3,10.2,4.2,10,4.2z"/>
	</g>
</g>
</svg>
