<?xml version="1.0" encoding="iso-8859-1"?>
<!-- Generator: Adobe Illustrator 18.1.1, SVG Export Plug-In . SVG Version: 6.00 Build 0)  -->
<!DOCTYPE svg PUBLIC "-//W3C//DTD SVG 1.1//EN" "http://www.w3.org/Graphics/SVG/1.1/DTD/svg11.dtd">
<svg version="1.1" id="Layer_1" xmlns="http://www.w3.org/2000/svg" xmlns:xlink="http://www.w3.org/1999/xlink" x="0px" y="0px"
	 viewBox="0 0 16 16" style="enable-background:new 0 0 16 16;" xml:space="preserve">
<g>
	<path style="fill:none;" d="M4.571,5.943c0.457,0,1.257,0.229,1.6,0.457V6.057h7.086V7.2H7.2C7.657,7.657,8,8.8,8,9.029h5.257
		v1.143H8C7.657,12,6.4,13.257,4.571,13.257v1.6h10.286V1.143H4.571V5.943z M6.171,2.971h7.086v1.143H6.171V2.971z"/>
	<rect x="6.171" y="2.971" style="fill:#0099FF;" width="7.086" height="1.143"/>
	<path style="fill:#0099FF;" d="M3.429,0v6.057C2.4,6.286,1.371,7.2,1.029,8.114s-0.343,1.943,0,2.857
		C1.257,11.543,1.6,12,2.057,12.343L0,15.429L0.8,16l2.057-3.086c0.229,0.114,0.343,0.114,0.571,0.229V16H16V0H3.429z M1.714,9.6
		c0-1.486,1.257-2.743,2.743-2.743S7.2,8.114,7.2,9.6s-1.257,2.743-2.743,2.743C2.971,12.343,1.714,11.086,1.714,9.6z
		 M14.857,14.857H4.571v-1.6C6.4,13.143,7.771,12,8,10.171h5.257V9.029H8C8,8.8,7.543,7.657,7.086,7.2h6.171V6.057H6.171V6.4
		c-0.343-0.229-1.143-0.457-1.6-0.457v-4.8h10.286V14.857z"/>
</g>
</svg>
