<?xml version="1.0" encoding="utf-8"?>
<!-- Generator: Adobe Illustrator 19.2.1, SVG Export Plug-In . SVG Version: 6.00 Build 0)  -->
<!DOCTYPE svg PUBLIC "-//W3C//DTD SVG 1.1//EN" "http://www.w3.org/Graphics/SVG/1.1/DTD/svg11.dtd">
<svg version="1.1" id="Layer_1" xmlns="http://www.w3.org/2000/svg" xmlns:xlink="http://www.w3.org/1999/xlink" x="0px" y="0px"
	 viewBox="0 0 18 18" style="enable-background:new 0 0 18 18;" xml:space="preserve">
<style type="text/css">
	.st0{}
</style>
<g>
	<path class="st0" d="M15.1,9C15.1,9,15.1,9,15.1,9L18,7.7L17.5,6l-3.1,0.2c-0.3-0.6-0.7-1.2-1.2-1.6l1.1-2.9l-1.5-0.9l-2,2.4
		C10.2,3.1,9.7,3,9.1,3C9,3,8.9,3,8.8,3L7.5,0L5.8,0.4l0.4,3.4c-0.5,0.3-0.9,0.6-1.3,1L1.6,3.5L0.7,5l2.7,2.3C3.2,7.8,3.1,8.4,3.1,9
		L0,10.3L0.5,12l3.4-0.3c0.3,0.5,0.6,1.1,1.1,1.5l-1.2,3l1.5,0.9l2.1-2.5C7.9,14.9,8.5,15,9.1,15c0,0,0,0,0.1,0l1.3,3l1.7-0.4
		l-0.4-3.3c0.5-0.3,1.1-0.6,1.5-1.1l3.1,1.2l0.9-1.5l-2.5-2.1C15,10.3,15.1,9.7,15.1,9z M9,12.8c-2.1,0-3.8-1.7-3.8-3.8
		S6.9,5.2,9,5.2s3.8,1.7,3.8,3.8S11.1,12.8,9,12.8z"/>
</g>
</svg>
