<?xml version="1.0" encoding="utf-8"?>
<!-- Generator: Adobe Illustrator 19.2.1, SVG Export Plug-In . SVG Version: 6.00 Build 0)  -->
<!DOCTYPE svg PUBLIC "-//W3C//DTD SVG 1.1//EN" "http://www.w3.org/Graphics/SVG/1.1/DTD/svg11.dtd">
<svg version="1.1" id="Layer_1" xmlns="http://www.w3.org/2000/svg" xmlns:xlink="http://www.w3.org/1999/xlink" x="0px" y="0px"
	 viewBox="0 0 18 18" style="enable-background:new 0 0 18 18;" xml:space="preserve">
<style type="text/css">
	.st0{}
</style>
<g>
	<g>
		<path class="st0" d="M9,18c-4.9,0-9-4-9-9s4.1-9,9-9s9,4.1,9,9S14,18,9,18z M9,1C4.6,1,1,4.6,1,9s3.6,8,8,8s8-3.6,8-8S13.4,1,9,1z
			"/>
	</g>
	<path id="Rectangle-path_3_" class="st0" d="M5.8,6.7c2.7,0,4.2,2.4,6.6,2.4s3.5-1.3,3.5-1.3s-1.4,3.1-3.5,3.1
		c-2.6,0-4.2-2.6-6.6-2.6c-2.6,0-3.5,1.5-3.5,1.5S3.1,6.7,5.8,6.7z"/>
</g>
</svg>
