<?xml version="1.0" encoding="iso-8859-1"?>
<!-- Generator: Adobe Illustrator 18.1.1, SVG Export Plug-In . SVG Version: 6.00 Build 0)  -->
<!DOCTYPE svg PUBLIC "-//W3C//DTD SVG 1.1//EN" "http://www.w3.org/Graphics/SVG/1.1/DTD/svg11.dtd">
<svg version="1.1" id="Layer_1" xmlns="http://www.w3.org/2000/svg" xmlns:xlink="http://www.w3.org/1999/xlink" x="0px" y="0px"
	 viewBox="0 0 144 24" style="enable-background:new 0 0 144 24;" xml:space="preserve">
<g>
	<g>
		<g>
			<path style="fill:#FFFFFF;" d="M0.002,22.304l0.575-0.862c1.28,0.805,2.531,1.078,3.811,1.078c2.2,0,3.178-0.619,3.178-2.085
				c0-1.51-1.266-1.726-3.178-2.071c-2.301-0.403-3.854-0.791-3.854-2.948c0-2.056,1.323-2.861,3.854-2.861
				c1.668,0,2.861,0.374,3.71,0.948l-0.604,0.92c-0.762-0.503-1.898-0.833-3.106-0.833c-1.913,0-2.732,0.532-2.732,1.797
				c0,1.352,1.107,1.611,3.005,1.956c2.33,0.418,4.012,0.762,4.012,3.049c0,2.113-1.352,3.134-4.256,3.134
				C2.806,23.527,1.354,23.196,0.002,22.304z"/>
			<path style="fill:#FFFFFF;" d="M9.551,12.556h7.046v1.078h-5.91v3.523h5.766v1.064h-5.766v3.953h5.968v1.035H9.551V12.556z"/>
			<path style="fill:#FFFFFF;" d="M17.593,18.048c0-3.724,1.927-5.493,5.306-5.493c1.51,0,2.789,0.446,3.724,1.337l-0.805,0.805
				c-0.762-0.69-1.769-1.063-2.933-1.063c-2.746,0-4.156,1.481-4.156,4.428c0,2.905,1.323,4.415,4.17,4.415
				c1.596,0,2.372-0.504,3.005-1.093l0.791,0.762c-0.733,0.719-1.783,1.395-3.854,1.395C19.261,23.541,17.593,21.657,17.593,18.048z
				"/>
			<path style="fill:#FFFFFF;" d="M27.841,19.371v-6.815h1.136v6.686c0,1.811,0.575,3.091,3.264,3.091
				c2.718,0,3.336-1.251,3.336-3.091v-6.686h1.093v6.815c0,2.114-0.661,4.012-4.429,4.012
				C28.459,23.383,27.841,21.471,27.841,19.371z"/>
			<path style="fill:#FFFFFF;" d="M42.163,18.868h-3.178v4.342h-1.107V12.556h4.601c2.473,0,3.594,1.006,3.594,3.12
				c0,1.841-0.877,2.905-2.732,3.149l2.574,4.385h-1.208L42.163,18.868z M42.494,17.833c1.51,0,2.444-0.461,2.444-2.114
				s-0.906-2.114-2.487-2.114h-3.465v4.228H42.494z"/>
			<path style="fill:#FFFFFF;" d="M47.454,12.556h1.107V23.21h-1.107V12.556z"/>
			<path style="fill:#FFFFFF;" d="M53.57,13.634h-3.997v-1.078h9.131v1.078h-3.997v9.576H53.57V13.634z"/>
			<path style="fill:#FFFFFF;" d="M63.646,19.069l-4.285-6.514h1.237l3.623,5.493l3.652-5.493h1.165l-4.27,6.499v4.156h-1.122
				V19.069z"/>
			<path style="fill:#FFFFFF;" d="M73.941,12.541h3.479c3.997,0,5.464,1.208,5.464,5.32c0,4.026-1.639,5.334-5.651,5.334h-3.293
				V12.541z M77.277,22.16c3.365,0,4.472-1.136,4.472-4.299c0-3.221-0.935-4.256-4.314-4.256h-2.358v8.555H77.277z"/>
			<path style="fill:#FFFFFF;" d="M84.367,12.541h1.107v10.655h-1.107V12.541z"/>
			<path style="fill:#FFFFFF;" d="M91.513,18.853h-3.178v4.342h-1.107V12.541h4.601c2.473,0,3.594,1.006,3.594,3.12
				c0,1.841-0.877,2.905-2.732,3.149l2.574,4.385h-1.208L91.513,18.853z M91.844,17.818c1.51,0,2.444-0.461,2.444-2.114
				s-0.906-2.114-2.487-2.114h-3.465v4.228H91.844z"/>
			<path style="fill:#FFFFFF;" d="M96.69,12.541h7.046v1.078h-5.91v3.523h5.766v1.064h-5.766v3.953h5.968v1.035H96.69V12.541z"/>
			<path style="fill:#FFFFFF;" d="M104.973,18.033c0-3.724,1.927-5.493,5.306-5.493c1.51,0,2.789,0.446,3.724,1.337l-0.805,0.805
				c-0.762-0.69-1.769-1.063-2.933-1.063c-2.746,0-4.156,1.481-4.156,4.428c0,2.905,1.323,4.415,4.17,4.415
				c1.596,0,2.372-0.504,3.005-1.093l0.791,0.762c-0.733,0.719-1.783,1.395-3.854,1.395
				C106.64,23.526,104.973,21.642,104.973,18.033z"/>
			<path style="fill:#FFFFFF;" d="M118.805,13.619h-3.997v-1.078h9.131v1.078h-3.997v9.576h-1.136V13.619z"/>
			<path style="fill:#FFFFFF;" d="M123.695,18.033c0-3.796,1.941-5.493,5.349-5.493c3.422,0,5.378,1.696,5.378,5.493
				c0,3.81-1.956,5.507-5.378,5.507C125.636,23.541,123.695,21.843,123.695,18.033z M133.285,18.047
				c0-2.876-1.337-4.428-4.242-4.428c-2.89,0-4.213,1.552-4.213,4.428c0,2.891,1.323,4.443,4.213,4.443
				C131.948,22.49,133.285,20.938,133.285,18.047z"/>
			<path style="fill:#FFFFFF;" d="M140.087,18.853h-3.178v4.342h-1.107V12.541h4.601c2.473,0,3.594,1.006,3.594,3.12
				c0,1.841-0.877,2.905-2.732,3.149l2.574,4.385h-1.208L140.087,18.853z M140.417,17.818c1.51,0,2.444-0.461,2.444-2.114
				s-0.906-2.114-2.487-2.114h-3.465v4.228H140.417z"/>
		</g>
	</g>
	<g>
		<path style="fill:#FFFFFF;" d="M35.279,7.011l0.385-0.581c0.86,0.543,1.701,0.725,2.562,0.725c1.477,0,2.134-0.414,2.134-1.4
			c0-1.016-0.852-1.16-2.134-1.392c-1.547-0.271-2.591-0.532-2.591-1.982c0-1.381,0.889-1.921,2.591-1.921
			c1.12,0,1.921,0.251,2.492,0.639l-0.406,0.617c-0.513-0.337-1.275-0.559-2.086-0.559c-1.287,0-1.836,0.358-1.836,1.206
			c0,0.909,0.743,1.083,2.018,1.316c1.565,0.279,2.694,0.512,2.694,2.047c0,1.42-0.907,2.105-2.858,2.105
			C37.162,7.83,36.188,7.609,35.279,7.011"/>
		<path style="fill:#FFFFFF;" d="M42.827,0.459h3.14c1.662,0,2.415,0.656,2.415,2.126c0,1.478-0.745,2.281-2.425,2.281H43.57v2.752
			h-0.743V0.459z M45.976,4.17c1.062,0,1.653-0.415,1.653-1.555c0-1.141-0.57-1.449-1.681-1.449H43.57V4.17H45.976z"/>
		<path style="fill:#FFFFFF;" d="M51.416,0.459h0.762l2.872,7.208h-0.775l-0.656-1.653h-3.671L49.3,7.668h-0.842L51.416,0.459z
			 M53.347,5.321l-1.566-3.944l-1.574,3.944H53.347z"/>
		<path style="fill:#FFFFFF;" d="M55.89,4.149c0-2.502,1.296-3.689,3.566-3.689c1.013,0,1.873,0.299,2.501,0.898l-0.539,0.54
			c-0.513-0.464-1.19-0.715-1.972-0.715c-1.845,0-2.791,0.995-2.791,2.976c0,1.952,0.888,2.966,2.802,2.966
			c1.073,0,1.594-0.338,2.018-0.734l0.53,0.512c-0.492,0.483-1.197,0.936-2.588,0.936C57.013,7.839,55.89,6.575,55.89,4.149"/>
		<polygon style="fill:#FFFFFF;" points="63.536,0.459 68.269,0.459 68.269,1.185 64.3,1.185 64.3,3.552 68.171,3.552 68.171,4.266 
			64.3,4.266 64.3,6.923 68.308,6.923 68.308,7.618 63.536,7.618 		"/>
		<path style="fill:#FFFFFF;" d="M21.771,8.039c2.442,0,3.424-1.274,3.424-3.797c0-2.509-0.983-3.783-3.424-3.783
			c-2.443,0-3.398,1.274-3.398,3.783C18.373,6.765,19.328,8.039,21.771,8.039 M21.771,7.415c-1.965,0-2.722-1.076-2.722-3.16
			c0-2.084,0.757-3.159,2.722-3.159c1.977,0,2.747,1.075,2.747,3.159C24.518,6.339,23.749,7.415,21.771,7.415 M28.5,8.039
			c1.859,0,2.801-0.491,2.801-2.137c0-1.447-0.969-1.726-2.708-2.097c-1.394-0.306-2.004-0.518-2.004-1.46
			c0-0.77,0.451-1.261,1.937-1.261c0.916,0,1.646,0.226,2.204,0.544l0.319-0.557c-0.637-0.371-1.46-0.611-2.536-0.611
			c-1.898,0-2.589,0.717-2.589,1.871c0,1.447,0.956,1.74,2.602,2.097c1.527,0.332,2.111,0.518,2.111,1.487
			c0,1.208-0.69,1.513-2.111,1.513c-0.743,0-1.659-0.133-2.548-0.704L25.62,7.242C26.602,7.893,27.638,8.039,28.5,8.039
			 M0.254,9.459c2.828,0,2.947-1.261,2.947-3.04v-5.8H2.537v5.8c0,1.341,0.053,2.416-2.284,2.416H0.002v0.625H0.254z M7.342,8.039
			c2.814,0,2.934-1.261,2.934-3.04v-4.38H9.612v4.38c0,1.34,0.053,2.416-2.27,2.416c-2.336,0-2.323-1.076-2.323-2.35V0.619H4.342
			v4.433C4.342,6.778,4.515,8.039,7.342,8.039 M14.351,0.459c-2.814,0-2.934,1.261-2.934,3.04V7.88h0.664V3.499
			c0-1.341-0.053-2.416,2.27-2.416c2.336,0,2.323,1.075,2.323,2.349V7.88h0.677V3.446C17.35,1.72,17.178,0.459,14.351,0.459"/>
	</g>
</g>
</svg>
