<?xml version="1.0" encoding="utf-8"?>
<!-- Generator: Adobe Illustrator 19.2.1, SVG Export Plug-In . SVG Version: 6.00 Build 0)  -->
<!DOCTYPE svg PUBLIC "-//W3C//DTD SVG 1.1//EN" "http://www.w3.org/Graphics/SVG/1.1/DTD/svg11.dtd">
<svg version="1.1" id="Layer_1" xmlns="http://www.w3.org/2000/svg" xmlns:xlink="http://www.w3.org/1999/xlink" x="0px" y="0px"
	 viewBox="0 0 18 18" style="enable-background:new 0 0 18 18;" xml:space="preserve">
<style type="text/css">
	.st0{}
</style>
<g>
	<path class="st0" d="M11.6,6.7L6.5,12L3.8,8.2C3.7,8,3.6,7.9,3.4,7.9H1V9h2.1l2.8,4.1c0.1,0.1,0.2,0.2,0.4,0.2l0,0
		c0.2,0,0.3-0.1,0.4-0.2l5.4-5.6H17v-1h-5C11.8,6.5,11.7,6.6,11.6,6.7z"/>
	<g>
		<path class="st0" d="M16,8.7v5.8c0,0.4-0.3,0.7-0.7,0.7H2.7c-0.4,0-0.7-0.3-0.7-0.7v-4.4H1.1v4.4c0,0.9,0.7,1.6,1.6,1.6h12.6
			c0.9,0,1.6-0.7,1.6-1.6V8.7H16z"/>
		<path class="st0" d="M2,6.8V3.5c0-0.4,0.3-0.7,0.7-0.7h12.6c0.4,0,0.7,0.3,0.7,0.7v1.9h0.9V3.5c0-0.9-0.7-1.6-1.6-1.6H2.7
			c-0.9,0-1.6,0.7-1.6,1.6v3.3H2z"/>
	</g>
</g>
</svg>
