<?xml version="1.0" encoding="utf-8"?>
<!-- Generator: Adobe Illustrator 19.2.1, SVG Export Plug-In . SVG Version: 6.00 Build 0)  -->
<!DOCTYPE svg PUBLIC "-//W3C//DTD SVG 1.1//EN" "http://www.w3.org/Graphics/SVG/1.1/DTD/svg11.dtd">
<svg version="1.1" id="Layer_1" xmlns="http://www.w3.org/2000/svg" xmlns:xlink="http://www.w3.org/1999/xlink" x="0px" y="0px"
	 viewBox="0 0 18 18" style="enable-background:new 0 0 18 18;" xml:space="preserve">
<style type="text/css">
	.st0{}
</style>
<g>
	<rect x="2.3" y="9.7" class="st0" width="3" height="1.6"/>
	<rect x="6" y="9.7" class="st0" width="3" height="1.6"/>
	<rect x="9.8" y="9.7" class="st0" width="3" height="1.6"/>
	<rect x="13.7" y="7.2" class="st0" width="2" height="1"/>
	<rect x="14.2" y="10.2" class="st0" width="1.5" height="1"/>
	<path class="st0" d="M17,5.1c0.1,0,0.1,0,0.1,0.1v7.5c0,0.1,0,0.1-0.1,0.1H1c-0.1,0-0.1,0-0.1-0.1V5.2c0-0.1,0-0.1,0.1-0.1H17
		 M17,4.2H1c-0.5,0-1,0.4-1,1v7.5c0,0.5,0.5,1,1,1h16c0.6,0,1-0.5,1-1V5.2C18,4.7,17.6,4.2,17,4.2L17,4.2z"/>
</g>
</svg>
