<?xml version="1.0" encoding="utf-8"?>
<!-- Generator: Adobe Illustrator 19.2.1, SVG Export Plug-In . SVG Version: 6.00 Build 0)  -->
<svg version="1.1" id="Layer_1" xmlns="http://www.w3.org/2000/svg" xmlns:xlink="http://www.w3.org/1999/xlink" x="0px" y="0px"
	 viewBox="0 0 64 12" style="enable-background:new 0 0 64 12;" xml:space="preserve">
<style type="text/css">
	.st0{}
	.st1{enable-background:new    ;}
</style>
<path id="Combined-Shape" class="st0" d="M4.422,1.522h8.308h0.5v-1h-0.5H4.422h-0.5v1H4.422z M0.73,1.522h0.923h0.5v-1h-0.5H0.73
	h-0.5v1H0.73z M4.422,5.522h8.308h0.5v-1h-0.5H4.422h-0.5v1H4.422z M0.73,5.522h0.923h0.5v-1h-0.5H0.73h-0.5v1H0.73z M4.422,9.522
	h8.308h0.5v-1h-0.5H4.422h-0.5v1H4.422z M0.73,9.522h0.923h0.5v-1h-0.5H0.73h-0.5v1H0.73z"/>
<g class="st1">
	<path class="st0" d="M24.879,9V0.41h1.137v7.576h4.23V9H24.879z"/>
	<path class="st0" d="M35.725,6.996l1.09,0.135c-0.172,0.637-0.49,1.131-0.955,1.482s-1.059,0.527-1.781,0.527
		c-0.91,0-1.632-0.28-2.165-0.841s-0.8-1.347-0.8-2.358c0-1.047,0.27-1.859,0.809-2.438s1.238-0.867,2.098-0.867
		c0.832,0,1.512,0.283,2.039,0.85S36.85,4.85,36.85,5.877c0,0.062-0.002,0.156-0.006,0.281h-4.641
		c0.039,0.684,0.232,1.207,0.58,1.57s0.781,0.545,1.301,0.545c0.387,0,0.717-0.102,0.99-0.305S35.564,7.441,35.725,6.996z
		 M32.262,5.291h3.475c-0.047-0.523-0.18-0.916-0.398-1.178c-0.336-0.406-0.771-0.609-1.307-0.609c-0.484,0-0.892,0.162-1.222,0.486
		S32.297,4.748,32.262,5.291z"/>
	<path class="st0" d="M37.945,9.516l1.025,0.152c0.043,0.316,0.162,0.547,0.357,0.691c0.262,0.195,0.619,0.293,1.072,0.293
		c0.488,0,0.865-0.098,1.131-0.293s0.445-0.469,0.539-0.82c0.055-0.215,0.08-0.666,0.076-1.354C41.686,8.729,41.111,9,40.424,9
		c-0.855,0-1.518-0.309-1.986-0.926s-0.703-1.357-0.703-2.221c0-0.594,0.107-1.142,0.322-1.644s0.526-0.89,0.935-1.163
		s0.888-0.41,1.438-0.41c0.734,0,1.34,0.297,1.816,0.891v-0.75h0.973v5.379c0,0.969-0.099,1.655-0.296,2.06s-0.51,0.724-0.938,0.958
		s-0.954,0.352-1.579,0.352c-0.742,0-1.342-0.167-1.799-0.501S37.93,10.188,37.945,9.516z M38.818,5.777
		c0,0.816,0.162,1.412,0.486,1.787s0.73,0.562,1.219,0.562c0.484,0,0.891-0.187,1.219-0.56s0.492-0.958,0.492-1.755
		c0-0.762-0.169-1.336-0.507-1.723s-0.745-0.58-1.222-0.58c-0.469,0-0.867,0.19-1.195,0.571S38.818,5.027,38.818,5.777z"/>
	<path class="st0" d="M49.072,6.996l1.09,0.135c-0.172,0.637-0.49,1.131-0.955,1.482s-1.059,0.527-1.781,0.527
		c-0.91,0-1.632-0.28-2.165-0.841s-0.8-1.347-0.8-2.358c0-1.047,0.27-1.859,0.809-2.438s1.238-0.867,2.098-0.867
		c0.832,0,1.512,0.283,2.039,0.85s0.791,1.363,0.791,2.391c0,0.062-0.002,0.156-0.006,0.281h-4.641
		c0.039,0.684,0.232,1.207,0.58,1.57s0.781,0.545,1.301,0.545c0.387,0,0.717-0.102,0.99-0.305S48.912,7.441,49.072,6.996z
		 M45.609,5.291h3.475c-0.047-0.523-0.18-0.916-0.398-1.178c-0.336-0.406-0.771-0.609-1.307-0.609c-0.484,0-0.892,0.162-1.222,0.486
		S45.645,4.748,45.609,5.291z"/>
	<path class="st0" d="M51.486,9V2.777h0.949v0.885c0.457-0.684,1.117-1.025,1.98-1.025c0.375,0,0.72,0.067,1.034,0.202
		S56,3.15,56.156,3.369s0.266,0.479,0.328,0.779c0.039,0.195,0.059,0.537,0.059,1.025V9h-1.055V5.215
		c0-0.43-0.041-0.751-0.123-0.964s-0.228-0.383-0.437-0.51s-0.454-0.19-0.735-0.19c-0.449,0-0.837,0.143-1.163,0.428
		s-0.489,0.826-0.489,1.623V9H51.486z"/>
	<path class="st0" d="M62.197,9V8.215c-0.395,0.617-0.975,0.926-1.74,0.926c-0.496,0-0.952-0.137-1.368-0.41
		s-0.738-0.655-0.967-1.146s-0.343-1.054-0.343-1.69c0-0.621,0.104-1.185,0.311-1.69s0.518-0.894,0.932-1.163
		s0.877-0.404,1.389-0.404c0.375,0,0.709,0.079,1.002,0.237s0.531,0.364,0.715,0.618V0.41h1.049V9H62.197z M58.863,5.895
		c0,0.797,0.168,1.393,0.504,1.787s0.732,0.592,1.189,0.592c0.461,0,0.853-0.188,1.175-0.565s0.483-0.952,0.483-1.726
		c0-0.852-0.164-1.477-0.492-1.875S60.99,3.51,60.51,3.51c-0.469,0-0.86,0.191-1.175,0.574S58.863,5.07,58.863,5.895z"/>
</g>
</svg>
