<?xml version="1.0" encoding="iso-8859-1"?>
<!-- Generator: Adobe Illustrator 18.1.1, SVG Export Plug-In . SVG Version: 6.00 Build 0)  -->
<!DOCTYPE svg PUBLIC "-//W3C//DTD SVG 1.1//EN" "http://www.w3.org/Graphics/SVG/1.1/DTD/svg11.dtd">
<svg version="1.1" id="Layer_1" xmlns="http://www.w3.org/2000/svg" xmlns:xlink="http://www.w3.org/1999/xlink" x="0px" y="0px"
	 viewBox="0 0 447 697" style="enable-background:new 0 0 447 697;" xml:space="preserve">
<g>
	<path style="opacity:0.33;fill:#FFFFFF;" d="M446.5,54.551c-18.128-18.137-36.255-36.273-54.385-54.418H9.799
		c-21.052,60.873-9.545,129.704,31.9,180.912c41.757,51.774,106.272,63.985,167.141,80.529
		c79.269,21.029,158.556,42.488,237.66,63.635V54.551z"/>
	<path style="opacity:0.33;fill:#FFFFFF;" d="M446.5,95.37c-79.103,21.301-158.39,42.414-237.66,63.801
		C147.972,175.566,83.457,187.852,41.7,239.552c-49.099,60.814-56.182,146.113-16.891,213.76
		c39.228,67.737,116.353,104.433,193.617,92.382c65.747-10.429,108.5-60.114,153.142-104.581
		c24.998-24.976,49.966-49.966,74.931-74.956V95.37z"/>
	<path style="opacity:0.33;fill:#FFFFFF;" d="M446.5-0.5h-59.068c-12.884,48.02-25.769,96.026-38.633,143.984
		c-21.872,82.138-43.797,164.275-65.859,246.263c-16.285,61.027-37.922,123.009-13.955,185.128
		c28.186,72.887,98.49,121.65,176.75,121.625c0.256,0,0.51-0.01,0.765-0.01V-0.5z"/>
	<path style="opacity:0.6;fill:#FFFFFF;" d="M446.5-0.5H274.375c0.059,0.211,0.113,0.422,0.172,0.633
		c2.788,10.268,5.666,20.509,8.393,30.716c22.062,82.137,43.986,164.075,65.859,246.251c32.296,120.49,64.726,241.135,96.936,361.86
		c0.256-0.956,0.51-1.911,0.765-2.867V-0.5z"/>
	<path style="opacity:0.33;fill:#FFFFFF;" d="M446.5,52.994c-35.623,35.643-71.243,71.269-106.913,106.824
		c-88.42,88.261-176.738,176.635-264.955,264.736c120.513-32.218,241.152-64.584,361.739-97.051
		c3.374-0.901,6.753-1.81,10.129-2.712V52.994z"/>
	<path style="opacity:0.33;fill:#FFFFFF;" d="M446.5,95.788c-3.376-0.908-6.755-1.812-10.129-2.721
		C319.994,61.819,203.573,30.696,87.26-0.5h-9.242c87.092,87.017,174.28,174.291,261.57,261.229
		c35.669,35.652,71.292,71.327,106.913,107.001V95.788z"/>
</g>
</svg>
