<?xml version="1.0" encoding="utf-8"?>
<!-- Generator: Adobe Illustrator 19.1.0, SVG Export Plug-In . SVG Version: 6.00 Build 0)  -->
<!DOCTYPE svg PUBLIC "-//W3C//DTD SVG 1.1//EN" "http://www.w3.org/Graphics/SVG/1.1/DTD/svg11.dtd">
<svg version="1.1" id="icon_help_utility" xmlns="http://www.w3.org/2000/svg" xmlns:xlink="http://www.w3.org/1999/xlink" x="0px" y="0px"
	 viewBox="0 0 16 16" style="enable-background:new 0 0 16 16;" xml:space="preserve">
<g>
	<g>
		<path style="" d="M12.072,1.3c-1-0.9-2.4-1.3-4.2-1.3c-1.6,0-2.9,0.4-3.9,1.3c-0.9,0.8-1.4,1.6-1.6,2.6l1.9,0.2
			c0.3-0.8,1.9-2.8,3.7-2.8c1,0,1.8,0.3,2.4,0.8c0.6,0.6,0.9,1.2,0.9,2c0,1.5-1.2,2.5-2.2,3.3c-0.9,0.7-1.5,1.4-1.8,1.9
			c-0.3,0.5-0.4,1.2-0.4,2.1c0,0,0,0.1,0,0.2h1.9c0-0.7,0.1-1.2,0.3-1.6c0.2-0.4,0.7-0.9,1.4-1.6c1.3-1.1,2.1-1.9,2.5-2.5
			s0.5-1.1,0.5-1.7C13.572,3.2,13.072,2.2,12.072,1.3z"/>
		<rect x="6.872" y="13.8" style="" width="2.2" height="2.2"/>
	</g>
</g>
</svg>
