<svg id="Layer_1" data-name="Layer 1" xmlns="http://www.w3.org/2000/svg" viewBox="0 0 15.81 15.79"><defs><style>.cls-1{}</style></defs><title>icon_unpin</title><path class="cls-1" d="M11.52,2.24,13.6,4.32l-.17.27L9.37,10.92l0,.06L4.87,6.52l.05,0,6.32-4,.28-.19M10.69,0l-.2.2.18,1.36,0,0-6.32,4L2.62,5.38l-.15.15,1,.95,5.94,6,1,1,.14-.15-.26-1.78,4.06-6.33,1.34.19.2-.2L10.69,0Z" transform="translate(0 0)"/><polygon class="cls-1" points="0 15.79 6.44 10.89 4.93 9.38 0 15.79"/><rect class="cls-1" x="7.4" y="-2.71" width="1" height="21.2" transform="translate(-3.27 7.91) rotate(-45.04)"/></svg>
