<?xml version="1.0" encoding="utf-8"?>
<!-- Generator: Adobe Illustrator 18.1.1, SVG Export Plug-In . SVG Version: 6.00 Build 0)  -->
<!DOCTYPE svg PUBLIC "-//W3C//DTD SVG 1.1//EN" "http://www.w3.org/Graphics/SVG/1.1/DTD/svg11.dtd">
<svg version="1.1" id="icon_human_one" xmlns="http://www.w3.org/2000/svg" xmlns:xlink="http://www.w3.org/1999/xlink" x="0px" y="0px"
	 viewBox="0 0 16 16" enable-background="new 0 0 16 16" xml:space="preserve">
<g>
	<path fill="none" d="M1.4,14.6h13.2v-2.9c0-0.2-0.1-0.3-0.2-0.4C12.7,9.8,10.4,8.9,8,8.9c-2.4,0-4.7,0.9-6.4,2.6
		c0,0-0.2,0.2-0.2,0.4V14.6z"/>
	<circle fill="none" cx="8" cy="4.2" r="2.8"/>
	<path  d="M15.3,10.3c-1.5-1.3-3.2-2.2-5.1-2.6c1.3-0.8,2.1-2.2,2.1-3.6C12.2,1.8,10.4,0,8,0C5.6,0,3.8,1.9,3.8,4.2
		c0,1.5,0.8,2.8,2.1,3.6C3.7,8.3,0,10,0,11.8V16h16v-4.2C16,11.1,15.6,10.6,15.3,10.3z M1.6,11.5c1.8-1.7,4-2.6,6.4-2.6
		c2.4,0,4.7,0.9,6.3,2.5c0.1,0.1,0.2,0.2,0.2,0.4v2.9H1.4v-2.8C1.4,11.6,1.5,11.5,1.6,11.5z M5.2,4.2c0-1.5,1.2-2.8,2.8-2.8
		c1.5,0,2.8,1.2,2.8,2.8S9.5,7,8,7C6.5,7,5.2,5.7,5.2,4.2z"/>
</g>
</svg>
