<?xml version="1.0" encoding="iso-8859-1"?>
<!-- Generator: Adobe Illustrator 16.0.0, SVG Export Plug-In . SVG Version: 6.00 Build 0)  -->
<!DOCTYPE svg PUBLIC "-//W3C//DTD SVG 1.1//EN" "http://www.w3.org/Graphics/SVG/1.1/DTD/svg11.dtd">
<svg version="1.1" id="Layer_1" xmlns="http://www.w3.org/2000/svg" xmlns:xlink="http://www.w3.org/1999/xlink" x="0px" y="0px"
	 width="30px" height="30px" viewBox="0 0 30 30" style="enable-background:new 0 0 30 30;" xml:space="preserve">
<g>
	<g>
		
			<path style="fill:none;stroke:#FFFFFF;stroke-width:0.9543;stroke-linecap:round;stroke-linejoin:round;stroke-miterlimit:10;" d="
			M240.553,110.978l-9.336-8.247l-1.119,1.261l-9.219-8.142l0.004-0.006l-0.01-0.001l-0.003-0.001l0,0l-0.646-0.132l-0.646-0.132
			l0.207,0.631l0.213,0.627l0.006-0.004l9.217,8.14l-1.119,1.256l9.336,8.245c0.967,0.86,2.453,0.771,3.314-0.197
			C241.615,113.31,241.527,111.831,240.553,110.978z"/>
	</g>
	<g>
		<path style="fill:none;stroke:#FFFFFF;stroke-width:0.9543;stroke-miterlimit:10;" d="M243.113,94.697l-4.629,5.189
			c-0.525,0.59-1.432,0.643-2.025,0.119l-1.707-1.512c-0.59-0.522-0.645-1.425-0.121-2.014l4.627-5.188
			c-2.137-0.606-4.531,0.001-6.104,1.767c-1.52,1.709-1.875,4.053-1.113,6.048c-0.125,0.083-0.238,0.183-0.343,0.299l-2.981,3.341
			l1.404,1.243l1.121-1.259l2.814,2.484l1.857-2.088c0.107-0.115,0.191-0.24,0.258-0.373c2.086,0.516,4.383-0.108,5.902-1.818
			C243.648,99.172,243.973,96.734,243.113,94.697z"/>
		<path style="fill:none;stroke:#FFFFFF;stroke-width:0.9543;stroke-miterlimit:10;" d="M228.125,106.226l1.12-1.256l-1.404-1.239
			l-6.137,6.879c-0.64,0.718-0.573,1.825,0.147,2.466l1.592,1.405c0.723,0.638,1.836,0.573,2.482-0.147l5.013-5.623L228.125,106.226
			z"/>
	</g>
</g>
<g>
	<g>
		
			<path style="fill:none;stroke:#FFFFFF;stroke-width:0.9543;stroke-linecap:round;stroke-linejoin:round;stroke-miterlimit:10;" d="
			M240.553,110.978l-9.336-8.247l-1.119,1.261l-9.219-8.142l0.004-0.006l-0.01-0.001l-0.003-0.001l0,0l-0.646-0.132l-0.646-0.132
			l0.207,0.631l0.213,0.627l0.006-0.004l9.217,8.14l-1.119,1.256l9.336,8.245c0.967,0.86,2.453,0.771,3.314-0.197
			C241.615,113.31,241.527,111.831,240.553,110.978z"/>
	</g>
	<g>
		<path style="fill:none;stroke:#FFFFFF;stroke-width:0.9543;stroke-miterlimit:10;" d="M243.113,94.697l-4.629,5.189
			c-0.525,0.59-1.432,0.643-2.025,0.119l-1.707-1.512c-0.59-0.522-0.645-1.425-0.121-2.014l4.627-5.188
			c-2.137-0.606-4.531,0.001-6.104,1.767c-1.52,1.709-1.875,4.053-1.113,6.048c-0.125,0.083-0.238,0.183-0.343,0.299l-2.981,3.341
			l1.404,1.243l1.121-1.259l2.814,2.484l1.857-2.088c0.107-0.115,0.191-0.24,0.258-0.373c2.086,0.516,4.383-0.108,5.902-1.818
			C243.648,99.172,243.973,96.734,243.113,94.697z"/>
		<path style="fill:none;stroke:#FFFFFF;stroke-width:0.9543;stroke-miterlimit:10;" d="M228.125,106.226l1.12-1.256l-1.404-1.239
			l-6.137,6.879c-0.64,0.718-0.573,1.825,0.147,2.466l1.592,1.405c0.723,0.638,1.836,0.573,2.482-0.147l5.013-5.623L228.125,106.226
			z"/>
	</g>
</g>
<g>
	<path style="fill:none;stroke:#FFFFFF;stroke-width:1.2;stroke-miterlimit:10;" d="M311.383,113.493
		c0,0.574-0.43,1.038-0.959,1.038h-22.082c-0.531,0-0.959-0.464-0.959-1.038V93.969c0-0.574,0.428-1.039,0.959-1.039h22.082
		c0.529,0,0.959,0.465,0.959,1.039V113.493z"/>
	<path style="fill:#FFFFFF;" d="M289.408,105.693c-0.566,0-0.566,0.676,0,0.676h3.671l2.013,4.056
		c0.203,0.407,0.785,0.334,0.818-0.103l0.914-9.354c0,0,2.195,7.2,2.972,7.2h2.335c0.195,0,0.402-0.147,0.422-0.301l0.691-4.265
		c0,0,3.145,5.409,3.701,5.409h2.613c0.566,0,0.566-0.676,0-0.676h-2.34l-3.889-6.466c-0.088-0.454-0.781-0.44-0.842,0.017
		l-0.74,5.605h-1.598l-3.328-8.992c-0.066-0.461-0.811-0.446-0.846,0.018l-0.796,10.246l-1.417-2.857
		c-0.046-0.09-0.273-0.213-0.395-0.213H289.408L289.408,105.693z"/>
</g>
<g>
	<path style="fill:none;stroke:#FFFFFF;stroke-width:1.2;stroke-miterlimit:10;" d="M311.383,113.493
		c0,0.574-0.43,1.038-0.959,1.038h-22.082c-0.531,0-0.959-0.464-0.959-1.038V93.969c0-0.574,0.428-1.039,0.959-1.039h22.082
		c0.529,0,0.959,0.465,0.959,1.039V113.493z"/>
	<path style="fill:#FFFFFF;" d="M289.408,105.693c-0.566,0-0.566,0.676,0,0.676h3.671l2.013,4.056
		c0.203,0.407,0.785,0.334,0.818-0.103l0.914-9.354c0,0,2.195,7.2,2.972,7.2h2.335c0.195,0,0.402-0.147,0.422-0.301l0.691-4.265
		c0,0,3.145,5.409,3.701,5.409h2.613c0.566,0,0.566-0.676,0-0.676h-2.34l-3.889-6.466c-0.088-0.454-0.781-0.44-0.842,0.017
		l-0.74,5.605h-1.598l-3.328-8.992c-0.066-0.461-0.811-0.446-0.846,0.018l-0.796,10.246l-1.417-2.857
		c-0.046-0.09-0.273-0.213-0.395-0.213H289.408L289.408,105.693z"/>
</g>
<g>
	<path style="fill:#FFFFFF;" d="M19.887,13.501c0.111,0.203,0.246,0.389,0.393,0.555l-0.705,1.907l0.799,0.496l1.229-1.531
		c0.234,0.082,0.471,0.128,0.725,0.144l0.787,1.826l0.891-0.223l-0.199-1.905c0.258-0.127,0.486-0.292,0.686-0.486l1.701,0.709
		l0.457-0.808L25.27,13c0.09-0.297,0.137-0.614,0.129-0.932L27,11.371l-0.24-0.923l-1.746,0.142
		c-0.152-0.285-0.348-0.537-0.566-0.757l0.627-1.688l-0.799-0.498l-1.143,1.427C22.863,9,22.584,8.967,22.295,8.97l-0.762-1.763
		l-0.887,0.224l0.201,1.974c-0.209,0.132-0.402,0.287-0.564,0.471l-1.824-0.764l-0.461,0.81l1.555,1.34
		c-0.047,0.218-0.074,0.44-0.074,0.675l-1.832,0.8l0.24,0.925L19.887,13.501z M20.51,12.509c-0.271-1.041,0.32-2.091,1.322-2.341
		c1.004-0.254,2.035,0.389,2.307,1.429c0.271,1.039-0.32,2.089-1.322,2.343C21.812,14.191,20.781,13.554,20.51,12.509z"/>
</g>
<g>
	<path style="fill:#FFFFFF;" d="M10.624,7.184l1.46,0.156l0.163,3.074c0.431,0.153,0.831,0.361,1.196,0.625l2.512-1.503l0.924,1.186
		l-1.885,2.19c0.211,0.453,0.359,0.939,0.434,1.452l2.705,0.761l-0.16,1.521l-2.793,0.158c-0.172,0.484-0.416,0.928-0.713,1.322
		l1.404,2.553l-1.139,0.963l-2.159-2.014c-0.409,0.176-0.843,0.295-1.296,0.342l-0.771,2.973l-1.461-0.156l-0.166-3.186
		c-0.365-0.162-0.696-0.371-1.006-0.621l-2.701,1.611l-0.921-1.186l2.13-2.477c-0.133-0.336-0.23-0.688-0.287-1.055L3,15.003
		l0.152-1.522l3.203-0.18c0.128-0.35,0.293-0.671,0.487-0.973l-1.586-2.88l1.14-0.962l2.317,2.163
		c0.349-0.177,0.724-0.308,1.112-0.388L10.624,7.184 M10.571,18.189c1.512,0,2.813-1.195,2.979-2.801
		c0.173-1.713-1.021-3.25-2.671-3.432c-0.108-0.012-0.216-0.018-0.322-0.018c-1.513,0-2.812,1.194-2.975,2.8
		c-0.175,1.714,1.021,3.25,2.67,3.433C10.359,18.184,10.466,18.189,10.571,18.189 M9.722,5.881l-0.26,1.002L8.873,9.156L7.215,7.608
		L6.437,6.881L5.623,7.568L4.483,8.53L3.731,9.165l0.474,0.861l1.172,2.128l-2.292,0.129L2.061,12.34l-0.102,1.021l-0.152,1.522
		l-0.101,1.001l0.969,0.273l2.244,0.633l-1.577,1.832l-0.64,0.744l0.602,0.775l0.921,1.186l0.651,0.838l0.911-0.544l1.936-1.155
		l0.125,2.383L7.9,23.871l1.018,0.109l1.461,0.156l1.029,0.11l0.26-1.002l0.58-2.236c0.012-0.004,0.023-0.007,0.035-0.01
		l1.631,1.521l0.779,0.727l0.814-0.688l1.139-0.963l0.75-0.634l-0.475-0.86l-1.057-1.922c0.041-0.072,0.081-0.145,0.119-0.219
		l2.056-0.115l1.019-0.059l0.107-1.015l0.16-1.522l0.105-1.006l-0.975-0.274l-2.007-0.564c-0.024-0.086-0.05-0.171-0.077-0.256
		l1.416-1.645l0.641-0.745l-0.604-0.775l-0.924-1.186L16.25,7.961l-0.911,0.545l-1.887,1.129c-0.015-0.008-0.031-0.016-0.046-0.024
		l-0.124-2.335l-0.054-1.021l-1.017-0.108l-1.46-0.156L9.722,5.881L9.722,5.881z M10.571,16.989c-0.062,0-0.124-0.003-0.187-0.011
		c-0.995-0.109-1.716-1.061-1.608-2.118c0.099-0.982,0.865-1.722,1.781-1.722c0.062,0,0.125,0.003,0.189,0.01
		c0.996,0.11,1.717,1.061,1.61,2.12C12.255,16.248,11.488,16.989,10.571,16.989L10.571,16.989z"/>
</g>
</svg>
