<svg id="Layer_1" data-name="Layer 1" xmlns="http://www.w3.org/2000/svg" viewBox="0 0 26 26"><defs><style>.cls-1{fill:#fff;opacity:0.8;}</style></defs><title>icon_info_toast_message</title><path class="cls-1" d="M13,0A13,13,0,1,0,26,13,13,13,0,0,0,13,0Zm-.15,18.73a.26.26,0,0,0,.19.1.53.53,0,0,0,.35-.15,6.2,6.2,0,0,0,1.1-1.36l.35.2q-1.53,2.67-3.26,2.67a1.47,1.47,0,0,1-1.05-.37,1.24,1.24,0,0,1-.39-.94,3.54,3.54,0,0,1,.17-1l1.41-4.85a4.18,4.18,0,0,0,.2-1.06.52.52,0,0,0-.19-.4.76.76,0,0,0-.53-.17h-.37L11,11l3.44-.56H15l-2.08,7.22a3.94,3.94,0,0,0-.17.81A.29.29,0,0,0,12.85,18.73ZM15.44,8.36a1.44,1.44,0,0,1-1.06.44A1.49,1.49,0,0,1,12.9,7.31a1.44,1.44,0,0,1,.43-1.06,1.43,1.43,0,0,1,1.05-.44,1.48,1.48,0,0,1,1.49,1.49A1.44,1.44,0,0,1,15.44,8.36Z"/></svg>