<?xml version="1.0" encoding="utf-8"?>
<!-- Generator: Adobe Illustrator 19.1.0, SVG Export Plug-In . SVG Version: 6.00 Build 0)  -->
<!DOCTYPE svg PUBLIC "-//W3C//DTD SVG 1.1//EN" "http://www.w3.org/Graphics/SVG/1.1/DTD/svg11.dtd">
<svg version="1.1" id="Layer_1" xmlns="http://www.w3.org/2000/svg" xmlns:xlink="http://www.w3.org/1999/xlink" x="0px" y="0px"
	 viewBox="0 0 18 18" style="enable-background:new 0 0 18 18;" xml:space="preserve">
<g>
	<g>
		<path style="" d="M9,0L9,0v0.002c2.485,0,4.736,1.008,6.363,2.634c1.626,1.627,2.634,3.877,2.634,6.363H18V9l0,0
			h-0.003c0,2.486-1.008,4.737-2.634,6.363c-1.628,1.629-3.878,2.635-6.362,2.635V18H9l0,0v-0.002c-2.487,0-4.737-1.007-6.364-2.635
			C1.009,13.737,0.001,11.486,0.001,9H0l0,0l0,0h0.001c0-2.487,1.008-4.737,2.634-6.365C4.263,1.009,6.513,0.001,9,0.001V0L9,0L9,0z
			 M9,1.216v0.002l0,0l0,0V1.216c-2.147,0-4.093,0.87-5.502,2.281C2.088,4.907,1.216,6.853,1.216,9h0.002l0,0l0,0H1.216
			c0,2.146,0.871,4.093,2.282,5.5c1.409,1.411,3.355,2.282,5.502,2.282V16.78l0,0h0.002v0.003c2.146,0,4.091-0.872,5.499-2.281
			c1.411-1.409,2.282-3.356,2.282-5.502h-0.002l0,0V8.998h0.002c0-2.146-0.872-4.091-2.282-5.501C13.094,2.086,11.148,1.216,9,1.216
			L9,1.216z"/>
	</g>
	<g>
		<path style="" d="M8.1,12.797h1.8V14.4H8.1V12.797z M8.245,3.6h1.511l-0.161,7.827H8.406L8.245,3.6z"/>
	</g>
</g>
</svg>
