<?xml version="1.0" encoding="iso-8859-1"?>
<!-- Generator: Adobe Illustrator 18.1.1, SVG Export Plug-In . SVG Version: 6.00 Build 0)  -->
<!DOCTYPE svg PUBLIC "-//W3C//DTD SVG 1.1//EN" "http://www.w3.org/Graphics/SVG/1.1/DTD/svg11.dtd">
<svg version="1.1" id="Layer_1" xmlns="http://www.w3.org/2000/svg" xmlns:xlink="http://www.w3.org/1999/xlink" x="0px" y="0px"
	 viewBox="2 2 12 12" style="enable-background:new 2 2 12 12;" xml:space="preserve">
<g>
	<g>
		<g>
			<g>
				<path style="fill:#0099FF;" d="M8.504,9.518H7.425C7.422,9.364,7.42,9.271,7.42,9.237c0-0.347,0.058-0.632,0.174-0.855
					C7.709,8.16,7.941,7.908,8.288,7.629C8.635,7.35,8.842,7.167,8.91,7.08c0.105-0.136,0.157-0.287,0.157-0.452
					c0-0.229-0.092-0.425-0.277-0.588C8.604,5.877,8.356,5.795,8.043,5.795c-0.302,0-0.554,0.085-0.757,0.256
					C7.082,6.22,6.943,6.48,6.866,6.829L5.774,6.695c0.031-0.5,0.246-0.924,0.645-1.273c0.399-0.349,0.923-0.523,1.572-0.523
					c0.683,0,1.225,0.176,1.629,0.529c0.403,0.354,0.605,0.764,0.605,1.234c0,0.259-0.073,0.505-0.222,0.737
					C9.856,7.63,9.54,7.946,9.054,8.345C8.803,8.552,8.647,8.719,8.586,8.844C8.526,8.969,8.498,9.194,8.504,9.518z M7.425,11.102
					V9.924h1.189v1.177H7.425V11.102z"/>
			</g>
		</g>
	</g>
	<g>
		<path style="fill:#0099FF;" d="M8,14c-3.308,0-6-2.692-6-6s2.692-6,6-6s6,2.692,6,6S11.308,14,8,14z M8,2.706
			C5.08,2.706,2.706,5.08,2.706,8S5.08,13.294,8,13.294S13.294,10.92,13.294,8S10.92,2.706,8,2.706z"/>
	</g>
</g>
</svg>
