<?xml version="1.0" encoding="utf-8"?>
<!-- Generator: Adobe Illustrator 19.2.1, SVG Export Plug-In . SVG Version: 6.00 Build 0)  -->
<!DOCTYPE svg PUBLIC "-//W3C//DTD SVG 1.1//EN" "http://www.w3.org/Graphics/SVG/1.1/DTD/svg11.dtd">
<svg version="1.1" id="Layer_1" xmlns="http://www.w3.org/2000/svg" xmlns:xlink="http://www.w3.org/1999/xlink" x="0px" y="0px"
	 viewBox="0 0 18 18" style="enable-background:new 0 0 18 18;" xml:space="preserve">
<style type="text/css">
	.st0{fill:#FFFFFF;}
</style>
<g>
	<g>
		<path class="st0" d="M17.1,11.5c-0.9-0.9-1.9-1.5-3-1.8c0.8-0.5,1.2-1.5,1.2-2.4c-0.1-1.6-1.1-2.8-2.6-2.8c-1.4,0-2.5,1.3-2.5,2.8
			c0,1,0.5,1.9,1.2,2.4c-0.3,0.1-0.7,0.2-1.1,0.4C9.5,9.5,8.6,9,7.6,8.8C8.5,8.1,9,7,9,5.9c0-1.8-1.3-3.2-2.9-3.2s-3,1.5-3,3.3
			c0,1.2,0.6,2.2,1.5,2.8C3.1,9.2,0.5,10.6,0.5,12v3.3H8h3.6h5.9v-2.8C17.5,12,17.3,11.7,17.1,11.5z M11,7.3c0-1.1,0.8-2,1.8-2
			s1.8,0.9,1.8,2c0,1.2-0.8,2-1.8,2C11.8,9.4,11,8.4,11,7.3z M3.8,6c0-1.3,0.9-2.5,2.2-2.5c1.2,0,2.2,1.1,2.2,2.5S7.2,8.5,6,8.5
			S3.8,7.3,3.8,6z M1.4,14.4v-2.3c0-0.2,0-0.3,0.2-0.5c0.2-0.2,0.2-0.2,0.4-0.4c0.9-0.8,2.5-1.6,4-1.6c1.2,0,2.4,0.3,3.4,1
			c0.3,0.2,0.4,0.3,0.7,0.5c0.2,0.2,0.2,0.2,0.4,0.4c0.1,0.2,0.1,0.3,0.1,0.5v2.4L1.4,14.4z M11.6,14.4V12c0-0.6-0.3-0.9-0.5-1.2
			L11,10.7c0.6-0.2,1.1-0.3,1.7-0.3c1.5,0,2.9,0.5,3.9,1.7c0.1,0.1,0.1,0.2,0.1,0.4v1.9L11.6,14.4z"/>
	</g>
</g>
</svg>
