<?xml version="1.0" encoding="utf-8"?>
<!-- Generator: Adobe Illustrator 19.2.1, SVG Export Plug-In . SVG Version: 6.00 Build 0)  -->
<!DOCTYPE svg PUBLIC "-//W3C//DTD SVG 1.1//EN" "http://www.w3.org/Graphics/SVG/1.1/DTD/svg11.dtd">
<svg version="1.1" id="Layer_1" xmlns="http://www.w3.org/2000/svg" xmlns:xlink="http://www.w3.org/1999/xlink" x="0px" y="0px"
	 viewBox="0 0 18 18" style="enable-background:new 0 0 18 18;" xml:space="preserve">
<style type="text/css">
	.st0{}
</style>
<g>
	<path class="st0" d="M16.5,1.2l-2.5,1.3l0,1.1l-6.1,6c0.3,0.3,0.5,0.5,0.8,0.8l6-6.1h1.1l1.2-2.5L16.5,1.2z"/>
	<path class="st0" d="M6,8.7l-5,5c-0.8,0.8-0.6,2.6,0.2,3.3c0.4,0.4,1.2,0.6,1.9,0.6c0.6,0,1.2-0.2,1.5-0.5l4.9-5L6,8.7z M8.4,12.3
		L4,16.6c-0.2,0.2-0.5,0.3-1,0.3c-0.5,0-1.1-0.2-1.4-0.4c-0.3-0.2-0.4-0.7-0.4-1.2c0-0.4,0.1-0.8,0.3-0.9L6,9.9L8.4,12.3z"/>
	<path class="st0" d="M6.5,7C6.4,6.8,6.1,6.7,5.9,6.7c-0.1,0-0.2,0-0.2,0C5.4,6.8,5.1,6.9,4.8,6.9C4,6.9,3.3,6.6,2.7,6
		C2.4,5.6,2.1,5.2,2,4.6l0.6,0.6c0.3,0.3,0.8,0.5,1.2,0.5c0.5,0,0.9-0.2,1.2-0.5l1-1c0.3-0.3,0.5-0.8,0.5-1.2C6.5,2.5,6.3,2,6,1.7
		L5.4,1.2c0.5,0.1,1,0.4,1.4,0.8c0.8,0.8,1,1.9,0.7,2.9c-0.1,0.3,0,0.6,0.2,0.8C8,5.9,8.5,6.4,9.1,7l0.6-0.6
		C9.1,5.8,8.6,5.3,8.4,5.1c0.4-1.3,0.1-2.7-0.9-3.8C6.7,0.6,5.8,0.2,4.8,0.2C4.4,0.2,4,0.3,3.6,0.5l1.8,1.8c0.4,0.4,0.4,0.9,0,1.3
		l-1,1C4.2,4.8,4,4.9,3.8,4.9c-0.2,0-0.5-0.1-0.6-0.3L1.3,2.7C0.8,4.1,1.1,5.6,2.2,6.6c0.7,0.7,1.7,1.1,2.6,1.1
		c0.4,0,0.8-0.1,1.1-0.2c0.2,0.2,0.7,0.7,1.3,1.3l0.6-0.6C7.2,7.6,6.7,7.1,6.5,7z"/>
	<path class="st0" d="M17.2,13.9c0,0-2.9-2.9-5.4-5.4l-0.6,0.6c2.5,2.5,5.4,5.3,5.4,5.4c0.1,0.1,0.1,0.1,0.1,0.2c0,0,0,0.1-0.1,0.2
		l-0.9,0.9c-0.1,0.1-0.1,0.1-0.2,0.1c0,0-0.1,0-0.2-0.1c0,0-2.9-2.9-5.4-5.4L9.3,11c2.5,2.5,5.4,5.4,5.4,5.4
		c0.2,0.2,0.5,0.3,0.8,0.3c0.3,0,0.6-0.1,0.8-0.3l0.9-0.9C17.7,15,17.7,14.3,17.2,13.9z"/>
</g>
</svg>
