<?xml version="1.0" encoding="utf-8"?>
<!-- Generator: Adobe Illustrator 19.1.0, SVG Export Plug-In . SVG Version: 6.00 Build 0)  -->
<!DOCTYPE svg PUBLIC "-//W3C//DTD SVG 1.1//EN" "http://www.w3.org/Graphics/SVG/1.1/DTD/svg11.dtd">
<svg version="1.1" id="Layer_1" xmlns="http://www.w3.org/2000/svg" xmlns:xlink="http://www.w3.org/1999/xlink" x="0px" y="0px"
	 viewBox="0 0 16 16" style="enable-background:new 0 0 16 16;" xml:space="preserve">
<g>
	<path style="" d="M14.414,15.275l-3.2-4.9c0.7-0.6,1.2-1.3,1.6-2.2c0.6-1.4,0.6-3,0-4.5c-0.6-1.4-1.7-2.6-3.2-3.2
		c-1.4-0.6-3-0.6-4.5,0c-1.4,0.7-2.5,1.8-3.1,3.2c-1.2,3,0.2,6.4,3.2,7.6c0.7,0.3,1.5,0.4,2.2,0.4c0.9,0,1.8-0.2,2.5-0.6l3.2,4.9
		L14.414,15.275z M5.814,9.875c-1.1-0.4-1.9-1.2-2.4-2.3c-0.4-1.1-0.4-2.2,0-3.3c0.7-1.7,2.3-2.7,4-2.7c0.5,0,1.1,0.1,1.6,0.3
		c1.1,0.4,1.9,1.3,2.3,2.3s0.4,2.2,0,3.3C10.514,9.775,8.014,10.775,5.814,9.875z"/>
</g>
</svg>
