<?xml version="1.0" encoding="utf-8"?>
<!-- Generator: Adobe Illustrator 19.2.1, SVG Export Plug-In . SVG Version: 6.00 Build 0)  -->
<svg version="1.1" id="Layer_1" xmlns="http://www.w3.org/2000/svg" xmlns:xlink="http://www.w3.org/1999/xlink" x="0px" y="0px"
	 viewBox="0 0 14 14" style="enable-background:new 0 0 14 14;" xml:space="preserve">
<style type="text/css">
	.st0{fill:#CCCCCC;}
</style>
<title>Fill 74</title>
<desc>Created with Sketch.</desc>
<g id="Policy-Model">
	<g id="Right-Panel-3" transform="translate(-1847.000000, -325.000000)">
		<g id="Group-4" transform="translate(1810.000000, 317.000000)">
			<path id="Fill-74" class="st0" d="M50.8,9.8c0,0-1.3-1.3-1.6-1.7c-0.3-0.3-0.7,0-0.7,0L47.7,9l2.4,2.4c0,0,0.3-0.2,0.8-0.7
				C51.3,10.2,50.8,9.8,50.8,9.8z M39.5,17.3l2.2,2.3l7.4-7.1l-2.4-2.5L39.5,17.3z M37.1,21.4c-0.3,0.8,0.4,0.6,0.4,0.6l3.4-1.6
				l-2.2-2.3C38.7,18.1,37.3,20.6,37.1,21.4z"/>
		</g>
	</g>
</g>
</svg>
