<svg id="Layer_1" data-name="Layer 1" xmlns="http://www.w3.org/2000/svg" viewBox="0 0 20 20"><defs><style>.cls-1{fill:#fff;}</style></defs><title>icon_info</title><path class="cls-1" d="M10,20A10,10,0,1,1,20,10,10,10,0,0,1,10,20ZM10,1.11A8.89,8.89,0,1,0,18.89,10,8.9,8.9,0,0,0,10,1.11Z"/><path class="cls-1" d="M11.55,8.07H11.08L8.43,8.5l-0.1.31H8.61A0.59,0.59,0,0,1,9,8.93a0.4,0.4,0,0,1,.15.3,3.21,3.21,0,0,1-.16.81L7.92,13.79a2.71,2.71,0,0,0-.13.73,1,1,0,0,0,.3.72,1.13,1.13,0,0,0,.81.28q1.33,0,2.51-2.05l-0.27-.16a4.78,4.78,0,0,1-.84,1,0.4,0.4,0,0,1-.27.12,0.2,0.2,0,0,1-.15-0.07,0.23,0.23,0,0,1-.07-0.16,3,3,0,0,1,.13-0.62Z"/><path class="cls-1" d="M11.06,4.47a1.1,1.1,0,0,0-.81.34,1.16,1.16,0,0,0,0,1.62,1.1,1.1,0,0,0,.81.34,1.15,1.15,0,0,0,.82-2A1.11,1.11,0,0,0,11.06,4.47Z"/></svg>