<svg id="Layer_1" data-name="Layer 1" xmlns="http://www.w3.org/2000/svg" viewBox="0 0 17.3 14.16"><defs><style>.cls-1{fill:#36c;}</style></defs><title>icon_announcement</title><path class="cls-1" d="M17.49,5.84h-1.8a.32.32,0,0,0,0,.63h1.8a.32.32,0,0,0,0-.63Z" transform="translate(-0.44 -0.88)"/><path class="cls-1" d="M15.14,5h0a.23.23,0,0,0,.17-.08l1.42-1.64a.38.38,0,0,0,0-.41.25.25,0,0,0-.19-.14.24.24,0,0,0-.2.08L15,4.42a.38.38,0,0,0,0,.41A.25.25,0,0,0,15.14,5Z" transform="translate(-0.44 -0.88)"/><path class="cls-1" d="M15.24,7.73a.22.22,0,0,0-.2,0,.27.27,0,0,0-.18.17h0a.37.37,0,0,0,.08.4l1.57,1.33a.23.23,0,0,0,.15.05h.05a.26.26,0,0,0,.18-.17.37.37,0,0,0-.08-.4ZM15,7.9h0Z" transform="translate(-0.44 -0.88)"/><path class="cls-1" d="M12.68,4.77V.88L5.36,4.14H2.84A2.53,2.53,0,0,0,.44,6.79,2.53,2.53,0,0,0,2.84,9.44h.51l2,5.61h4v-.12a7.4,7.4,0,0,0,0-1c-.1-.65-.43-.87-.71-1-1-.27-1.43-.41-1.49-.44a2.31,2.31,0,0,1-.51-.63,6.28,6.28,0,0,1-.69-2.3l6.74,2V7.81a1.49,1.49,0,0,0,1.25-1.52A1.49,1.49,0,0,0,12.68,4.77ZM5.88,8.88V4.67L12,1.94V10.7Zm-.1,5.46L4,9.44H5.26a7.33,7.33,0,0,0,.82,2.86,3,3,0,0,0,.67.82,1.37,1.37,0,0,0,.36.22h0l.09,0,.22.05.68.17.25.06.11,0c.12,0,.18.23.2.38a1.87,1.87,0,0,1,0,.27ZM5.17,4.85V8.73H2.83a1.63,1.63,0,0,1-1.22-.56A2.06,2.06,0,0,1,1.1,6.79,1.85,1.85,0,0,1,2.84,4.85Zm8.1,1.44a.81.81,0,0,1-.59.81V5.48A.81.81,0,0,1,13.27,6.29Z" transform="translate(-0.44 -0.88)"/></svg>