<?xml version="1.0" encoding="iso-8859-1"?>
<!-- Generator: Adobe Illustrator 18.1.1, SVG Export Plug-In . SVG Version: 6.00 Build 0)  -->
<!DOCTYPE svg PUBLIC "-//W3C//DTD SVG 1.1//EN" "http://www.w3.org/Graphics/SVG/1.1/DTD/svg11.dtd">
<svg version="1.1" id="Layer_1" xmlns="http://www.w3.org/2000/svg" xmlns:xlink="http://www.w3.org/1999/xlink" x="0px" y="0px"
	 viewBox="0 0 94 30" style="enable-background:new 0 0 94 30;" xml:space="preserve">
<g>
	<g style="opacity:0.33;">
		<g>
			<path style="fill:#FFFFFF;" d="M1.307,15.9c-1.521,1.877-1.74,4.508-0.523,6.596c1.215,2.09,3.602,3.222,5.994,2.85
				c2.034-0.32,3.357-1.854,4.74-3.227c1.862-1.852,3.719-3.711,5.581-5.564c2.738-2.719,5.469-5.447,8.201-8.166
				c-3.735,0.996-7.46,1.992-11.199,2.99c-2.536,0.685-5.077,1.357-7.621,2.041C4.597,13.926,2.6,14.305,1.307,15.9z"/>
		</g>
	</g>
	<g style="opacity:0.33;">
		<g>
			<path style="fill:#FFFFFF;" d="M8.342,26.246C9.214,28.494,11.391,30,13.813,30c2.42-0.004,4.597-1.506,5.469-3.754
				c0.743-1.916,0.074-3.828-0.431-5.711c-0.674-2.529-1.36-5.064-2.036-7.6c-1.005-3.715-2.003-7.438-3.002-11.16
				c-0.997,3.723-2.001,7.445-3,11.16c-0.678,2.535-1.356,5.07-2.038,7.6C8.269,22.418,7.599,24.33,8.342,26.246z"/>
		</g>
	</g>
	<g style="opacity:0.33;">
		<g>
			<path style="fill:#FFFFFF;" d="M20.848,25.346c2.392,0.372,4.789-0.756,5.994-2.85c1.209-2.092,0.995-4.719-0.521-6.596
				c-1.293-1.596-3.289-1.975-5.177-2.481c-2.536-0.684-5.081-1.356-7.619-2.041c-3.733-0.998-7.468-1.994-11.199-2.99
				c2.731,2.719,5.465,5.447,8.201,8.166c1.864,1.854,3.719,3.712,5.579,5.564C17.489,23.492,18.814,25.025,20.848,25.346z"/>
		</g>
	</g>
	<g style="opacity:0.33;">
		<g>
			<path style="fill:#FFFFFF;" d="M26.321,14.096c1.517-1.873,1.734-4.508,0.521-6.594c-1.215-2.094-3.602-3.227-5.994-2.85
				c-2.034,0.322-3.359,1.856-4.742,3.227c-1.86,1.855-3.715,3.711-5.579,5.56c-2.736,2.725-5.47,5.449-8.201,8.17
				c3.731-0.996,7.466-1.994,11.199-2.996c2.538-0.676,5.083-1.361,7.619-2.033C23.033,16.068,25.028,15.693,26.321,14.096z"/>
		</g>
	</g>
	<g style="opacity:0.33;">
		<g>
			<path style="fill:#FFFFFF;" d="M1.307,14.096c-1.521-1.873-1.74-4.508-0.523-6.594c1.215-2.094,3.602-3.227,5.994-2.85
				c2.034,0.322,3.357,1.856,4.742,3.227c1.86,1.855,3.717,3.711,5.579,5.56c2.738,2.725,5.469,5.449,8.201,8.17
				c-3.733-0.996-7.46-1.994-11.199-2.996c-2.536-0.676-5.077-1.361-7.621-2.033C4.597,16.068,2.6,15.693,1.307,14.096z"/>
		</g>
	</g>
	<g style="opacity:0.6;">
		<g>
			<path style="fill:#FFFFFF;" d="M19.282,3.752C18.41,1.5,16.233-0.002,13.813,0c-2.422,0.002-4.599,1.5-5.471,3.752
				C7.599,5.662,8.269,7.58,8.775,9.459c0.682,2.535,1.36,5.064,2.038,7.6c0.999,3.719,2.003,7.441,3,11.166
				c0.999-3.725,1.997-7.447,3.002-11.166c0.676-2.535,1.362-5.065,2.036-7.6C19.357,7.58,20.025,5.662,19.282,3.752z"/>
		</g>
	</g>
</g>
<g>
	<polygon style="fill:#FFFFFF;" points="63.23,21.985 63.601,21.985 65.511,24.61 65.511,21.985 65.84,21.985 65.84,25.173 
		65.531,25.173 63.556,22.468 63.556,25.173 63.23,25.173 	"/>
	<polygon style="fill:#FFFFFF;" points="66.658,21.985 68.77,21.985 68.77,22.312 66.997,22.312 66.997,23.363 68.725,23.363 
		68.725,23.678 66.997,23.678 66.997,24.861 68.79,24.861 68.79,25.173 66.658,25.173 	"/>
	<polygon style="fill:#FFFFFF;" points="70.482,22.312 69.282,22.312 69.282,21.985 72.023,21.985 72.023,22.312 70.822,22.312 
		70.822,25.173 70.482,25.173 	"/>
	<polygon style="fill:#FFFFFF;" points="72.437,21.985 72.787,21.985 73.626,24.619 74.484,21.985 74.776,21.985 75.631,24.619 
		76.475,21.985 76.806,21.985 75.778,25.196 75.486,25.196 74.623,22.543 73.761,25.196 73.465,25.196 	"/>
	<path style="fill:#FFFFFF;" d="M77.108,23.576c0-1.134,0.584-1.642,1.605-1.642c1.031,0,1.617,0.508,1.617,1.642
		c0,1.143-0.586,1.646-1.617,1.646C77.692,25.223,77.108,24.719,77.108,23.576 M79.991,23.581c0-0.856-0.408-1.322-1.278-1.322
		c-0.864,0-1.26,0.466-1.26,1.322c0,0.86,0.396,1.33,1.26,1.33C79.583,24.911,79.991,24.441,79.991,23.581"/>
	<path style="fill:#FFFFFF;" d="M82.311,23.873h-0.959v1.3h-0.329v-3.188h1.383c0.737,0,1.072,0.297,1.072,0.927
		c0,0.553-0.259,0.875-0.819,0.946l0.774,1.314h-0.365L82.311,23.873z M82.407,23.562c0.455,0,0.733-0.131,0.733-0.64
		c0-0.49-0.268-0.62-0.743-0.62h-1.044v1.26H82.407z"/>
	<polygon style="fill:#FFFFFF;" points="85.18,23.484 84.535,24.18 84.535,25.173 84.206,25.173 84.206,21.985 84.535,21.985 
		84.535,23.742 86.156,21.985 86.546,21.985 85.403,23.238 86.706,25.173 86.318,25.173 	"/>
	<path style="fill:#FFFFFF;" d="M86.99,24.847l0.17-0.253c0.385,0.24,0.761,0.318,1.145,0.318c0.656,0,0.95-0.184,0.95-0.621
		c0-0.448-0.376-0.514-0.95-0.62c-0.694-0.12-1.158-0.236-1.158-0.878c0-0.617,0.398-0.858,1.158-0.858
		c0.498,0,0.858,0.112,1.113,0.282l-0.18,0.276c-0.229-0.15-0.574-0.247-0.933-0.247c-0.576,0-0.823,0.157-0.823,0.537
		c0,0.404,0.337,0.48,0.903,0.585c0.698,0.126,1.205,0.227,1.205,0.908c0,0.635-0.404,0.937-1.282,0.937
		C87.833,25.213,87.394,25.117,86.99,24.847"/>
	<path style="fill:#FFFFFF;" d="M92.93,8.818c-4.495,0-4.679,2.007-4.679,4.84v6.95h1.06v-6.95c0-2.137-0.088-3.848,3.619-3.848
		c0.396,0,0.751,0.023,1.07,0.058V8.86C93.675,8.836,93.322,8.818,92.93,8.818"/>
	<path style="fill:#FFFFFF;" d="M40.523,16.089V9.05H41.6v7.056c0,2.032-0.018,3.743,3.713,3.743c3.708,0,3.622-1.711,3.622-3.848
		V9.05h1.058v6.951c0,2.833-0.192,4.841-4.68,4.841C40.795,20.842,40.523,18.834,40.523,16.089"/>
	<path style="fill:#FFFFFF;" d="M61.261,13.569v7.039h-1.082v-7.055c0-2.032,0.023-3.743-3.708-3.743
		c-3.711,0-3.621,1.711-3.621,3.848v6.95h-1.06v-6.95c0-2.833,0.186-4.84,4.681-4.84C60.989,8.818,61.261,10.825,61.261,13.569"/>
	<rect x="63.23" y="9.075" style="fill:#FFFFFF;" width="1.037" height="11.533"/>
	<path style="fill:#FFFFFF;" d="M66.209,9.075h5.416c2.69,0,3.906,1.327,3.906,3.695c0,2.382-1.197,3.831-3.915,3.831H67.25v4.007
		h-1.041V9.075z M71.643,15.56c1.869,0,2.806-0.905,2.806-2.744c0-1.84-1.005-2.71-2.851-2.71H67.25v5.454H71.643z"/>
	<path style="fill:#FFFFFF;" d="M76.742,14.8c0-3.405,0.972-6.023,5.34-6.023c4.517,0,4.661,3.019,4.638,6.208h-8.942
		c0.023,2.809,0.721,4.904,4.389,4.904c1.95,0,2.836-0.527,3.79-1.224l0.594,0.776c-1.06,0.783-2.308,1.399-4.384,1.399
		C77.586,20.842,76.742,18.202,76.742,14.8 M77.802,14.018h7.882c-0.102-2.304-0.255-4.271-3.625-4.271
		C78.817,9.747,77.925,11.506,77.802,14.018"/>
	<path style="fill:#FFFFFF;" d="M34.011,23.11c4.495,0,4.687-2.009,4.687-4.841V9.05H37.64v9.22c0,2.137,0.08,3.848-3.629,3.848
		c-0.135,0-0.27-0.003-0.4-0.01v0.995C33.74,23.106,33.877,23.11,34.011,23.11"/>
</g>
</svg>
