<svg id="Layer_2" data-name="Layer 2" xmlns="http://www.w3.org/2000/svg" viewBox="0 0 16 16.3"><defs><style>.cls-1{fill:#36c;}</style></defs><title>icon_feature_bug_fix</title><path class="cls-1" d="M15,.94l.47.56L14.34,3.84h-1L7.69,9.55l-.75-.75,5.71-5.62v-1Z" transform="translate(0 0)"/><path class="cls-1" d="M5.16,8,.48,12.65a2.41,2.41,0,0,0,.19,3.09,2.7,2.7,0,0,0,1.78.56,2.11,2.11,0,0,0,1.4-.47l4.59-4.68Zm-2,7.3a1.8,1.8,0,0,1-2-.07,1.84,1.84,0,0,1-.22-1.9L5.16,9.09l2.15,2.15Z" transform="translate(0 0)"/><path class="cls-1" d="M5.63,6.37A9.46,9.46,0,0,1,6.85,7.49l-.56.56L5.07,6.84A3.36,3.36,0,0,1,4,7,3.57,3.57,0,0,1,1.6,6,3.32,3.32,0,0,1,.76,2.34L2.54,4.12a.67.67,0,0,0,.56.28.81.81,0,0,0,.56-.28l.94-.94A.8.8,0,0,0,4.6,2L2.91.28A2.49,2.49,0,0,1,4,0,3.79,3.79,0,0,1,6.56,1a3.63,3.63,0,0,1,.84,3.56L8.62,5.81l-.56.56A12.34,12.34,0,0,0,6.75,5.15a.73.73,0,0,1-.19-.75,2.68,2.68,0,0,0-.66-2.72A2.67,2.67,0,0,0,4.6.94l.56.47a1.78,1.78,0,0,1,.47,1.22,1.73,1.73,0,0,1-.47,1.12l-.94.94a1.55,1.55,0,0,1-1.12.47A1.73,1.73,0,0,1,2,4.68l-.56-.56a2.89,2.89,0,0,0,.66,1.31,2.7,2.7,0,0,0,2,.84,2.74,2.74,0,0,0,.84-.19h.19A.67.67,0,0,1,5.63,6.37Z" transform="translate(0 0)"/><path class="cls-1" d="M15.65,12.83a1,1,0,0,1,0,1.5l-.84.84a1.14,1.14,0,0,1-1.5,0L8.25,10.12l.56-.56,5.06,5.06a.29.29,0,0,0,.19.09c.09,0,.09,0,.19-.09l.84-.84a.29.29,0,0,0,.09-.19c0-.09,0-.09-.09-.19S12.37,10.68,10,8.34l.56-.56Z" transform="translate(0 0)"/></svg>