<?xml version="1.0" encoding="utf-8"?>
<!-- Generator: Adobe Illustrator 19.1.0, SVG Export Plug-In . SVG Version: 6.00 Build 0)  -->
<!DOCTYPE svg PUBLIC "-//W3C//DTD SVG 1.1//EN" "http://www.w3.org/Graphics/SVG/1.1/DTD/svg11.dtd">
<svg version="1.1" id="Layer_1" xmlns="http://www.w3.org/2000/svg" xmlns:xlink="http://www.w3.org/1999/xlink" x="0px" y="0px"
	 viewBox="0 0 231.7 63.3" style="enable-background:new 0 0 231.7 63.3;" xml:space="preserve">
<style type="text/css">
	.st0{fill:#FFFFFF;}
</style>
<g>
	<polygon class="st0" points="113.7,50.8 115.1,50.8 122.4,61 122.4,50.8 123.7,50.8 123.7,63.1 122.5,63.1 114.9,52.7 114.9,63.1 
		113.7,63.1 	"/>
	<polygon class="st0" points="126.8,50.8 134.9,50.8 134.9,52.1 128.1,52.1 128.1,56.2 134.7,56.2 134.7,57.4 128.1,57.4 
		128.1,61.9 135,61.9 135,63.1 126.8,63.1 	"/>
	<polygon class="st0" points="141.5,52.1 136.9,52.1 136.9,50.8 147.4,50.8 147.4,52.1 142.8,52.1 142.8,63.1 141.5,63.1 	"/>
	<polygon class="st0" points="149,50.8 150.3,50.8 153.5,61 156.8,50.8 158,50.8 161.2,61 164.5,50.8 165.7,50.8 161.8,63.2 
		160.7,63.2 157.4,53 154.1,63.2 152.9,63.2 	"/>
	<path class="st0" d="M166.9,57c0-4.4,2.2-6.3,6.2-6.3c4,0,6.2,2,6.2,6.3c0,4.4-2.2,6.3-6.2,6.3C169.1,63.3,166.9,61.4,166.9,57
		 M178,57c0-3.3-1.6-5.1-4.9-5.1c-3.3,0-4.8,1.8-4.8,5.1c0,3.3,1.5,5.1,4.8,5.1C176.4,62.1,178,60.3,178,57"/>
	<path class="st0" d="M186.9,58.1h-3.7v5h-1.3V50.8h5.3c2.8,0,4.1,1.1,4.1,3.6c0,2.1-1,3.4-3.1,3.6l3,5.1h-1.4L186.9,58.1z
		 M187.2,56.9c1.7,0,2.8-0.5,2.8-2.5c0-1.9-1-2.4-2.8-2.4h-4v4.8H187.2z"/>
	<polygon class="st0" points="197.9,56.6 195.4,59.3 195.4,63.1 194.1,63.1 194.1,50.8 195.4,50.8 195.4,57.6 201.6,50.8 
		203.1,50.8 198.7,55.7 203.7,63.1 202.2,63.1 	"/>
	<path class="st0" d="M204.8,61.9l0.7-1c1.5,0.9,2.9,1.2,4.4,1.2c2.5,0,3.6-0.7,3.6-2.4c0-1.7-1.4-2-3.6-2.4
		c-2.7-0.5-4.4-0.9-4.4-3.4c0-2.4,1.5-3.3,4.4-3.3c1.9,0,3.3,0.4,4.3,1.1l-0.7,1.1c-0.9-0.6-2.2-1-3.6-1c-2.2,0-3.2,0.6-3.2,2.1
		c0,1.6,1.3,1.9,3.5,2.3c2.7,0.5,4.6,0.9,4.6,3.5c0,2.4-1.6,3.6-4.9,3.6C208,63.3,206.4,62.9,204.8,61.9"/>
	<path class="st0" d="M227.6,0.2c-17.2,0-18,7.7-18,18.6v26.8h4.1V18.8c0-8.2-0.3-14.8,13.9-14.8c1.5,0,2.9,0.1,4.1,0.2V0.3
		C230.5,0.2,229.1,0.2,227.6,0.2"/>
	<path class="st0" d="M26.5,28.1V1h4.1v27.2c0,7.8-0.1,14.4,14.2,14.4c14.2,0,13.9-6.6,13.9-14.8V1h4.1v26.8
		c0,10.9-0.7,18.6-18,18.6C27.6,46.4,26.5,38.7,26.5,28.1"/>
	<path class="st0" d="M106.1,18.4v27.1h-4.2V18.4C101.9,10.6,102,4,87.7,4c-14.2,0-13.9,6.6-13.9,14.8v26.8h-4.1V18.8
		c0-10.9,0.7-18.6,18-18.6C105.1,0.2,106.1,7.9,106.1,18.4"/>
	<rect x="113.7" y="1.1" class="st0" width="4" height="44.4"/>
	<path class="st0" d="M125.1,1.1h20.8c10.3,0,15,5.1,15,14.2c0,9.2-4.6,14.7-15,14.7h-16.8v15.4h-4V1.1z M145.9,26.1
		c7.2,0,10.8-3.5,10.8-10.6c0-7.1-3.9-10.4-10.9-10.4h-16.7v21H145.9z"/>
	<path class="st0" d="M165.5,23.2C165.5,10.1,169.2,0,186,0c17.3,0,17.9,11.6,17.8,23.9h-34.3c0.1,10.8,2.8,18.9,16.8,18.9
		c7.5,0,10.9-2,14.5-4.7l2.3,3c-4.1,3-8.9,5.4-16.8,5.4C168.7,46.4,165.5,36.3,165.5,23.2 M169.6,20.2h30.2
		c-0.4-8.9-1-16.4-13.9-16.4C173.5,3.7,170,10.5,169.6,20.2"/>
	<path class="st0" d="M1.5,55.2c17.2,0,18-7.7,18-18.6V1h-4.1v35.5c0,8.2,0.3,14.8-13.9,14.8c-0.5,0-1,0-1.5,0v3.8
		C0.5,55.2,1,55.2,1.5,55.2"/>
	<path class="st0" d="M222.6,45.7c-1.5,0-2.8-1.3-2.8-2.8c0-1.5,1.2-2.8,2.8-2.8c1.5,0,2.8,1.3,2.8,2.8
		C225.4,44.5,224.1,45.7,222.6,45.7 M222.6,40.5c-1.3,0-2.4,1.1-2.4,2.4c0,1.3,1.1,2.4,2.4,2.4c1.3,0,2.4-1.1,2.4-2.4
		C225,41.6,223.9,40.5,222.6,40.5"/>
	<path class="st0" d="M222.8,43.3h-0.9v1.2h-0.4v-3.2h1.4c0.8,0,1.1,0.3,1.1,1c0,0.5-0.2,0.9-0.8,1l0.7,1.3h-0.5L222.8,43.3z
		 M222.9,42.9c0.4,0,0.7-0.1,0.7-0.6s-0.2-0.6-0.7-0.6h-1v1.2H222.9z"/>
</g>
</svg>
