<?xml version="1.0" encoding="utf-8"?>
<!-- Generator: Adobe Illustrator 19.1.0, SVG Export Plug-In . SVG Version: 6.00 Build 0)  -->
<!DOCTYPE svg PUBLIC "-//W3C//DTD SVG 1.1//EN" "http://www.w3.org/Graphics/SVG/1.1/DTD/svg11.dtd">
<svg version="1.1" id="Layer_1" xmlns="http://www.w3.org/2000/svg" xmlns:xlink="http://www.w3.org/1999/xlink" x="0px" y="0px"
	 viewBox="0 0 662.3 1032.9" style="enable-background:new 0 0 662.3 1032.9;" xml:space="preserve">
<style type="text/css">
	.st0{opacity:0.5;}
	.st1{opacity:0.33;fill:#FFFFFF;enable-background:new    ;}
	.st2{opacity:0.6;fill:#FFFFFF;enable-background:new    ;}
</style>
<g class="st0">
	<path class="st1" d="M662.3,81.6c-26.9-26.9-53.7-53.8-80.6-80.6H15.3C-15.9,91.1,1.1,193.1,62.5,269
		c61.9,76.7,157.5,94.8,247.7,119.3c117.5,31.2,234.9,63,352.2,94.3V81.6z"/>
	<path class="st1" d="M662.3,142.1c-117.2,31.6-234.7,62.9-352.2,94.5C220,260.9,124.4,279.1,62.5,355.7
		c-72.8,90.1-83.2,216.5-25,316.8c58.1,100.4,172.4,154.8,286.9,136.9c97.4-15.5,160.8-89.1,226.9-155c37-37,74-74,111-111.1V142.1z
		"/>
	<path class="st1" d="M662.3,0h-87.5c-19.1,71.2-38.2,142.3-57.2,213.4c-32.4,121.7-64.9,243.4-97.6,364.9
		c-24.1,90.4-56.2,182.3-20.7,274.3c41.8,108,145.9,180.3,261.9,180.2c0.4,0,0.8,0,1.1,0L662.3,0L662.3,0z"/>
	<path class="st2" d="M662.3,0h-255c0.1,0.3,0.2,0.6,0.3,0.9c4.1,15.2,8.4,30.4,12.4,45.5c32.7,121.7,65.2,243.1,97.6,364.9
		c47.9,178.6,95.9,357.3,143.6,536.2c0.4-1.4,0.8-2.8,1.1-4.2L662.3,0L662.3,0z"/>
	<path class="st1" d="M662.3,79.3c-52.8,52.8-105.6,105.6-158.4,158.3C372.9,368.4,242,499.3,111.3,629.9
		c178.6-47.7,357.3-95.7,536-143.8c5-1.3,10-2.7,15-4V79.3z"/>
	<path class="st1" d="M662.3,142.7c-5-1.3-10-2.7-15-4C474.9,92.3,302.4,46.2,130,0h-13.7c129.1,128.9,258.2,258.3,387.6,387.1
		c52.9,52.8,105.6,105.7,158.4,158.6L662.3,142.7L662.3,142.7z"/>
</g>
</svg>
