<?xml version="1.0" encoding="iso-8859-1"?>
<!-- Generator: Adobe Illustrator 16.0.0, SVG Export Plug-In . SVG Version: 6.00 Build 0)  -->
<!DOCTYPE svg PUBLIC "-//W3C//DTD SVG 1.1//EN" "http://www.w3.org/Graphics/SVG/1.1/DTD/svg11.dtd">
<svg version="1.1" xmlns="http://www.w3.org/2000/svg" xmlns:xlink="http://www.w3.org/1999/xlink" x="0px" y="0px" width="1280px"
	 height="1024px" viewBox="0 0 1280 1024" style="enable-background:new 0 0 1280 1024;" xml:space="preserve">
<g id="Layer_2">
</g>
<g id="Layer_1">
	<linearGradient id="SVGID_1_" gradientUnits="userSpaceOnUse" x1="639.999" y1="1024" x2="639.999" y2="0.1333">
		<stop  offset="0" style="stop-color:#FFFFFF"/>
		<stop  offset="1" style="stop-color:#6084A0"/>
	</linearGradient>
	<rect y="0.133" style="fill:url(#SVGID_1_);" width="1279.998" height="1023.867"/>
	<g>
		<polygon style="fill:#FFFFFF;" points="198.939,119.706 200.355,119.706 207.687,129.813 207.687,119.706 208.951,119.706 
			208.951,131.978 207.762,131.978 200.186,121.565 200.186,131.978 198.939,131.978 		"/>
		<polygon style="fill:#FFFFFF;" points="212.084,119.706 220.188,119.706 220.188,120.962 213.384,120.962 213.384,125.015 
			220.018,125.015 220.018,126.224 213.384,126.224 213.384,130.776 220.264,130.776 220.264,131.978 212.084,131.978 		"/>
		<polygon style="fill:#FFFFFF;" points="226.762,120.962 222.15,120.962 222.15,119.706 232.671,119.706 232.671,120.962 
			228.062,120.962 228.062,131.978 226.762,131.978 		"/>
		<polygon style="fill:#FFFFFF;" points="234.263,119.706 235.604,119.706 238.822,129.847 242.115,119.706 243.239,119.706 
			246.518,129.847 249.759,119.706 251.029,119.706 247.08,132.069 245.956,132.069 242.647,121.854 239.344,132.069 
			238.203,132.069 		"/>
		<path style="fill:#FFFFFF;" d="M252.184,125.833c0-4.365,2.238-6.324,6.161-6.324c3.951,0,6.201,1.959,6.201,6.324
			c0,4.396-2.25,6.338-6.201,6.338C254.422,132.171,252.184,130.229,252.184,125.833 M263.245,125.849c0-3.297-1.561-5.09-4.9-5.09
			c-3.317,0-4.837,1.793-4.837,5.09c0,3.316,1.52,5.119,4.837,5.119C261.685,130.968,263.245,129.165,263.245,125.849"/>
		<path style="fill:#FFFFFF;" d="M272.147,126.974h-3.678v5.004h-1.266v-12.271h5.309c2.83,0,4.117,1.145,4.117,3.572
			c0,2.125-0.992,3.365-3.141,3.641l2.965,5.059h-1.396L272.147,126.974z M272.517,125.772c1.742,0,2.811-0.504,2.811-2.459
			c0-1.889-1.029-2.389-2.85-2.389h-4.008v4.848H272.517z"/>
		<polygon style="fill:#FFFFFF;" points="283.155,125.479 280.683,128.155 280.683,131.978 279.419,131.978 279.419,119.706 
			280.683,119.706 280.683,126.47 286.899,119.706 288.396,119.706 284.013,124.53 289.009,131.978 287.526,131.978 		"/>
		<path style="fill:#FFFFFF;" d="M290.099,130.724l0.658-0.977c1.473,0.928,2.914,1.229,4.389,1.229
			c2.521,0,3.646-0.709,3.646-2.395c0-1.725-1.443-1.977-3.646-2.387c-2.656-0.459-4.443-0.908-4.443-3.379
			c0-2.375,1.527-3.307,4.443-3.307c1.914,0,3.293,0.432,4.275,1.088l-0.695,1.068c-0.875-0.582-2.205-0.955-3.58-0.955
			c-2.211,0-3.154,0.604-3.154,2.07c0,1.555,1.289,1.852,3.463,2.252c2.676,0.484,4.627,0.873,4.627,3.496
			c0,2.439-1.551,3.605-4.916,3.605C293.333,132.134,291.647,131.763,290.099,130.724"/>
		<path style="fill:#FFFFFF;" d="M312.896,69.018c-17.248,0-17.959,7.729-17.959,18.631v26.762h4.066V87.648
			c0-8.225-0.338-14.814,13.893-14.814c1.518,0,2.875,0.092,4.1,0.225v-3.881C315.751,69.086,314.397,69.018,312.896,69.018"/>
		<path style="fill:#FFFFFF;" d="M111.805,97.01V69.908h4.138V97.07c0,7.824-0.069,14.412,14.248,14.412
			c14.229,0,13.894-6.588,13.894-14.812V69.908h4.065V96.67c0,10.906-0.738,18.636-17.959,18.636
			C112.854,115.306,111.805,107.576,111.805,97.01"/>
		<path style="fill:#FFFFFF;" d="M191.382,87.309v27.102h-4.152V87.248c0-7.824,0.087-14.414-14.23-14.414
			c-14.232,0-13.891,6.59-13.891,14.814v26.762h-4.068V87.648c0-10.902,0.716-18.631,17.959-18.631
			C190.336,69.018,191.382,76.746,191.382,87.309"/>
		<rect x="198.939" y="70.004" style="fill:#FFFFFF;" width="3.971" height="44.406"/>
		<path style="fill:#FFFFFF;" d="M210.362,70.004h20.783c10.323,0,14.988,5.111,14.988,14.229c0,9.17-4.598,14.746-15.023,14.746
			h-16.751v15.432h-3.997V70.004z M231.214,94.969c7.174,0,10.766-3.488,10.766-10.566c0-7.076-3.857-10.426-10.939-10.426h-16.681
			v20.992H231.214z"/>
		<path style="fill:#FFFFFF;" d="M250.78,92.045c0-13.113,3.728-23.184,20.484-23.184c17.334,0,17.889,11.623,17.803,23.896h-34.312
			c0.091,10.814,2.77,18.883,16.846,18.883c7.48,0,10.881-2.031,14.539-4.711l2.277,2.986c-4.064,3.02-8.859,5.39-16.816,5.39
			C254.019,115.306,250.78,105.141,250.78,92.045 M254.846,89.033h30.245c-0.396-8.867-0.984-16.441-13.918-16.441
			C258.739,72.592,255.323,79.363,254.846,89.033"/>
		<path style="fill:#FFFFFF;" d="M86.823,124.036c17.248,0,17.986-7.73,17.986-18.636V69.91h-4.062v35.49
			c0,8.223,0.308,14.817-13.924,14.817c-0.519,0-1.041-0.016-1.537-0.041v3.832C85.788,124.024,86.308,124.036,86.823,124.036"/>
		<path style="fill:#FFFFFF;" d="M307.886,114.601c-1.541,0-2.791-1.278-2.791-2.819c0-1.543,1.25-2.795,2.791-2.795
			c1.545,0,2.818,1.252,2.818,2.795C310.704,113.322,309.431,114.601,307.886,114.601 M307.886,109.342
			c-1.35,0-2.438,1.092-2.438,2.439c0,1.344,1.088,2.443,2.438,2.443c1.344,0,2.447-1.1,2.447-2.443
			C310.333,110.434,309.229,109.342,307.886,109.342"/>
		<path style="fill:#FFFFFF;" d="M308.071,112.16h-0.902v1.236h-0.432v-3.229h1.439c0.809,0,1.135,0.346,1.135,0.977
			c0,0.531-0.225,0.879-0.789,0.996l0.732,1.256h-0.467L308.071,112.16z M308.171,111.744c0.441,0,0.697-0.111,0.697-0.582
			c0-0.469-0.244-0.57-0.711-0.57h-0.988v1.152H308.171z"/>
	</g>
	<g>
		<path style="opacity:0.33;fill:#FFFFFF;" d="M1279.998,55.077c-18.135-18.146-36.27-36.29-54.406-54.444H843.124
			c-21.061,60.902-9.549,129.766,31.913,180.998c41.773,51.799,106.314,64.016,167.207,80.567
			c79.301,21.039,158.619,42.508,237.754,63.665V55.077z"/>
		<path style="opacity:0.33;fill:#FFFFFF;" d="M1279.998,95.916c-79.135,21.312-158.453,42.435-237.754,63.831
			c-60.893,16.402-125.434,28.694-167.207,80.419c-49.118,60.843-56.204,146.183-16.897,213.861
			c39.243,67.77,116.399,104.482,193.694,92.426c65.773-10.434,108.543-60.143,153.203-104.631
			c25.008-24.988,49.986-49.989,74.961-74.991V95.916z"/>
		<path style="opacity:0.33;fill:#FFFFFF;" d="M1279.998,0h-59.092c-12.889,48.043-25.779,96.071-38.648,144.053
			c-21.881,82.177-43.814,164.353-65.885,246.38c-16.291,61.056-37.938,123.067-13.961,185.216
			c28.197,72.922,98.529,121.708,176.82,121.683c0.256,0,0.51-0.01,0.766-0.01V0z"/>
		<path style="opacity:0.6;fill:#FFFFFF;" d="M1279.998,0h-172.193c0.059,0.211,0.113,0.422,0.172,0.633
			c2.789,10.272,5.668,20.519,8.396,30.73c22.07,82.176,44.004,164.153,65.885,246.368
			c32.309,120.547,64.752,241.249,96.975,362.032c0.256-0.956,0.51-1.912,0.766-2.868V0z"/>
		<path style="opacity:0.33;fill:#FFFFFF;" d="M1279.998,53.52c-35.637,35.66-71.271,71.303-106.955,106.875
			c-88.455,88.303-176.809,176.719-265.061,264.861c120.561-32.233,241.248-64.614,361.883-97.097
			c3.375-0.901,6.756-1.811,10.133-2.713V53.52z"/>
		<path style="opacity:0.33;fill:#FFFFFF;" d="M1279.998,96.334c-3.377-0.908-6.758-1.812-10.133-2.723
			C1153.441,62.349,1036.975,31.211,920.615,0h-9.246c87.127,87.059,174.35,174.374,261.674,261.354
			c35.684,35.669,71.32,71.36,106.955,107.052V96.334z"/>
	</g>
</g>
</svg>
