<?xml version="1.0" encoding="iso-8859-1"?>
<!-- Generator: Adobe Illustrator 18.1.1, SVG Export Plug-In . SVG Version: 6.00 Build 0)  -->
<!DOCTYPE svg PUBLIC "-//W3C//DTD SVG 1.1//EN" "http://www.w3.org/Graphics/SVG/1.1/DTD/svg11.dtd">
<svg version="1.1" id="Layer_1" xmlns="http://www.w3.org/2000/svg" xmlns:xlink="http://www.w3.org/1999/xlink" x="0px" y="0px"
	 viewBox="0 0 50 50" style="enable-background:new 0 0 50 50;" xml:space="preserve">
<g>
	<path style="fill:none;" d="M1,49h48V1H1V49z M28,38h-4v-5h4V38z M19.318,14.241c1.665-1.455,3.853-2.185,6.559-2.185
		c2.85,0,5.113,0.731,6.796,2.203c1.682,1.475,2.525,3.179,2.525,5.137c0,1.081-0.308,2.087-0.926,3.053
		c-0.618,0.966-1.938,2.242-3.963,3.906c-1.046,0.863-1.699,1.472-1.953,1.996C28.106,28.875,27.988,30,28.014,31h-4.503
		c-0.011,0-0.017-0.865-0.017-1.004c0-1.446,0.241-2.467,0.724-3.399c0.48-0.932,1.446-1.982,2.896-3.146
		c1.446-1.165,2.312-1.927,2.594-2.289c0.437-0.57,0.653-1.199,0.653-1.887c0-0.955-0.386-1.771-1.156-2.453
		c-0.771-0.681-1.809-1.024-3.114-1.024c-1.259,0-2.312,0.357-3.16,1.067c-0.848,0.707-1.429,1.794-1.749,3.249l-4.555-0.561
		C16.756,17.469,17.653,15.699,19.318,14.241z"/>
	<path style="fill:#95C1E7;" d="M0,0v50h50V0H0z M49,49H1V1h48V49z"/>
	<rect x="24" y="33" style="fill:#FFFFFF;" width="4" height="5"/>
	<path style="fill:#FFFFFF;" d="M22.93,16.866c0.848-0.71,1.901-1.067,3.16-1.067c1.306,0,2.344,0.342,3.114,1.024
		c0.771,0.682,1.156,1.498,1.156,2.453c0,0.687-0.216,1.317-0.653,1.887c-0.282,0.362-1.147,1.124-2.594,2.289
		c-1.449,1.165-2.416,2.214-2.896,3.146c-0.483,0.932-0.724,1.952-0.724,3.399c0,0.138,0.005,1.004,0.017,1.004h4.503
		c-0.026-1,0.092-2.125,0.342-2.648c0.253-0.523,0.906-1.133,1.953-1.996c2.024-1.665,3.345-2.94,3.963-3.906
		c0.618-0.966,0.926-1.972,0.926-3.053c0-1.958-0.842-3.662-2.525-5.137c-1.682-1.472-3.946-2.203-6.796-2.203
		c-2.706,0-4.894,0.73-6.559,2.185c-1.665,1.458-2.562,3.228-2.692,5.313l4.555,0.561C21.501,18.66,22.082,17.574,22.93,16.866z"/>
</g>
</svg>
