<?xml version="1.0" encoding="iso-8859-1"?>
<!-- Generator: Adobe Illustrator 18.1.1, SVG Export Plug-In . SVG Version: 6.00 Build 0)  -->
<!DOCTYPE svg PUBLIC "-//W3C//DTD SVG 1.1//EN" "http://www.w3.org/Graphics/SVG/1.1/DTD/svg11.dtd">
<svg version="1.1" id="Layer_1" xmlns="http://www.w3.org/2000/svg" xmlns:xlink="http://www.w3.org/1999/xlink" x="0px" y="0px"
	 viewBox="0 0 35 35" style="enable-background:new 0 0 35 35;" xml:space="preserve">
<g>
	<g style="opacity:0.8;">
		<rect x="0.5" y="0.5" style="fill-rule:evenodd;clip-rule:evenodd;fill:#0E679F;" width="34" height="34"/>
		<path style="fill:#CCCCCC;" d="M34,1v33H1V1H34 M35,0H0v35h35V0L35,0z"/>
	</g>
	<g>
		<g>
			<g>
				<path style="fill:#FFFFFF;" d="M19.61,21.934h-3.152c-0.008-0.449-0.012-0.723-0.012-0.819c0-1.013,0.169-1.844,0.507-2.496
					c0.336-0.652,1.013-1.387,2.027-2.202c1.013-0.815,1.618-1.349,1.816-1.602c0.306-0.399,0.457-0.84,0.457-1.321
					c0-0.668-0.27-1.24-0.809-1.717c-0.539-0.477-1.266-0.717-2.18-0.717c-0.882,0-1.618,0.25-2.212,0.747
					c-0.594,0.495-1.001,1.256-1.224,2.275l-3.189-0.392c0.091-1.46,0.719-2.697,1.884-3.718c1.165-1.018,2.697-1.528,4.591-1.528
					c1.995,0,3.579,0.515,4.757,1.546c1.178,1.033,1.767,2.232,1.767,3.603c0,0.757-0.215,1.475-0.648,2.152
					c-0.433,0.676-1.357,1.598-2.774,2.764c-0.732,0.604-1.19,1.089-1.367,1.455C19.674,20.329,19.592,20.986,19.61,21.934z
					 M16.458,26.557v-3.438h3.472v3.438H16.458z"/>
			</g>
		</g>
	</g>
</g>
</svg>
