<?xml version="1.0" encoding="UTF-8"?>
<svg width="20px" height="20px" viewBox="0 0 20 20" version="1.1" xmlns="http://www.w3.org/2000/svg" xmlns:xlink="http://www.w3.org/1999/xlink">
    <!-- Generator: Sketch 50.2 (55047) - http://www.bohemiancoding.com/sketch -->
    <title>Combined Shape</title>
    <desc>Created with Sketch.</desc>
    <defs></defs>
    <g id="visual" stroke="none" stroke-width="1" fill="none" fill-rule="evenodd">
        <g id="QH-All-Collapsed_updated" transform="translate(-1066.000000, -410.000000)" fill="#419BF9">
            <g id="Group" transform="translate(1040.000000, 41.000000)">
                <g id="Group-3" transform="translate(0.757812, 0.000000)">
                    <path d="M43.6436583,370.149425 L44.2183709,370.83908 L42.8390606,373.712644 L41.5746927,373.712644 L34.678141,380.724138 C34.3333134,380.37931 34.1034284,380.149425 33.7586008,379.804598 L40.770095,372.908046 L40.770095,371.643678 L43.6436583,370.149425 Z M31.5746927,378.770115 L35.5976813,382.678161 L29.9654973,388.425287 C29.6206698,388.770115 28.9310146,389 28.2413594,389 C27.4367617,389 26.5172215,388.770115 26.0574514,388.310345 C25.1379111,387.505747 24.9080261,385.436782 25.8275663,384.517241 L31.5746927,378.770115 Z M34.3333134,382.908046 L29.2758422,387.850575 C29.0459571,388.08046 28.7011295,388.195402 28.1264169,388.195402 C27.5517042,388.195402 26.8620491,387.965517 26.5172215,387.735632 C26.1723939,387.505747 26.0574514,386.931034 26.0574514,386.356322 C26.0574514,385.896552 26.1723939,385.436782 26.402279,385.321839 L31.5746927,380.149425 L34.3333134,382.908046 Z M32.1494054,376.816092 C32.3792904,376.931034 32.9540031,377.505747 33.6436583,378.195402 L32.9540031,378.885057 C32.2643479,378.195402 31.6896353,377.62069 31.4597502,377.390805 C31.1149226,377.505747 30.6551525,377.62069 30.1953824,377.62069 C29.1608996,377.62069 28.0114744,377.16092 27.2068767,376.356322 C25.9425088,375.206897 25.5976813,373.482759 26.1723939,371.873563 L28.3563019,374.057471 C28.4712445,374.287356 28.8160721,374.402299 29.0459571,374.402299 C29.2758422,374.402299 29.5057272,374.287356 29.7356123,374.057471 L30.8850376,372.908046 C31.3448077,372.448276 31.3448077,371.873563 30.8850376,371.413793 L28.8160721,369.344828 C29.2758422,369.114943 29.7356123,369 30.1953824,369 C31.3448077,369 32.3792904,369.45977 33.2988307,370.264368 C34.448256,371.528736 34.7930836,373.137931 34.3333134,374.632184 C34.5631985,374.862069 35.1379111,375.436782 35.8275663,376.126437 L35.1379111,376.816092 C34.448256,376.126437 33.8735433,375.551724 33.5287157,375.321839 C33.2988307,375.091954 33.1838881,374.747126 33.2988307,374.402299 C33.6436583,373.252874 33.4137732,371.988506 32.494233,371.068966 C32.0344629,370.609195 31.4597502,370.264368 30.8850376,370.149425 L31.5746927,370.724138 C31.9195203,371.068966 32.1494054,371.643678 32.1494054,372.218391 C32.1494054,372.678161 31.9195203,373.252874 31.5746927,373.597701 L30.4252675,374.747126 C30.0804399,375.091954 29.6206698,375.321839 29.0459571,375.321839 C28.586187,375.321839 28.0114744,375.091954 27.6666468,374.747126 L26.9769916,374.057471 C27.0919341,374.747126 27.4367617,375.206897 27.7815893,375.666667 C28.4712445,376.356322 29.2758422,376.701149 30.1953824,376.701149 C30.54021,376.701149 30.8850376,376.586207 31.2298652,376.471264 L31.4597502,376.471264 C31.6896353,376.471264 32.0344629,376.586207 32.1494054,376.816092 Z M44.448256,384.747126 C45.0229686,385.206897 45.0229686,386.011494 44.448256,386.586207 L43.4137732,387.62069 C43.1838881,387.850575 42.8390606,387.965517 42.494233,387.965517 C42.1494054,387.965517 41.8045778,387.850575 41.5746927,387.62069 C41.5746927,387.62069 38.2413594,384.287356 35.3677962,381.413793 L36.0574514,380.724138 L42.2643479,386.931034 C42.3792904,387.045977 42.494233,387.045977 42.494233,387.045977 C42.6091755,387.045977 42.6091755,387.045977 42.724118,386.931034 L43.7586008,385.896552 C43.8735433,385.781609 43.8735433,385.666667 43.8735433,385.666667 C43.8735433,385.551724 43.8735433,385.551724 43.7586008,385.436782 C43.7586008,385.321839 40.4252675,382.103448 37.5517042,379.229885 L38.2413594,378.54023 L44.448256,384.747126 Z" id="Combined-Shape"></path>
                </g>
            </g>
        </g>
    </g>
</svg>