<?xml version="1.0" encoding="iso-8859-1"?>
<!-- Generator: Adobe Illustrator 18.1.1, SVG Export Plug-In . SVG Version: 6.00 Build 0)  -->
<!DOCTYPE svg PUBLIC "-//W3C//DTD SVG 1.1//EN" "http://www.w3.org/Graphics/SVG/1.1/DTD/svg11.dtd">
<svg version="1.1" id="Layer_1" xmlns="http://www.w3.org/2000/svg" xmlns:xlink="http://www.w3.org/1999/xlink" x="0px" y="0px"
	 viewBox="0 0 25 25" style="enable-background:new 0 0 25 25;" xml:space="preserve">
<g>
	<path style="fill:#FFFFFF;" d="M24,1H1v23h23V1z M14.935,12.814c-0.043,0.111-0.102,0.213-0.178,0.297l-3.354,5.624
		c-0.32,0.356-0.84,0.356-1.16,0c-0.32-0.355-0.32-0.932,0-1.287l2.856-5.015l-2.795-4.882c-0.322-0.356-0.322-0.932,0-1.287
		c0.32-0.353,0.838-0.353,1.16,0l3.293,5.56c0.076,0.082,0.135,0.184,0.178,0.295C15.017,12.341,15.017,12.591,14.935,12.814z"/>
	<path style="fill:#CCCCCC;" d="M0,0v25h25V0L0,0z M1,1h23v23H1V1z"/>
	<path style="fill:#05A4FF;" d="M14.757,13.111l-3.354,5.624c-0.32,0.356-0.84,0.356-1.16,0c-0.32-0.355-0.32-0.932,0-1.287
		l2.856-5.015l-2.795-4.882c-0.322-0.356-0.322-0.932,0-1.287c0.32-0.353,0.838-0.353,1.16,0l3.293,5.56
		c0.076,0.082,0.135,0.184,0.178,0.295c0.082,0.223,0.082,0.473,0,0.695C14.892,12.925,14.833,13.027,14.757,13.111z"/>
</g>
</svg>
