<?xml version="1.0" encoding="iso-8859-1"?>
<!-- Generator: Adobe Illustrator 18.1.1, SVG Export Plug-In . SVG Version: 6.00 Build 0)  -->
<!DOCTYPE svg PUBLIC "-//W3C//DTD SVG 1.1//EN" "http://www.w3.org/Graphics/SVG/1.1/DTD/svg11.dtd">
<svg version="1.1" id="Layer_1" xmlns="http://www.w3.org/2000/svg" xmlns:xlink="http://www.w3.org/1999/xlink" x="0px" y="0px"
	 viewBox="0 0 232 63" style="enable-background:new 0 0 232 63;" xml:space="preserve">
<g>
	<polygon style="fill:#FFFFFF;" points="113.796,50.096 115.214,50.096 122.554,60.154 122.554,50.096 123.82,50.096 123.82,62.308 
		122.629,62.308 115.044,51.946 115.044,62.308 113.796,62.308 	"/>
	<polygon style="fill:#FFFFFF;" points="126.957,50.096 135.072,50.096 135.072,51.346 128.259,51.346 128.259,55.379 
		134.901,55.379 134.901,56.582 128.259,56.582 128.259,61.112 135.147,61.112 135.147,62.308 126.957,62.308 	"/>
	<polygon style="fill:#FFFFFF;" points="141.653,51.346 137.036,51.346 137.036,50.096 147.57,50.096 147.57,51.346 142.955,51.346 
		142.955,62.308 141.653,62.308 	"/>
	<polygon style="fill:#FFFFFF;" points="149.164,50.096 150.506,50.096 153.729,60.187 157.026,50.096 158.152,50.096 
		161.434,60.187 164.679,50.096 165.951,50.096 161.997,62.399 160.872,62.399 157.559,52.234 154.251,62.399 153.109,62.399 	"/>
	<path style="fill:#FFFFFF;" d="M167.107,56.193c0-4.344,2.241-6.293,6.169-6.293c3.956,0,6.209,1.949,6.209,6.293
		c0,4.375-2.253,6.307-6.209,6.307C169.348,62.5,167.107,60.568,167.107,56.193 M178.182,56.209c0-3.281-1.562-5.065-4.907-5.065
		c-3.321,0-4.843,1.784-4.843,5.065c0,3.3,1.522,5.094,4.843,5.094C176.62,61.303,178.182,59.509,178.182,56.209"/>
	<path style="fill:#FFFFFF;" d="M187.096,57.328h-3.682v4.979h-1.267V50.096h5.315c2.834,0,4.122,1.139,4.122,3.555
		c0,2.115-0.993,3.349-3.145,3.623l2.969,5.034h-1.398L187.096,57.328z M187.466,56.133c1.744,0,2.814-0.501,2.814-2.447
		c0-1.879-1.031-2.377-2.853-2.377h-4.013v4.824H187.466z"/>
	<polygon style="fill:#FFFFFF;" points="198.118,55.841 195.642,58.504 195.642,62.308 194.377,62.308 194.377,50.096 
		195.642,50.096 195.642,56.827 201.867,50.096 203.364,50.096 198.976,54.897 203.979,62.308 202.494,62.308 	"/>
	<path style="fill:#FFFFFF;" d="M205.07,61.06l0.659-0.972c1.475,0.923,2.918,1.222,4.394,1.222c2.525,0,3.651-0.706,3.651-2.383
		c0-1.716-1.445-1.967-3.651-2.375c-2.66-0.457-4.449-0.904-4.449-3.362c0-2.363,1.529-3.29,4.449-3.29
		c1.917,0,3.297,0.429,4.281,1.083l-0.696,1.063c-0.876-0.579-2.208-0.95-3.585-0.95c-2.214,0-3.158,0.601-3.158,2.06
		c0,1.547,1.291,1.842,3.467,2.241c2.679,0.482,4.633,0.869,4.633,3.479c0,2.428-1.553,3.588-4.922,3.588
		C208.308,62.463,206.621,62.094,205.07,61.06"/>
	<path style="fill:#FFFFFF;" d="M227.895-0.344c-17.27,0-17.982,7.691-17.982,18.54v26.631h4.072V18.195
		c0-8.184-0.338-14.742,13.91-14.742c1.52,0,2.879,0.091,4.105,0.224v-3.862C230.754-0.276,229.399-0.344,227.895-0.344"/>
	<path style="fill:#FFFFFF;" d="M26.552,27.511V0.542h4.143v27.029c0,7.786-0.069,14.342,14.266,14.342
		c14.246,0,13.911-6.556,13.911-14.74V0.542h4.071v26.631c0,10.853-0.739,18.545-17.982,18.545
		C27.602,45.717,26.552,38.026,26.552,27.511"/>
	<path style="fill:#FFFFFF;" d="M106.229,17.857v26.969h-4.158V17.797c0-7.786,0.087-14.344-14.248-14.344
		c-14.25,0-13.908,6.558-13.908,14.742v26.631h-4.074V18.195c0-10.849,0.717-18.54,17.982-18.54
		C105.182-0.344,106.229,7.346,106.229,17.857"/>
	<rect x="113.796" y="0.637" style="fill:#FFFFFF;" width="3.976" height="44.189"/>
	<path style="fill:#FFFFFF;" d="M125.233,0.637h20.809c10.336,0,15.007,5.086,15.007,14.159c0,9.125-4.603,14.674-15.042,14.674
		h-16.772v15.356h-4.002V0.637z M146.111,25.48c7.183,0,10.779-3.471,10.779-10.515c0-7.041-3.862-10.375-10.953-10.375h-16.702
		V25.48H146.111z"/>
	<path style="fill:#FFFFFF;" d="M165.702,22.57c0-13.049,3.732-23.07,20.51-23.07c17.356,0,17.911,11.566,17.825,23.78h-34.356
		c0.091,10.762,2.773,18.79,16.867,18.79c7.49,0,10.895-2.021,14.557-4.688l2.28,2.972c-4.07,3.005-8.871,5.363-16.838,5.363
		C168.944,45.717,165.702,35.602,165.702,22.57 M169.773,19.573h30.283c-0.397-8.824-0.986-16.361-13.935-16.361
		C173.671,3.212,170.251,9.951,169.773,19.573"/>
	<path style="fill:#FFFFFF;" d="M1.539,54.405c17.27,0,18.009-7.693,18.009-18.545V0.544H15.48V35.86
		c0,8.182,0.308,14.745-13.941,14.745c-0.519,0-1.042-0.016-1.539-0.041v3.813C0.503,54.393,1.023,54.405,1.539,54.405"/>
	<path style="fill:#FFFFFF;" d="M222.879,45.016c-1.543,0-2.795-1.272-2.795-2.806c0-1.535,1.252-2.781,2.795-2.781
		c1.547,0,2.822,1.246,2.822,2.781C225.701,43.744,224.426,45.016,222.879,45.016 M222.879,39.783c-1.351,0-2.441,1.086-2.441,2.427
		c0,1.337,1.089,2.431,2.441,2.431c1.345,0,2.45-1.094,2.45-2.431C225.33,40.869,224.225,39.783,222.879,39.783"/>
	<path style="fill:#FFFFFF;" d="M223.065,42.587h-0.903v1.23h-0.432v-3.213h1.441c0.81,0,1.136,0.344,1.136,0.972
		c0,0.529-0.225,0.875-0.79,0.991l0.733,1.25h-0.467L223.065,42.587z M223.165,42.173c0.442,0,0.698-0.111,0.698-0.579
		c0-0.467-0.245-0.568-0.712-0.568h-0.989v1.147H223.165z"/>
</g>
</svg>
