<?xml version="1.0" encoding="iso-8859-1"?>
<!-- Generator: Adobe Illustrator 18.1.1, SVG Export Plug-In . SVG Version: 6.00 Build 0)  -->
<!DOCTYPE svg PUBLIC "-//W3C//DTD SVG 1.1//EN" "http://www.w3.org/Graphics/SVG/1.1/DTD/svg11.dtd">
<svg version="1.1" id="Layer_1" xmlns="http://www.w3.org/2000/svg" xmlns:xlink="http://www.w3.org/1999/xlink" x="0px" y="0px"
	 viewBox="0 0 25 25" style="enable-background:new 0 0 25 25;" xml:space="preserve">
<g>
	<path style="fill:#FFFFFF;" d="M1,24h23V1H1V24z M10.065,12.118c0.043-0.111,0.102-0.213,0.178-0.295l3.293-5.56
		c0.322-0.353,0.84-0.353,1.16,0c0.322,0.356,0.322,0.932,0,1.287l-2.795,4.882l2.856,5.015c0.32,0.355,0.32,0.932,0,1.287
		c-0.32,0.356-0.84,0.356-1.16,0l-3.354-5.624c-0.076-0.084-0.135-0.185-0.178-0.297C9.983,12.591,9.983,12.341,10.065,12.118z"/>
	<path style="fill:#CCCCCC;" d="M0,0v25h25V0H0z M24,24H1V1h23V24z"/>
	<path style="fill:#05A4FF;" d="M10.243,13.111l3.354,5.624c0.32,0.356,0.84,0.356,1.16,0c0.32-0.355,0.32-0.932,0-1.287
		l-2.856-5.015l2.795-4.882c0.322-0.356,0.322-0.932,0-1.287c-0.32-0.353-0.838-0.353-1.16,0l-3.293,5.56
		c-0.076,0.082-0.135,0.184-0.178,0.295c-0.082,0.223-0.082,0.473,0,0.695C10.108,12.925,10.167,13.027,10.243,13.111z"/>
</g>
</svg>
