<?xml version="1.0" encoding="UTF-8"?>
<svg width="18px" height="20px" viewBox="0 0 18 20" version="1.1" xmlns="http://www.w3.org/2000/svg" xmlns:xlink="http://www.w3.org/1999/xlink">
    <!-- Generator: Sketch 50.2 (55047) - http://www.bohemiancoding.com/sketch -->
    <title>Page 1</title>
    <desc>Created with Sketch.</desc>
    <defs></defs>
    <g id="visual" stroke="none" stroke-width="1" fill="none" fill-rule="evenodd">
        <g id="QH-All-Collapsed_updated" transform="translate(-1068.000000, -469.000000)" fill="#419BF9">
            <g id="Group" transform="translate(1040.000000, 41.000000)">
                <g id="Group-3" transform="translate(0.757812, 0.000000)">
                    <path d="M30.8670241,433.526797 L40.6709457,433.526797 L40.6709457,432.219608 L30.8670241,432.219608 L30.8670241,433.526797 Z M30.8670241,441.392157 L40.6709457,441.392157 L40.6709457,440.084967 L30.8670241,440.084967 L30.8670241,441.392157 Z M30.8670241,437.470588 L40.6709457,437.470588 L40.6709457,436.163399 L30.8670241,436.163399 L30.8670241,437.470588 Z M29.0722529,429.045752 C28.6395731,429.045752 28.2879391,429.397386 28.2879391,429.830065 L28.2879391,446.169935 C28.2879391,446.602614 28.6395731,446.954248 29.0722529,446.954248 L42.4670241,446.954248 C42.8997038,446.954248 43.2513378,446.602614 43.2513378,446.169935 L43.2513378,429.830065 C43.2513378,429.397386 42.8997038,429.045752 42.4670241,429.045752 L29.0722529,429.045752 Z M42.4670241,448 L29.0722529,448 C28.0631025,448 27.2421875,447.179085 27.2421875,446.169935 L27.2421875,429.830065 C27.2421875,428.820915 28.0631025,428 29.0722529,428 L42.4670241,428 C43.4761744,428 44.2970895,428.820915 44.2970895,429.830065 L44.2970895,446.169935 C44.2970895,447.179085 43.4761744,448 42.4670241,448 L42.4670241,448 Z" id="Page-1"></path>
                </g>
            </g>
        </g>
    </g>
</svg>