<?xml version="1.0" encoding="iso-8859-1"?>
<!-- Generator: Adobe Illustrator 18.1.1, SVG Export Plug-In . SVG Version: 6.00 Build 0)  -->
<!DOCTYPE svg PUBLIC "-//W3C//DTD SVG 1.1//EN" "http://www.w3.org/Graphics/SVG/1.1/DTD/svg11.dtd">
<svg version="1.1" id="Layer_1" xmlns="http://www.w3.org/2000/svg" xmlns:xlink="http://www.w3.org/1999/xlink" x="0px" y="0px"
	 viewBox="0 0 16 16" style="enable-background:new 0 0 16 16;" xml:space="preserve">
<g>
	<path style="fill:#FFFFFF;" d="M8,1.2C4.25,1.2,1.2,4.25,1.2,8c0,3.75,3.05,6.8,6.8,6.8s6.8-3.05,6.8-6.8
		C14.8,4.25,11.75,1.2,8,1.2z M12.552,11.711l-0.79,0.789l-3.71-3.711L4.342,12.5l-0.79-0.789L7.263,8L3.552,4.289L4.341,3.5
		l3.711,3.71l3.71-3.71l0.79,0.789L8.841,8L12.552,11.711z"/>
	<path style="fill:#CCCCCC;" d="M8,0C3.582,0,0,3.582,0,8c0,4.418,3.582,8,8,8s8-3.582,8-8C16,3.582,12.418,0,8,0z M8,14.8
		c-3.75,0-6.8-3.05-6.8-6.8c0-3.75,3.05-6.8,6.8-6.8s6.8,3.05,6.8,6.8C14.8,11.75,11.75,14.8,8,14.8z"/>
	<polygon style="fill:#CCCCCC;" points="11.762,3.5 8.052,7.21 4.341,3.5 3.552,4.289 7.263,8 3.552,11.711 4.342,12.5 8.052,8.789 
		11.762,12.5 12.552,11.711 8.841,8 12.552,4.289 	"/>
</g>
</svg>
