<?xml version="1.0" encoding="UTF-8"?>
<svg width="18px" height="24px" viewBox="0 0 18 24" version="1.1" xmlns="http://www.w3.org/2000/svg" xmlns:xlink="http://www.w3.org/1999/xlink">
    <!-- Generator: Sketch 50.2 (55047) - http://www.bohemiancoding.com/sketch -->
    <title>Overview</title>
    <desc>Created with Sketch.</desc>
    <defs></defs>
    <g id="visual" stroke="none" stroke-width="1" fill="none" fill-rule="evenodd">
        <g id="QH-Expanded-all_updated" transform="translate(-1066.000000, -227.000000)" stroke="#419BF9">
            <g id="Group" transform="translate(895.000000, 41.000000)">
                <g id="Overview" transform="translate(179.817823, 198.567242) rotate(-13.000000) translate(-179.817823, -198.567242) translate(169.317823, 187.067242)">
                    <path d="M5.47121549,4.85778714 C5.22070123,4.82774633 4.98705667,4.9890569 4.92636481,5.23395758 L1.46951923,19.1828422 C1.46591484,19.1973865 1.46296607,19.2120854 1.46068186,19.2268945 C1.4185864,19.4998095 1.6057026,19.7551759 1.87861758,19.7972714 L15.8222545,21.9479913 C16.0754693,21.9870482 16.3172339,21.8283804 16.3821563,21.5805331 L20.1515637,7.19048308 C20.1573452,7.16841171 20.1616092,7.14597049 20.1643258,7.12331677 C20.1972042,6.8491387 20.0015923,6.60022017 19.7274142,6.56734167 L5.47121549,4.85778714 Z" id="Rectangle-2"></path>
                    <path d="M5.14265133,4.18 C4.9150147,4.18 4.7161111,4.33376039 4.65877278,4.55405736 L0.893290821,19.0212458 C0.879694423,19.0734839 0.874646583,19.127579 0.878343288,19.1814308 C0.897254821,19.4569248 1.13591769,19.664926 1.41141173,19.6460145 L14.2982413,18.7613866 C14.5107943,18.7467958 14.6907544,18.5991189 14.746549,18.3935012 L18.432196,4.81094064 C18.4437781,4.7682576 18.4496459,4.72422654 18.4496459,4.68 C18.4496459,4.40385763 18.2257883,4.18 17.9496459,4.18 L5.14265133,4.18 Z" id="Rectangle-2" fill="#FFFFFF"></path>
                    <path d="M4.62930546,4.36590055 C4.461834,4.4159652 4.33266504,4.54985126 4.28863685,4.71901 L0.560700392,19.0419465 C0.538243919,19.1282255 0.539264981,19.2189398 0.563657799,19.3046914 C0.639211594,19.5702968 0.915775776,19.7243641 1.18138119,19.6488103 L12.3664425,16.4671213 C12.5415735,16.4173037 12.675779,16.2762224 12.7167913,16.0988227 L16.0373572,1.7356451 C16.0569007,1.65110938 16.0541096,1.56294294 16.0292583,1.47981265 C15.9501656,1.21523948 15.6715694,1.06487782 15.4069962,1.14397048 L4.62930546,4.36590055 Z" id="Rectangle-2" fill="#FFFFFF"></path>
                </g>
            </g>
        </g>
    </g>
</svg>