<?xml version="1.0" encoding="UTF-8"?>
<svg width="20px" height="19px" viewBox="0 0 20 19" version="1.1" xmlns="http://www.w3.org/2000/svg" xmlns:xlink="http://www.w3.org/1999/xlink">
    <!-- Generator: Sketch 50.2 (55047) - http://www.bohemiancoding.com/sketch -->
    <title>Fill 6</title>
    <desc>Created with Sketch.</desc>
    <defs></defs>
    <g id="visual" stroke="none" stroke-width="1" fill="none" fill-rule="evenodd">
        <g id="QH-All-Collapsed_updated" transform="translate(-1066.000000, -293.000000)" fill="#419BF9">
            <path d="M1067.23607,300.006865 L1066.11326,300.006865 L1066.11326,295.83283 C1066.11326,294.749321 1066.99467,293.867918 1068.07818,293.867918 L1083.87607,293.867918 C1084.95958,293.867918 1085.84098,294.749321 1085.84098,295.83283 L1085.84098,298.231426 L1084.71958,298.231426 L1084.71958,295.83283 C1084.71958,295.368269 1084.34204,294.990725 1083.87607,294.990725 L1068.07818,294.990725 C1067.61361,294.990725 1067.23607,295.368269 1067.23607,295.83283 L1067.23607,300.006865 Z M1079.23789,299.848549 C1079.36982,299.712409 1079.55228,299.635216 1079.74175,299.635216 L1086,299.635216 L1086,301.038725 L1080.0393,301.038725 L1073.22947,308.084339 C1073.09614,308.220479 1072.91368,308.297672 1072.72421,308.297672 C1072.70456,308.297672 1072.68491,308.297672 1072.66526,308.294865 C1072.45474,308.276619 1072.26386,308.165742 1072.14456,307.991707 L1068.61193,302.814163 L1066,302.814163 L1066,301.410655 L1068.98246,301.410655 C1069.21404,301.410655 1069.43158,301.524339 1069.56211,301.716619 L1072.81825,306.488549 L1079.23789,299.848549 Z M1084.71902,302.441672 L1085.84182,302.441672 L1085.84182,309.68097 C1085.84182,310.764479 1084.96042,311.645883 1083.87691,311.645883 L1068.07902,311.645883 C1066.99551,311.645883 1066.11411,310.764479 1066.11411,309.68097 L1066.11411,304.217111 L1067.23551,304.217111 L1067.23551,309.68097 C1067.23551,310.145532 1067.61305,310.523076 1068.07902,310.523076 L1083.87691,310.523076 C1084.34147,310.523076 1084.71902,310.145532 1084.71902,309.68097 L1084.71902,302.441672 Z" id="Fill-6"></path>
        </g>
    </g>
</svg>