<?xml version="1.0" encoding="iso-8859-1"?>
<!-- Generator: Adobe Illustrator 18.1.1, SVG Export Plug-In . SVG Version: 6.00 Build 0)  -->
<!DOCTYPE svg PUBLIC "-//W3C//DTD SVG 1.1//EN" "http://www.w3.org/Graphics/SVG/1.1/DTD/svg11.dtd">
<svg version="1.1" id="Layer_1" xmlns="http://www.w3.org/2000/svg" xmlns:xlink="http://www.w3.org/1999/xlink" x="0px" y="0px"
	 viewBox="0 0 16 16" style="enable-background:new 0 0 16 16;" xml:space="preserve">
<g>
	<rect x="4" y="7" style="fill:#0099FF;" width="6" height="1"/>
	<rect x="4" y="10" style="fill:#0099FF;" width="6" height="1"/>
	<path style="fill:#0099FF;" d="M12.886,14.935H1.549v-13.3h6.29L8.384,0.57H0.407V16h13.621V7.029
		c-0.353,0.204-0.738,0.359-1.142,0.476V14.935z"/>
	<path style="fill:#0099FF;" d="M11.133,1.454l0.026,1.123c1.91-0.019,3.205,1.569,3.569,2.453c0.227-0.464,0.366-0.978,0.366-1.53
		c0-1.933-1.567-3.5-3.5-3.5s-3.5,1.567-3.5,3.5c0,0.171,0.027,0.335,0.05,0.5H4v1h4.443c0.563,1.179,1.756,2,3.15,2
		c1.076,0,2.027-0.496,2.669-1.26c-0.563-1.491-2.01-2.389-3.077-2.326l0.125,1.123C10.796,3.949,9.94,3.368,9.146,3.123
		C9.895,2.745,10.581,2.068,11.133,1.454z"/>
</g>
</svg>