<?xml version="1.0" encoding="UTF-8"?>
<svg width="19px" height="20px" viewBox="0 0 19 20" version="1.1" xmlns="http://www.w3.org/2000/svg" xmlns:xlink="http://www.w3.org/1999/xlink">
    <!-- Generator: Sketch 50.2 (55047) - http://www.bohemiancoding.com/sketch -->
    <title>Fill 1</title>
    <desc>Created with Sketch.</desc>
    <defs></defs>
    <g id="visual" stroke="none" stroke-width="1" fill="none" fill-rule="evenodd">
        <g id="QH-All-Collapsed_updated" transform="translate(-1066.000000, -351.000000)" fill="#419BF9">
            <path d="M1081.39823,367.667126 C1081.39823,368.15251 1081.00386,368.546884 1080.51848,368.546884 C1080.03309,368.546884 1079.63872,368.15251 1079.63872,367.667126 C1079.63872,367.181743 1080.03309,366.787369 1080.51848,366.787369 C1081.00386,366.787369 1081.39823,367.181743 1081.39823,367.667126 L1081.39823,367.667126 Z M1081.39823,361.227523 C1081.39823,361.714286 1081.00386,362.107281 1080.51848,362.107281 C1080.03309,362.107281 1079.63872,361.714286 1079.63872,361.227523 C1079.63872,360.74214 1080.03309,360.347766 1080.51848,360.347766 C1081.00386,360.347766 1081.39823,360.74214 1081.39823,361.227523 L1081.39823,361.227523 Z M1081.39823,354.847215 C1081.39823,355.332598 1081.00386,355.726972 1080.51848,355.726972 C1080.03309,355.726972 1079.63872,355.332598 1079.63872,354.847215 C1079.63872,354.360452 1080.03309,353.966078 1080.51848,353.966078 C1081.00386,353.966078 1081.39823,354.360452 1081.39823,354.847215 L1081.39823,354.847215 Z M1083.15223,370.091285 L1068.44457,370.091285 C1068.14396,370.091285 1067.89851,369.887204 1067.89851,369.636238 L1067.89851,364.750689 L1083.69691,364.750689 L1083.69691,369.636238 C1083.69691,369.887204 1083.45146,370.091285 1083.15223,370.091285 L1083.15223,370.091285 Z M1083.69691,363.841975 L1067.89989,363.841975 L1067.89989,358.501379 L1083.69691,358.501379 L1083.69691,363.841975 Z M1068.44457,351.910094 L1083.15223,351.910094 C1083.45146,351.910094 1083.69691,352.112796 1083.69691,352.363762 L1083.69691,357.591285 L1067.89851,357.591285 L1067.89851,352.363762 C1067.89851,352.112796 1068.14396,351.910094 1068.44457,351.910094 L1068.44457,351.910094 Z M1083.15223,351 L1068.44457,351 C1067.54275,351 1066.80916,351.612245 1066.80916,352.363762 L1066.80916,369.636238 C1066.80916,370.389134 1067.54275,371 1068.44457,371 L1083.15223,371 C1084.05268,371 1084.78627,370.389134 1084.78627,369.636238 L1084.78627,352.363762 C1084.78627,351.612245 1084.05268,351 1083.15223,351 L1083.15223,351 Z" id="Fill-1"></path>
        </g>
    </g>
</svg>