<?xml version="1.0" encoding="iso-8859-1"?>
<!-- Generator: Adobe Illustrator 18.1.1, SVG Export Plug-In . SVG Version: 6.00 Build 0)  -->
<!DOCTYPE svg PUBLIC "-//W3C//DTD SVG 1.1//EN" "http://www.w3.org/Graphics/SVG/1.1/DTD/svg11.dtd">
<svg version="1.1" id="Layer_1" xmlns="http://www.w3.org/2000/svg" xmlns:xlink="http://www.w3.org/1999/xlink" x="0px" y="0px"
	 viewBox="0 0 17 12" style="enable-background:new 0 0 17 12;" xml:space="preserve">
<rect x="0.349" y="0.186" style="fill:#EEEEEE;" width="16.302" height="11.629"/>
<g>
	<g>
		<g>
			<g>
				<path style="fill:#333333;" d="M9.066,7.705H7.854C7.85,7.533,7.849,7.427,7.849,7.39c0-0.389,0.065-0.709,0.195-0.96
					c0.129-0.251,0.389-0.533,0.78-0.847C9.213,5.27,9.446,5.064,9.522,4.967C9.64,4.814,9.698,4.644,9.698,4.459
					c0-0.257-0.104-0.477-0.311-0.66C9.179,3.615,8.9,3.523,8.548,3.523c-0.339,0-0.622,0.096-0.851,0.287
					c-0.228,0.19-0.385,0.483-0.471,0.875L6,4.534c0.035-0.561,0.276-1.037,0.725-1.43c0.448-0.392,1.037-0.588,1.766-0.588
					c0.767,0,1.377,0.198,1.83,0.595C10.773,3.508,11,3.97,11,4.497c0,0.291-0.083,0.567-0.249,0.828
					c-0.166,0.26-0.522,0.615-1.067,1.063C9.402,6.62,9.226,6.806,9.158,6.947C9.091,7.088,9.059,7.341,9.066,7.705z M7.854,9.484
					V8.161h1.336v1.322H7.854z"/>
			</g>
		</g>
	</g>
</g>
</svg>
