<?xml version="1.0" encoding="UTF-8"?>
<svg width="22px" height="17px" viewBox="0 0 22 17" version="1.1" xmlns="http://www.w3.org/2000/svg" xmlns:xlink="http://www.w3.org/1999/xlink">
    <!-- Generator: Sketch 50.2 (55047) - http://www.bohemiancoding.com/sketch -->
    <title>Fill 1</title>
    <desc>Created with Sketch.</desc>
    <defs></defs>
    <g id="visual" stroke="none" stroke-width="1" fill="none" fill-rule="evenodd">
        <g id="QH-All-Collapsed_updated" transform="translate(-1066.000000, -507.000000)" fill="#419BF9">
            <path d="M1087.12173,522.172703 L1080.36752,522.172703 L1080.36752,519.049017 C1080.36752,518.334895 1080.00806,517.824465 1079.73967,517.517728 C1079.69294,517.472197 1079.64261,517.436251 1079.59468,517.390719 C1080.3136,517.129514 1081.06726,516.989325 1081.84848,516.989325 C1083.79554,516.989325 1085.66113,517.819672 1086.95997,519.295844 C1087.04025,519.388105 1087.12173,519.480366 1087.12173,519.664888 L1087.12173,522.172703 Z M1079.34306,522.172703 L1076.49496,522.172703 L1075.69457,522.172703 L1066.93579,522.172703 L1066.93579,519.156854 C1066.93579,518.833342 1067.03044,518.726703 1067.1251,518.726703 C1068.83013,516.894668 1070.91378,515.925331 1073.18675,515.925331 C1074.78634,515.925331 1076.33321,516.414193 1077.64163,517.299657 C1077.9244,517.491368 1078.19759,517.697457 1078.4552,517.925113 C1078.69964,518.141986 1078.93448,518.369642 1079.15375,518.618866 C1079.24841,518.726703 1079.34306,518.833342 1079.34306,519.049017 L1079.34306,522.172703 Z M1070.32907,511.288329 C1070.32907,509.548554 1071.55242,508.041229 1073.18436,508.041229 C1074.71445,508.041229 1076.03965,509.432329 1076.03965,511.288329 C1076.03965,513.144328 1074.71445,514.535428 1073.18436,514.535428 C1071.65427,514.535428 1070.32907,513.028103 1070.32907,511.288329 L1070.32907,511.288329 Z M1079.52399,513.017319 C1079.52399,511.602255 1080.51969,510.375306 1081.84729,510.375306 C1083.09101,510.375306 1084.17058,511.507598 1084.17058,513.017319 C1084.17058,514.527041 1083.09101,515.659332 1081.84729,515.659332 C1080.60236,515.659332 1079.52399,514.433582 1079.52399,513.017319 L1079.52399,513.017319 Z M1087.46081,518.352867 C1086.30695,517.215783 1084.99973,516.428571 1083.53913,516.078699 C1084.53842,515.378955 1085.15429,514.154403 1085.15429,512.929851 C1085.07641,510.918087 1083.6925,509.344861 1081.84729,509.344861 C1080.00087,509.344861 1078.61696,511.005555 1078.61696,513.017319 C1078.61696,514.329339 1079.23163,515.466423 1080.23212,516.166167 C1079.80437,516.276401 1079.30233,516.454932 1078.7919,516.684984 C1077.68716,515.805512 1076.47819,515.178857 1075.16018,514.862535 C1076.32722,514.045368 1077.04493,512.615925 1077.04493,511.186482 C1076.95507,508.838026 1075.33871,507 1073.18436,507 C1071.02881,507 1069.41245,508.939873 1069.41245,511.288329 C1069.41245,512.820816 1070.13137,514.147214 1071.2984,514.964381 C1069.32259,515.474811 1066,517.210991 1066,519.049017 L1066,523.338544 L1075.69457,523.338544 L1080.36752,523.338544 L1088,523.338544 L1088,519.664888 C1088,519.052612 1087.69206,518.615271 1087.46081,518.352867 L1087.46081,518.352867 Z" id="Fill-1"></path>
        </g>
    </g>
</svg>