<?xml version="1.0" encoding="iso-8859-1"?>
<!-- Generator: Adobe Illustrator 18.1.1, SVG Export Plug-In . SVG Version: 6.00 Build 0)  -->
<!DOCTYPE svg PUBLIC "-//W3C//DTD SVG 1.1//EN" "http://www.w3.org/Graphics/SVG/1.1/DTD/svg11.dtd">
<svg version="1.1" id="Layer_1" xmlns="http://www.w3.org/2000/svg" xmlns:xlink="http://www.w3.org/1999/xlink" x="0px" y="0px"
	 viewBox="0 0 16 16" style="enable-background:new 0 0 16 16;" xml:space="preserve">
<g>
	<path style="fill:#0099FF;" d="M15.8,2.1L15.8,2.1c0,0-1.5-1.6-1.9-1.9c-0.3-0.3-0.7,0-0.7,0L12.4,1L15,3.6
		c0.1-0.1,0.4-0.4,0.8-0.7C15.9,2.8,16,2.6,16,2.5C16,2.2,15.8,2.1,15.8,2.1z"/>
	<polygon style="fill:#0099FF;" points="5.4,13.1 13.8,5 11.1,2.3 3,10.6 	"/>
	<path style="fill:#0099FF;" d="M0,15.9C0.1,16,0.4,16,0.4,16l3.8-1.7l-2.3-2.4c-0.4,0.7-1.5,2.9-1.8,3.6C0,15.7,0,15.9,0,15.9z"/>
</g>
</svg>
