<?xml version="1.0" encoding="iso-8859-1"?>
<!-- Generator: Adobe Illustrator 18.1.1, SVG Export Plug-In . SVG Version: 6.00 Build 0)  -->
<!DOCTYPE svg PUBLIC "-//W3C//DTD SVG 1.1//EN" "http://www.w3.org/Graphics/SVG/1.1/DTD/svg11.dtd">
<svg version="1.1" id="Layer_1" xmlns="http://www.w3.org/2000/svg" xmlns:xlink="http://www.w3.org/1999/xlink" x="0px" y="0px"
	 viewBox="0 0 14 15" style="enable-background:new 0 0 14 15;" xml:space="preserve">
<path style="opacity:0.4;fill:#CCCCCC;enable-background:new    ;" d="M13.546,12.494c-0.175-0.209-1.375-1.591-2.792-3.223
	c0.736-0.967,1.177-2.162,1.177-3.458C11.932,2.6,9.26,0,5.966,0C2.669,0,0,2.6,0,5.813c0,3.21,2.669,5.815,5.966,5.815
	c0.862,0,1.68-0.182,2.421-0.503c1.434,1.661,2.653,3.076,2.836,3.281c0.542,0.607,0.945,0.879,1.911,0.186
	c0,0,0.105-0.071,0.145-0.108c0.044-0.033,0.133-0.122,0.133-0.122C14.275,13.549,14.071,13.117,13.546,12.494z M5.966,10.118
	c-2.441,0-4.419-1.928-4.419-4.305c0-2.378,1.978-4.306,4.419-4.306c2.44,0,4.417,1.927,4.417,4.306
	C10.383,8.19,8.407,10.118,5.966,10.118z"/>
</svg>
