<?xml version="1.0" encoding="UTF-8"?>
<svg width="20px" height="20px" viewBox="0 0 20 20" version="1.1" xmlns="http://www.w3.org/2000/svg" xmlns:xlink="http://www.w3.org/1999/xlink">
    <!-- Generator: Sketch 50.2 (55047) - http://www.bohemiancoding.com/sketch -->
    <title>Page 1</title>
    <desc>Created with Sketch.</desc>
    <defs></defs>
    <g id="visual" stroke="none" stroke-width="1" fill="none" fill-rule="evenodd">
        <g id="QH-All-Collapsed_updated" transform="translate(-1067.000000, -528.000000)" fill="#419BF9">
            <path d="M1076.99873,535.29449 C1076.28942,535.29449 1075.58011,535.551615 1075.0646,536.067131 C1074.54908,536.583914 1074.26409,537.271691 1074.26409,538.001267 C1074.26409,538.732109 1074.54908,539.417353 1075.0646,539.934136 C1076.09816,540.965168 1077.89804,540.967701 1078.93414,539.934136 C1079.45092,539.418619 1079.73464,538.732109 1079.73464,538.001267 C1079.73464,537.270424 1079.45092,536.582647 1078.93414,536.067131 C1078.41862,535.551615 1077.70931,535.29449 1076.99873,535.29449 L1076.99873,535.29449 Z M1077,541.911336 C1075.95503,541.911336 1074.9734,541.50475 1074.23369,540.766308 C1073.49398,540.027866 1073.0874,539.044965 1073.0874,538.001267 C1073.0874,536.957568 1073.49398,535.974668 1074.23369,535.234959 C1075.70551,533.763141 1078.29069,533.760608 1079.76504,535.234959 C1080.50475,535.973401 1080.91134,536.955035 1080.91134,538.001267 C1080.91134,539.046232 1080.50475,540.029132 1079.76504,540.766308 C1079.02533,541.50475 1078.0437,541.911336 1077,541.911336 L1077,541.911336 Z M1075.48132,546.823306 L1078.51868,546.823306 L1078.37935,545.198227 L1078.82774,545.055098 C1079.46612,544.852438 1080.26916,544.469918 1080.68968,544.260925 L1081.1026,544.056998 L1082.16276,545.31349 L1084.31222,543.165294 L1083.05573,542.106396 L1084.18303,539.380621 L1085.82331,539.519949 L1085.82331,536.481317 L1084.18303,536.620646 L1083.05573,533.896137 L1084.31222,532.834706 L1082.16403,530.68651 L1081.10386,531.944269 L1078.37935,530.815706 L1078.51868,529.176694 L1075.48132,529.176694 L1075.61938,530.815706 L1072.89487,531.944269 L1071.83471,530.68651 L1069.68651,532.834706 L1070.943,533.896137 L1069.81571,536.620646 L1068.17543,536.481317 L1068.17543,539.519949 L1069.81571,539.380621 L1070.943,542.106396 L1069.68651,543.165294 L1071.83471,545.31349 L1072.89487,544.056998 L1075.61938,545.18556 L1075.48132,546.823306 Z M1078.62001,548 L1075.37872,548 C1075.07473,548 1074.78341,547.870804 1074.57948,547.647878 C1074.37429,547.426219 1074.27169,547.123496 1074.29956,546.820773 L1074.37302,545.943002 L1073.23939,545.471818 L1072.66941,546.150728 C1072.47562,546.381254 1072.18936,546.523116 1071.88537,546.534516 L1071.8841,546.534516 C1071.54845,546.534516 1071.28499,546.428119 1071.07473,546.217859 L1068.78214,543.925269 C1068.56808,543.71121 1068.45282,543.416086 1068.46422,543.11463 C1068.48068,542.808106 1068.62128,542.524383 1068.8518,542.330589 L1069.52692,541.761875 L1069.057,540.625712 L1068.17416,540.700443 C1067.87144,540.737175 1067.56998,540.625712 1067.34706,540.416719 C1067.12793,540.216593 1067,539.926536 1067,539.622546 L1067,536.379987 C1067,536.075997 1067.12666,535.784674 1067.34959,535.580747 C1067.56365,535.384421 1067.8613,535.278024 1068.16023,535.299557 L1069.057,535.374288 L1069.52692,534.240659 L1068.85054,533.669411 C1068.62128,533.478151 1068.48068,533.194427 1068.46548,532.891704 C1068.45282,532.58518 1068.56808,532.290057 1068.78214,532.074731 L1071.07473,529.783407 C1071.28246,529.574414 1071.54718,529.468018 1071.8575,529.465484 C1072.19189,529.480684 1072.47562,529.621279 1072.66814,529.850538 L1073.23939,530.528182 L1074.37302,530.056998 L1074.29956,529.174161 C1074.27169,528.875237 1074.37555,528.572514 1074.58201,528.348322 C1074.78341,528.127929 1075.07473,528 1075.37872,528 L1078.62001,528 C1078.92147,528 1079.21279,528.127929 1079.41799,528.349588 C1079.62318,528.573781 1079.72578,528.873971 1079.70044,529.174161 L1079.62571,530.058265 L1080.75934,530.528182 L1081.32932,529.850538 C1081.52312,529.621279 1081.80684,529.480684 1082.10703,529.465484 C1082.45155,529.468018 1082.71628,529.574414 1082.924,529.783407 L1085.21533,532.074731 C1085.43065,532.290057 1085.54592,532.58518 1085.53452,532.886637 C1085.51805,533.194427 1085.37619,533.478151 1085.14566,533.671944 L1084.47182,534.240659 L1084.94174,535.374288 L1085.82457,535.300823 C1086.12476,535.276757 1086.43509,535.384421 1086.64915,535.580747 C1086.87207,535.78594 1087,536.077264 1087,536.379987 L1087,539.622546 C1087,539.925269 1086.87207,540.216593 1086.64788,540.421786 C1086.42749,540.625712 1086.12603,540.723243 1085.82077,540.700443 L1084.94174,540.625712 L1084.47182,541.761875 L1085.1482,542.331856 C1085.37745,542.524383 1085.51805,542.808106 1085.53325,543.109563 C1085.54592,543.416086 1085.43065,543.71121 1085.21533,543.925269 L1082.924,546.217859 C1082.71374,546.428119 1082.44775,546.534516 1082.13743,546.534516 C1081.80937,546.523116 1081.52312,546.381254 1081.32932,546.149462 L1080.79607,545.517416 C1080.43635,545.687144 1080.02723,545.868271 1079.63078,546.018999 L1079.70044,546.824573 C1079.72578,547.126029 1079.62318,547.424953 1079.42052,547.647878 C1079.21406,547.872071 1078.92147,548 1078.62001,548 L1078.62001,548 Z" id="Page-1"></path>
        </g>
    </g>
</svg>