<?xml version="1.0" encoding="iso-8859-1"?>
<!-- Generator: Adobe Illustrator 16.0.0, SVG Export Plug-In . SVG Version: 6.00 Build 0)  -->
<!DOCTYPE svg PUBLIC "-//W3C//DTD SVG 1.1//EN" "http://www.w3.org/Graphics/SVG/1.1/DTD/svg11.dtd">
<svg version="1.1" id="Layer_1" xmlns="http://www.w3.org/2000/svg" xmlns:xlink="http://www.w3.org/1999/xlink" x="0px" y="0px"
	 width="30px" height="30px" viewBox="0 0 30 30" style="enable-background:new 0 0 30 30;" xml:space="preserve">
<path style="fill:#FFFFFF;" d="M26.466,14.49l-1.705-1.688v-0.116h-0.117L21.14,9.212h-0.002l-6.002-5.955
	C14.872,3,14.453,3,14.188,3.257L8.181,9.212l0,0L2.856,14.49c-0.261,0.259-0.261,0.68,0,0.938c0.26,0.258,0.683,0.258,0.94,0
	l0.767-0.761v11.738v0.66h0.664h6.084h6.592h6.193h0.664v-0.66V14.672l0.764,0.755c0.26,0.258,0.684,0.258,0.941,0
	C26.726,15.169,26.726,14.749,26.466,14.49z M11.311,25.744h-0.014c-0.032-0.004-0.071-0.018-0.095-0.045l0,0v-0.002
	c-0.032-0.027-0.05-0.068-0.05-0.109h0.003v-0.002h-0.003V14.092c0-0.043,0.018-0.071,0.05-0.104
	c0.023-0.037,0.066-0.054,0.104-0.054v0.009h0.004h6.592v-0.009c0.039,0,0.074,0.017,0.107,0.054h0.004
	c0.031,0.032,0.047,0.061,0.047,0.104v11.494h-0.004v0.002h0.004c0,0.041-0.016,0.082-0.053,0.111h0.002
	c-0.029,0.027-0.059,0.041-0.104,0.045h-0.004H11.311z M23.433,25.744H19.37c0.012-0.051,0.016-0.102,0.016-0.156l0,0v-0.002l0,0
	V14.092c0-0.399-0.166-0.775-0.432-1.032c-0.273-0.278-0.645-0.445-1.051-0.445v-0.001h-6.592h-0.004v0.001
	c-0.408,0-0.782,0.167-1.044,0.445c-0.277,0.257-0.442,0.633-0.442,1.032v11.494H9.82v0.002h0.001c0,0.055,0.015,0.105,0.022,0.156
	H5.897V13.341l4.176-4.129h-0.005l4.593-4.552l4.584,4.552h0.002l4.186,4.13V25.744z"/>
</svg>
