<?xml version="1.0" encoding="UTF-8"?>
<svg width="22px" height="18px" viewBox="0 0 22 18" version="1.1" xmlns="http://www.w3.org/2000/svg" xmlns:xlink="http://www.w3.org/1999/xlink">
    <!-- Generator: Sketch 50.2 (55047) - http://www.bohemiancoding.com/sketch -->
    <title>Fill 1</title>
    <desc>Created with Sketch.</desc>
    <defs></defs>
    <g id="visual" stroke="none" stroke-width="1" fill="none" fill-rule="evenodd">
        <g id="QH-All-Collapsed_updated" transform="translate(-1065.000000, -234.000000)" fill="#419BF9">
            <path d="M1084.58491,249.930041 L1067.45492,249.997772 C1067.12034,249.204922 1066.27592,247.085344 1066.09934,245.534173 L1067.55582,245.534173 C1067.84925,245.534173 1068.0869,245.296451 1068.0869,245.002951 C1068.0869,244.70945 1067.84925,244.471728 1067.55582,244.471728 L1066.08871,244.471728 C1066.21086,242.168877 1067.11635,240.074532 1068.54894,238.446334 L1069.47435,239.37199 C1069.57791,239.475578 1069.71334,239.527372 1069.84876,239.527372 C1069.98552,239.527372 1070.12094,239.475578 1070.2245,239.37199 C1070.43162,239.164813 1070.43162,238.828815 1070.2245,238.621638 L1069.29246,237.689342 C1070.94013,236.176685 1073.09234,235.215172 1075.46892,235.089007 L1075.46892,236.389174 C1075.46892,236.682675 1075.70658,236.920397 1076,236.920397 C1076.29209,236.920397 1076.53108,236.682675 1076.53108,236.389174 L1076.53108,235.089007 C1078.87978,235.213844 1081.00941,236.154108 1082.64912,237.63622 L1081.62945,238.657495 C1081.42233,238.864672 1081.42233,239.20067 1081.62945,239.407847 C1081.73434,239.511436 1081.86976,239.56323 1082.00519,239.56323 C1082.14194,239.56323 1082.27737,239.511436 1082.38093,239.407847 L1083.39928,238.389228 C1084.86107,240.024066 1085.78648,242.140988 1085.91129,244.471728 L1084.49994,244.471728 C1084.20652,244.471728 1083.96886,244.70945 1083.96886,245.002951 C1083.96886,245.296451 1084.20652,245.534173 1084.49994,245.534173 L1085.90066,245.534173 C1085.72674,247.060111 1084.91153,249.14516 1084.58491,249.930041 M1083.81883,237.274988 C1083.80954,237.264364 1083.80688,237.251083 1083.79626,237.240459 C1083.78962,237.235146 1083.78165,237.23249 1083.77502,237.227178 C1081.78214,235.233765 1079.03247,234 1076,234 C1072.94098,234 1070.17139,235.25767 1068.17586,237.2803 C1068.16789,237.286941 1068.15727,237.289597 1068.15063,237.297565 C1068.13736,237.309518 1068.13337,237.326782 1068.12142,237.340063 C1066.1936,239.322852 1065,242.024119 1065,245.002951 C1065,247.121201 1066.55607,250.602038 1066.62245,250.749452 L1066.76451,251.062874 L1085.28328,250.989831 L1085.42269,250.675081 C1085.48642,250.530323 1087,247.090656 1087,245.002951 C1087,241.993574 1085.78383,239.264417 1083.81883,237.274988 M1072.11143,240.757684 C1071.83792,241.044545 1071.82465,241.473507 1072.07824,241.715213 L1072.08488,241.721854 L1072.69827,242.306199 L1076.37733,245.81094 C1076.63092,246.052647 1077.05712,246.018117 1077.32797,245.735241 L1077.33062,245.731257 C1077.60147,245.447053 1077.61475,245.019419 1077.36116,244.777712 L1073.6821,241.27297 L1073.0687,240.688625 L1073.06206,240.681985 C1072.80847,240.440279 1072.38095,240.474808 1072.11143,240.757684" id="Fill-1"></path>
        </g>
    </g>
</svg>