<?xml version="1.0" encoding="UTF-8" standalone="no"?>
<svg width="37px" height="30px" viewBox="0 0 37 30" version="1.1" xmlns="http://www.w3.org/2000/svg" xmlns:xlink="http://www.w3.org/1999/xlink" xmlns:sketch="http://www.bohemiancoding.com/sketch/ns">
    <!-- Generator: Sketch 3.4.1 (15681) - http://www.bohemiancoding.com/sketch -->
    <title>icon_megaphone copy</title>
    <desc>Created with Sketch.</desc>
    <defs></defs>
    <g id="Page-1" stroke="none" stroke-width="1" fill="none" fill-rule="evenodd" sketch:type="MSPage">
        <g id="What's-New" sketch:type="MSArtboardGroup" transform="translate(-35.000000, -20.000000)" fill="#F5D76E">
            <g id="icon_megaphone-copy" sketch:type="MSLayerGroup" transform="translate(35.000000, 20.000000)">
                <path d="M28.3836238,11.3227555 C28.3836238,9.68114258 27.1957977,8.34985226 25.7244933,8.33178774 L25.7244933,0.214690968 L10.4326093,7.02211032 L5.00159478,7.02211032 C2.33434841,7.02211032 0.17116,9.42888452 0.17116,12.3979168 C0.17116,15.3675942 2.3337687,17.7737232 5.00159478,17.7737232 L6.27144986,17.7737232 L10.5021745,29.7263039 L18.5821745,29.7263039 C18.5821745,29.7263039 18.6847832,28.1666265 18.6117397,27.7037232 C18.4656528,26.7788845 18.0714499,26.1079168 17.3444933,25.9056587 C17.2688412,25.884691 14.2334788,25.0724329 14.0253629,24.9017877 C13.6375368,24.5840458 13.2439136,24.1204974 12.8714499,23.4814652 C12.1314499,22.2117877 11.5839136,20.4301748 11.307102,18.0672716 L25.7244933,22.3492071 L25.7244933,14.3137232 C27.1955078,14.2956587 28.3836238,12.9643684 28.3836238,11.3227555 L28.3836238,11.3227555 Z M11.2328991,7.70823935 L24.8549281,1.64436839 L24.8549281,21.0895297 L11.2328991,17.0437232 L11.2328991,7.70823935 L11.2328991,7.70823935 Z M1.04072522,12.3979168 C1.04072522,9.96372323 2.81434841,7.98985226 5.00159478,7.98985226 L10.2508701,7.98985226 L10.2508701,16.8059813 L5.00159478,16.8059813 C2.8137687,16.8063039 1.04072522,14.8330781 1.04072522,12.3979168 L1.04072522,12.3979168 Z M13.5097107,25.6814652 C13.8053629,25.9237232 14.0465223,26.0595297 14.2030441,26.1175942 L14.2546383,26.1327555 C14.2873919,26.1401748 14.349131,26.1540458 14.4357977,26.1737232 C14.5804354,26.206949 14.7415948,26.2440458 14.915218,26.2850135 C15.41116,26.4014652 15.907102,26.5224329 16.369131,26.6411426 C16.557247,26.6895297 16.7360875,26.7366265 16.9044933,26.7821103 C16.9830441,26.8034006 17.0592759,26.8243684 17.133189,26.844691 C17.4578267,26.9350135 17.6618846,27.2821103 17.7549281,27.8714652 C17.7998557,28.1566265 17.8123194,28.4624329 17.8024643,28.7585619 L11.0943484,28.7585619 L7.20594261,17.7740458 L10.3633339,17.7740458 L10.3633339,17.7872716 L10.4021745,17.7988845 C10.6778267,20.494691 11.2859426,22.5401748 12.1418846,24.0085619 C12.5717397,24.7456587 13.0378267,25.294691 13.5097107,25.6814652 L13.5097107,25.6814652 Z M25.7244933,13.3459813 L25.7244933,9.29952968 C26.7155078,9.31759419 27.5140586,10.2156587 27.5140586,11.3227555 C27.5140586,12.4298523 26.7155078,13.3282394 25.7244933,13.3459813 L25.7244933,13.3459813 Z" id="Shape" sketch:type="MSShapeGroup"></path>
                <path d="M30.6998557,11.0411426 C30.6998557,10.8179168 30.8615948,10.6366265 31.0636238,10.6366265 L36.15116,10.6366265 C36.3520296,10.6366265 36.5149281,10.8163039 36.5149281,11.0411426 C36.5149281,11.2643684 36.353189,11.4456587 36.15116,11.4456587 L31.0636238,11.4456587 C30.8627542,11.4456587 30.6998557,11.2663039 30.6998557,11.0411426 L30.6998557,11.0411426 L30.6998557,11.0411426 Z" id="Shape_4_" sketch:type="MSShapeGroup"></path>
                <path d="M29.2775368,8.09049742 C29.1534788,7.91404581 29.1807252,7.65985226 29.3407252,7.52114258 L33.3694209,4.02630387 C33.5285513,3.88823935 33.757247,3.91823935 33.8821745,4.09598129 C34.0062325,4.2724329 33.9789861,4.52662645 33.8189861,4.66533613 L29.7902904,8.16017484 C29.6314499,8.29823935 29.4024643,8.26823935 29.2775368,8.09049742 L29.2775368,8.09049742 L29.2775368,8.09049742 Z" id="Shape_5_" sketch:type="MSShapeGroup"></path>
                <path d="M29.0494209,14.7566265 C29.1502904,14.5627555 29.3726093,14.4956587 29.5485513,14.6082394 L33.9760875,17.4466265 C34.1508701,17.5585619 34.2114499,17.8053361 34.1100006,18.00082 C34.009131,18.194691 33.7868122,18.2617877 33.6108701,18.1492071 L29.1833339,15.31082 C29.0085513,15.1985619 28.9479716,14.9517877 29.0494209,14.7566265 L29.0494209,14.7566265 L29.0494209,14.7566265 Z" id="Shape_6_" sketch:type="MSShapeGroup"></path>
            </g>
        </g>
    </g>
</svg>