<?xml version="1.0" encoding="utf-8"?>
<!-- Generator: Adobe Illustrator 18.1.1, SVG Export Plug-In . SVG Version: 6.00 Build 0)  -->
<!DOCTYPE svg PUBLIC "-//W3C//DTD SVG 1.1//EN" "http://www.w3.org/Graphics/SVG/1.1/DTD/svg11.dtd">
<svg version="1.1" id="Layer_1" xmlns:sketch="http://www.bohemiancoding.com/sketch/ns"
	 xmlns="http://www.w3.org/2000/svg" xmlns:xlink="http://www.w3.org/1999/xlink" x="0px" y="0px" viewBox="0 0 37 30"
	 style="enable-background:new 0 0 37 30;" xml:space="preserve">
<title>icon_megaphone copy</title>
<desc>Created with Sketch.</desc>
<g id="Page-1" sketch:type="MSPage">
	<g id="What_x27_s-New" transform="translate(-35.000000, -20.000000)" sketch:type="MSArtboardGroup">
		<g id="icon_megaphone-copy" transform="translate(35.000000, 20.000000)" sketch:type="MSLayerGroup">
			<path id="Shape" sketch:type="MSShapeGroup" style="fill:#FFFFFF;" d="M28.384,11.323c0-1.642-1.188-2.973-2.659-2.991V0.215
				L10.433,7.022H5.002c-2.667,0-4.83,2.407-4.83,5.376c0,2.97,2.163,5.376,4.83,5.376h1.27l4.231,11.953h8.08
				c0,0,0.103-1.56,0.03-2.023c-0.146-0.925-0.54-1.596-1.267-1.798c-0.076-0.021-3.111-0.833-3.319-1.004
				c-0.388-0.318-0.781-0.781-1.154-1.42c-0.74-1.27-1.288-3.051-1.564-5.414l14.417,4.282v-8.035
				C27.196,14.296,28.384,12.964,28.384,11.323L28.384,11.323z M11.233,7.708l13.622-6.064V21.09l-13.622-4.046V7.708L11.233,7.708z
				 M1.041,12.398c0-2.434,1.774-4.408,3.961-4.408h5.249v8.816H5.002C2.814,16.806,1.041,14.833,1.041,12.398L1.041,12.398z
				 M13.51,25.681c0.296,0.242,0.537,0.378,0.693,0.436l0.052,0.015c0.033,0.007,0.094,0.021,0.181,0.041
				c0.145,0.033,0.306,0.07,0.479,0.111c0.496,0.116,0.992,0.237,1.454,0.356c0.188,0.048,0.367,0.095,0.535,0.141
				c0.079,0.021,0.155,0.042,0.229,0.063c0.325,0.09,0.529,0.437,0.622,1.027c0.045,0.285,0.057,0.591,0.048,0.887h-6.708
				L7.206,17.774h3.157v0.013l0.039,0.012c0.276,2.696,0.884,4.741,1.74,6.21C12.572,24.746,13.038,25.295,13.51,25.681
				L13.51,25.681z M25.724,13.346V9.3c0.991,0.018,1.79,0.916,1.79,2.023S26.716,13.328,25.724,13.346L25.724,13.346z"/>
			<path id="Shape_4_" sketch:type="MSShapeGroup" style="fill:#FFFFFF;" d="M30.7,11.041c0-0.223,0.162-0.405,0.364-0.405h5.088
				c0.201,0,0.364,0.18,0.364,0.405c0,0.223-0.162,0.405-0.364,0.405h-5.088C30.863,11.446,30.7,11.266,30.7,11.041L30.7,11.041
				L30.7,11.041z"/>
			<path id="Shape_5_" sketch:type="MSShapeGroup" style="fill:#FFFFFF;" d="M29.278,8.09c-0.124-0.176-0.097-0.431,0.063-0.569
				l4.029-3.495c0.159-0.138,0.388-0.108,0.513,0.07c0.124,0.176,0.097,0.431-0.063,0.569L29.79,8.16
				C29.631,8.298,29.402,8.268,29.278,8.09L29.278,8.09L29.278,8.09z"/>
			<path id="Shape_6_" sketch:type="MSShapeGroup" style="fill:#FFFFFF;" d="M29.049,14.757c0.101-0.194,0.323-0.261,0.499-0.148
				l4.428,2.838c0.175,0.112,0.235,0.359,0.134,0.554c-0.101,0.194-0.323,0.261-0.499,0.148l-4.428-2.838
				C29.009,15.199,28.948,14.952,29.049,14.757L29.049,14.757L29.049,14.757z"/>
		</g>
	</g>
</g>
</svg>
