<?xml version="1.0" encoding="utf-8"?>
<!-- Generator: Adobe Illustrator 18.1.1, SVG Export Plug-In . SVG Version: 6.00 Build 0)  -->
<!DOCTYPE svg PUBLIC "-//W3C//DTD SVG 1.1//EN" "http://www.w3.org/Graphics/SVG/1.1/DTD/svg11.dtd">
<svg version="1.1" id="Layer_1" xmlns:sketch="http://www.bohemiancoding.com/sketch/ns"
	 xmlns="http://www.w3.org/2000/svg" xmlns:xlink="http://www.w3.org/1999/xlink" x="0px" y="0px" viewBox="0 0 185 185"
	 style="enable-background:new 0 0 185 185;" xml:space="preserve">
<title>Oval 1 + icon_megaphone</title>
<desc>Created with Sketch.</desc>
<g id="Oval-1-_x2B_-icon_x5F_megaphone" transform="translate(149.000000, 338.000000)" sketch:type="MSLayerGroup">
	<path id="Oval-1" sketch:type="MSShapeGroup" style="fill:#ADE9F2;" d="M-56.5-153c51.086,0,92.5-41.414,92.5-92.5
		S-5.414-338-56.5-338s-92.5,41.414-92.5,92.5S-107.586-153-56.5-153z"/>
</g>
<g id="Page-1" sketch:type="MSPage">
	<g id="Welcome-Page" transform="translate(-592.000000, -387.000000)" sketch:type="MSArtboardGroup">
		<g id="Compass-Arrow-Icon-_x2B_-Line" transform="translate(592.000000, 387.000000)" sketch:type="MSLayerGroup">
			<g id="Compass-Arrow-Icon">
				<path style="fill:#FFFFFF;" d="M60.718,139.37l-4.721-4.721L92.5,45.63l36.504,89.02l-4.722,4.721L92.5,125.328L60.718,139.37z
					 M92.5,122.049l31.114,13.747l1.856-1.855L92.5,53.537l-32.97,80.404l1.856,1.855L92.5,122.049z"/>
			</g>
			<g id="Line">
				<rect x="90.706" y="85.579" style="fill:#FFFFFF;" width="2" height="37.29"/>
			</g>
		</g>
	</g>
</g>
</svg>
