<?xml version="1.0" encoding="utf-8"?>
<!-- Generator: Adobe Illustrator 18.1.1, SVG Export Plug-In . SVG Version: 6.00 Build 0)  -->
<!DOCTYPE svg PUBLIC "-//W3C//DTD SVG 1.1//EN" "http://www.w3.org/Graphics/SVG/1.1/DTD/svg11.dtd">
<svg version="1.1" id="Layer_1" xmlns:sketch="http://www.bohemiancoding.com/sketch/ns"
	 xmlns="http://www.w3.org/2000/svg" xmlns:xlink="http://www.w3.org/1999/xlink" x="0px" y="0px" viewBox="0 0 185 185"
	 style="enable-background:new 0 0 185 185;" xml:space="preserve">
<title>Oval 1 + icon_megaphone</title>
<desc>Created with Sketch.</desc>
<g id="Page-1" sketch:type="MSPage">
	<g id="Welcome-Page" transform="translate(-149.000000, -338.000000)" sketch:type="MSArtboardGroup">
		<g id="Oval-1-_x2B_-icon_x5F_megaphone" transform="translate(149.000000, 338.000000)" sketch:type="MSLayerGroup">
			<path id="Oval-1" sketch:type="MSShapeGroup" style="fill:#F5D76E;" d="M92.5,185c51.086,0,92.5-41.414,92.5-92.5
				S143.586,0,92.5,0S0,41.414,0,92.5S41.414,185,92.5,185z"/>
			<g id="icon_megaphone" transform="translate(30.000000, 46.000000)" sketch:type="MSShapeGroup">
				<path id="Shape" style="fill:#FFFFFF;" d="M97.924,35.101c0-5.089-4.098-9.216-9.174-9.272V0.666L35.993,21.769H17.256
					c-9.202,0-16.665,7.461-16.665,16.665c0,9.206,7.461,16.665,16.665,16.665h4.381l14.596,37.053h27.876
					c0,0,0.354-4.835,0.102-6.27c-0.504-2.867-1.864-4.947-4.372-5.574c-0.261-0.065-10.733-2.583-11.451-3.112
					c-1.338-0.985-2.696-2.422-3.981-4.403c-2.553-3.936-4.442-9.459-5.397-16.784l49.74,13.274v-24.91
					C93.825,44.317,97.924,40.19,97.924,35.101L97.924,35.101z M38.754,23.896L85.75,5.098v60.28L38.754,52.836V23.896
					L38.754,23.896z M3.591,38.434c0-7.546,6.119-13.665,13.665-13.665h18.11v27.33h-18.11C9.708,52.1,3.591,45.983,3.591,38.434
					L3.591,38.434z M46.609,79.613c1.02,0.751,1.852,1.172,2.392,1.352l0.178,0.047c0.113,0.023,0.326,0.066,0.625,0.127
					c0.499,0.103,1.055,0.218,1.654,0.345c1.711,0.361,3.422,0.736,5.016,1.104c0.649,0.15,1.266,0.296,1.847,0.437
					c0.271,0.066,0.534,0.131,0.789,0.194c1.12,0.28,1.824,1.356,2.145,3.183c0.155,0.884,0.198,1.832,0.164,2.75H38.276
					L24.861,55.1h10.893v0.041l0.134,0.036c0.951,8.357,3.049,14.698,6.002,19.25C43.373,76.712,44.981,78.414,46.609,79.613
					L46.609,79.613z M88.75,41.373V28.829c3.419,0.056,6.174,2.84,6.174,6.272C94.924,38.533,92.169,41.318,88.75,41.373
					L88.75,41.373z"/>
				<path id="Shape_4_" style="fill:#FFFFFF;" d="M105.915,34.228c0-0.692,0.558-1.254,1.255-1.254h17.552
					c0.693,0,1.255,0.557,1.255,1.254c0,0.692-0.558,1.254-1.255,1.254H107.17C106.477,35.482,105.915,34.926,105.915,34.228
					L105.915,34.228L105.915,34.228z"/>
				<path id="Shape_5_" style="fill:#FFFFFF;" d="M101.007,25.081c-0.428-0.547-0.334-1.335,0.218-1.765l13.899-10.834
					c0.549-0.428,1.338-0.335,1.769,0.216c0.428,0.547,0.334,1.335-0.218,1.765l-13.899,10.834
					C102.229,25.725,101.438,25.632,101.007,25.081L101.007,25.081L101.007,25.081z"/>
				<path id="Shape_6_" style="fill:#FFFFFF;" d="M100.221,45.746c0.348-0.601,1.115-0.809,1.722-0.46l15.275,8.799
					c0.603,0.347,0.812,1.112,0.462,1.718c-0.348,0.601-1.115,0.809-1.722,0.46l-15.275-8.799
					C100.079,47.116,99.87,46.351,100.221,45.746L100.221,45.746L100.221,45.746z"/>
			</g>
		</g>
	</g>
</g>
</svg>
