<?xml version="1.0" encoding="UTF-8" standalone="no"?>
<svg width="168px" height="110px" viewBox="0 0 168 110" version="1.1" xmlns="http://www.w3.org/2000/svg" xmlns:xlink="http://www.w3.org/1999/xlink" xmlns:sketch="http://www.bohemiancoding.com/sketch/ns">
    <!-- Generator: Sketch 3.4.1 (15681) - http://www.bohemiancoding.com/sketch -->
    <title>thumbnail_firewall_top-denies</title>
    <desc>Created with Sketch.</desc>
    <defs></defs>
    <g id="Page-1" stroke="none" stroke-width="1" fill="none" fill-rule="evenodd" sketch:type="MSPage">
        <g id="thumbnail_firewall_top-denies" sketch:type="MSLayerGroup">
            <rect id="Rectangle-5" fill="#F5F5F5" sketch:type="MSShapeGroup" x="0" y="0" width="168" height="110"></rect>
            <g id="Timeline-Icon-Copy" transform="translate(50.000000, 54.000000)" sketch:type="MSShapeGroup">
                <path d="M0,14.4199234 L0,33.0639518 L68.4564823,33.0639518 L67.3309504,22.9211149 L64.8580426,21.7375121 L59.7112624,18.9768596 L55.7676596,22.5270156 L35.6542411,16.4250014 L30.4187234,10.1650865 L15.2087092,17.7939092 L9.01339007,8.13195177 L0,14.4199234 Z" id="Fill-1" fill="#6398CF"></path>
                <path d="M50.8420709,32.861617 L27.1902411,32.861617 L27.1902411,0.43977305 L50.8420709,0.43977305 L50.8420709,32.861617 Z" id="Fill-2" fill="#6398CF"></path>
                <path d="M0,39.1489362 L68.4134184,39.1489362 L68.4134184,36.8815603 L0,36.8815603 L0,39.1489362 Z" id="Fill-4" fill="#D0D2D3"></path>
                <path d="M29.1111489,25.777617 L25.1492766,25.777617 L25.1492766,16.650695 L29.1111489,16.650695 L29.1111489,25.777617 Z" id="Fill-5" fill="#FFFFFF"></path>
                <path d="M52.8836879,25.777617 L48.9218156,25.777617 L48.9218156,16.650695 L52.8836879,16.650695 L52.8836879,25.777617 Z" id="Fill-6" fill="#FFFFFF"></path>
                <path d="M26.7876596,33.0638865 L27.4401418,33.0638865 L27.4401418,0.43977305 L26.7876596,0.43977305 L26.7876596,33.0638865 Z" id="Fill-7" fill="#FFFFFF"></path>
                <path d="M50.9295035,33.0638865 L51.5819858,33.0638865 L51.5819858,0.43977305 L50.9295035,0.43977305 L50.9295035,33.0638865 Z" id="Fill-8" fill="#FFFFFF"></path>
            </g>
            <text id="Devices" sketch:type="MSTextLayer" font-family="Helvetica" font-size="12" font-weight="bold" letter-spacing="0.0002" fill="#666666">
                <tspan x="9" y="21">Firewall</tspan>
            </text>
            <text id="Most-Packet-Throughp" sketch:type="MSTextLayer" font-family="Helvetica" font-size="14" font-weight="260" fill="#666666">
                <tspan x="9" y="38">Top Denies</tspan>
            </text>
        </g>
    </g>
</svg>