<?xml version="1.0" encoding="UTF-8" standalone="no"?>
<svg width="168px" height="110px" viewBox="0 0 168 110" version="1.1" xmlns="http://www.w3.org/2000/svg" xmlns:xlink="http://www.w3.org/1999/xlink" xmlns:sketch="http://www.bohemiancoding.com/sketch/ns">
    <!-- Generator: Sketch 3.4.1 (15681) - http://www.bohemiancoding.com/sketch -->
    <title>thumbnail_virus_top-blocked</title>
    <desc>Created with Sketch.</desc>
    <defs></defs>
    <g id="Page-1" stroke="none" stroke-width="1" fill="none" fill-rule="evenodd" sketch:type="MSPage">
        <g id="thumbnail_virus_top-blocked" sketch:type="MSLayerGroup">
            <rect id="Rectangle-5" fill="#F5F5F5" sketch:type="MSShapeGroup" x="0" y="0" width="168" height="110"></rect>
            <g id="List-Icon-Copy" transform="translate(54.000000, 53.000000)" sketch:type="MSShapeGroup">
                <path d="M0,8.0143465 L59.9218411,8.0143465 L59.9218411,0.0247676943 L0,0.0247676943 L0,8.0143465 Z" id="Fill-1" fill="#D0D2D3"></path>
                <path d="M0,18.3928094 L38.9378116,18.3928094 L38.9378116,14.39802 L0,14.39802 L0,18.3928094 Z" id="Fill-2" fill="#6398CF"></path>
                <path d="M0,28.7704733 L38.9378116,28.7704733 L38.9378116,24.7756839 L0,24.7756839 L0,28.7704733 Z" id="Fill-3" fill="#6398CF"></path>
                <path d="M0,39.1489362 L38.9378116,39.1489362 L38.9378116,35.1541468 L0,35.1541468 L0,39.1489362 Z" id="Fill-4" fill="#6398CF"></path>
                <path d="M47.9374729,18.3928094 L59.9218411,18.3928094 L59.9218411,14.39802 L47.9374729,14.39802 L47.9374729,18.3928094 Z" id="Fill-5" fill="#6398CF"></path>
                <path d="M47.9374729,28.7704733 L59.9218411,28.7704733 L59.9218411,24.7756839 L47.9374729,24.7756839 L47.9374729,28.7704733 Z" id="Fill-6" fill="#6398CF"></path>
                <path d="M47.9374729,39.1489362 L59.9218411,39.1489362 L59.9218411,35.1541468 L47.9374729,35.1541468 L47.9374729,39.1489362 Z" id="Fill-7" fill="#6398CF"></path>
            </g>
            <text id="Devices" sketch:type="MSTextLayer" font-family="Helvetica" font-size="12" font-weight="bold" letter-spacing="0.0002" fill="#666666">
                <tspan x="9" y="21">Virus</tspan>
            </text>
            <text id="Most-Packet-Throughp" sketch:type="MSTextLayer" font-family="Helvetica" font-size="14" font-weight="260" fill="#666666">
                <tspan x="9" y="38">Top Blocked</tspan>
            </text>
        </g>
    </g>
</svg>