<?xml version="1.0" encoding="utf-8"?>
<!-- Generator: Adobe Illustrator 19.1.0, SVG Export Plug-In . SVG Version: 6.00 Build 0)  -->
<!DOCTYPE svg PUBLIC "-//W3C//DTD SVG 1.1//EN" "http://www.w3.org/Graphics/SVG/1.1/DTD/svg11.dtd">
<svg version="1.1" xmlns="http://www.w3.org/2000/svg" xmlns:xlink="http://www.w3.org/1999/xlink" x="0px" y="0px"
	 viewBox="0 0 17 17" style="enable-background:new 0 0 17 17;" xml:space="preserve">
<style type="text/css">
	.st0{display:none;}
	.st1{display:inline;}
	.st2{display:inline;fill:#FFFFFF;}
	.st3{fill:#CCCCCC;}
	.st4{fill:#FFFFFF;}
	.st5{fill:#444444;}
	.st6{fill:#2197F4;}
</style>
<g id="Unassign_logging_device" class="st0">
	<g class="st1">
		<path d="M13.8,0H3.2H1.5v17h1.8h10.5h1.8V0H13.8z M13,13.7H4V2.3h9V13.7z"/>
		<path d="M8.5,4.7C6.6,4.7,5,6.3,5,8.2s1.6,3.5,3.5,3.5S12,10.2,12,8.2S10.4,4.7,8.5,4.7z M5.7,8.2c0-1.5,1.3-2.8,2.8-2.8
			c0.6,0,1.2,0.2,1.7,0.6L6.3,10C5.9,9.5,5.7,8.9,5.7,8.2z M8.5,11c-0.6,0-1.2-0.2-1.7-0.6l3.9-3.9c0.4,0.5,0.6,1.1,0.6,1.7
			C11.3,9.8,10,11,8.5,11z"/>
	</g>
	<circle class="st2" cx="8.5" cy="15.2" r="1"/>
</g>
<g id="Unassign_logging_device_copy_2" class="st0">
	<g class="st1">
		<path d="M13.8,0H3.2H1.5v17h1.8h10.5h1.8V0H13.8z M13,13.7H4V2.3h9V13.7z"/>
		<path d="M8.5,4.7C6.6,4.7,5,6.3,5,8.2s1.6,3.5,3.5,3.5S12,10.2,12,8.2S10.4,4.7,8.5,4.7z M5.7,8.2c0-1.5,1.3-2.8,2.8-2.8
			c0.6,0,1.2,0.2,1.7,0.6L6.3,10C5.9,9.5,5.7,8.9,5.7,8.2z M8.5,11c-0.6,0-1.2-0.2-1.7-0.6l3.9-3.9c0.4,0.5,0.6,1.1,0.6,1.7
			C11.3,9.8,10,11,8.5,11z"/>
	</g>
	<circle class="st2" cx="8.5" cy="15.2" r="1"/>
</g>
<g id="Unassign_logging_device_copy" class="st0">
	<g class="st1">
		<path d="M13.8,0H3.2H1.5v17h1.8h10.5h1.8V0H13.8z M13,13.7H4V2.3h9V13.7z"/>
		<path d="M8.5,4.7C6.6,4.7,5,6.3,5,8.2s1.6,3.5,3.5,3.5S12,10.2,12,8.2S10.4,4.7,8.5,4.7z M5.7,8.2c0-1.5,1.3-2.8,2.8-2.8
			c0.6,0,1.2,0.2,1.7,0.6L6.3,10C5.9,9.5,5.7,8.9,5.7,8.2z M8.5,11c-0.6,0-1.2-0.2-1.7-0.6l3.9-3.9c0.4,0.5,0.6,1.1,0.6,1.7
			C11.3,9.8,10,11,8.5,11z"/>
	</g>
	<circle class="st2" cx="8.5" cy="15.2" r="1"/>
</g>
<g id="Assign_logging_device" class="st0">
	<polygon class="st1" points="11.5,5 7.5,9 5.4,6.9 5,7.4 7.5,10 12,5.5 	"/>
	<g class="st1">
		<path d="M13.8,0H3.2H1.5v17h1.8h10.5h1.8V0H13.8z M13,13.7H4V2.3h9V13.7z"/>
	</g>
	<circle class="st2" cx="8.5" cy="15.2" r="1"/>
</g>
<g id="Assign_logging_device_2" class="st0">
	<g class="st1">
		<g>
			<path d="M13.8,0H3.2c-1,0-1.8,0.6-1.8,1.4v14.2c0,0.8,0.8,1.4,1.8,1.4h10.5c1,0,1.8-0.6,1.8-1.4V1.4C15.5,0.6,14.7,0,13.8,0z
				 M13,13.5H4V2.1h9V13.5z"/>
		</g>
		<g>
			<polygon points="11.5,5.5 7.5,9.3 5.4,7.3 5,7.8 7.5,10.2 12,6 			"/>
		</g>
	</g>
	<circle class="st2" cx="8.5" cy="15.2" r="1"/>
</g>
<g id="Assign_logging_device_2_copy_2" class="st0">
	<g class="st1">
		<g>
			<path d="M13.8,0H3.2c-1,0-1.8,0.6-1.8,1.4v14.2c0,0.8,0.8,1.4,1.8,1.4h10.5c1,0,1.8-0.6,1.8-1.4V1.4C15.5,0.6,14.7,0,13.8,0z
				 M13,13.5H4V2.1h9V13.5z"/>
		</g>
		<g>
			<polygon points="11.5,5.5 7.5,9.3 5.4,7.3 5,7.8 7.5,10.2 12,6 			"/>
		</g>
	</g>
	<circle class="st2" cx="8.5" cy="15.2" r="1"/>
</g>
<g id="Assign_logging_device_2_copy" class="st0">
	<g class="st1">
		<g>
			<path d="M13.8,0H3.2c-1,0-1.8,0.6-1.8,1.4v14.2c0,0.8,0.8,1.4,1.8,1.4h10.5c1,0,1.8-0.6,1.8-1.4V1.4C15.5,0.6,14.7,0,13.8,0z
				 M13,13.5H4V2.1h9V13.5z"/>
		</g>
		<g>
			<polygon points="11.5,5.5 7.5,9.3 5.4,7.3 5,7.8 7.5,10.2 12,6 			"/>
		</g>
	</g>
	<circle class="st2" cx="8.5" cy="15.2" r="1"/>
</g>
<g id="unassign_logging_device" class="st0">
	<g class="st1">
		<g>
			<path d="M13.8,0H3.2c-1,0-1.8,0.6-1.8,1.4v14.2c0,0.8,0.8,1.4,1.8,1.4h10.5c1,0,1.8-0.6,1.8-1.4V1.4C15.5,0.6,14.7,0,13.8,0z
				 M13,13.5H4V2.1h9V13.5z"/>
		</g>
	</g>
	<circle class="st2" cx="8.5" cy="15.2" r="1"/>
	<path class="st1" d="M8.5,4.7C6.6,4.7,5,6.3,5,8.2s1.6,3.5,3.5,3.5S12,10.2,12,8.2S10.4,4.7,8.5,4.7z M5.7,8.2
		c0-1.5,1.3-2.8,2.8-2.8c0.6,0,1.2,0.2,1.7,0.6L6.3,10C5.9,9.5,5.7,8.9,5.7,8.2z M8.5,11c-0.6,0-1.2-0.2-1.7-0.6l3.9-3.9
		c0.4,0.5,0.6,1.1,0.6,1.7C11.3,9.8,10,11,8.5,11z"/>
</g>
<g id="unassign_logging_device_copy" class="st0">
	<g class="st1">
		<g>
			<path d="M13.8,0H3.2c-1,0-1.8,0.6-1.8,1.4v14.2c0,0.8,0.8,1.4,1.8,1.4h10.5c1,0,1.8-0.6,1.8-1.4V1.4C15.5,0.6,14.7,0,13.8,0z
				 M13,13.5H4V2.1h9V13.5z"/>
		</g>
	</g>
	<circle class="st2" cx="8.5" cy="15.2" r="1"/>
	<path class="st1" d="M8.5,4.7C6.6,4.7,5,6.3,5,8.2s1.6,3.5,3.5,3.5S12,10.2,12,8.2S10.4,4.7,8.5,4.7z M5.7,8.2
		c0-1.5,1.3-2.8,2.8-2.8c0.6,0,1.2,0.2,1.7,0.6L6.3,10C5.9,9.5,5.7,8.9,5.7,8.2z M8.5,11c-0.6,0-1.2-0.2-1.7-0.6l3.9-3.9
		c0.4,0.5,0.6,1.1,0.6,1.7C11.3,9.8,10,11,8.5,11z"/>
</g>
<g id="unassign_logging_device_copy_2" class="st0">
	<g class="st1">
		<g>
			<path d="M13.8,0H3.2c-1,0-1.8,0.6-1.8,1.4v14.2c0,0.8,0.8,1.4,1.8,1.4h10.5c1,0,1.8-0.6,1.8-1.4V1.4C15.5,0.6,14.7,0,13.8,0z
				 M13,13.5H4V2.1h9V13.5z"/>
		</g>
	</g>
	<circle class="st2" cx="8.5" cy="15.2" r="1"/>
	<path class="st1" d="M8.5,4.7C6.6,4.7,5,6.3,5,8.2s1.6,3.5,3.5,3.5S12,10.2,12,8.2S10.4,4.7,8.5,4.7z M5.7,8.2
		c0-1.5,1.3-2.8,2.8-2.8c0.6,0,1.2,0.2,1.7,0.6L6.3,10C5.9,9.5,5.7,8.9,5.7,8.2z M8.5,11c-0.6,0-1.2-0.2-1.7-0.6l3.9-3.9
		c0.4,0.5,0.6,1.1,0.6,1.7C11.3,9.8,10,11,8.5,11z"/>
</g>
<g id="change_password" class="st0">
	<path class="st1" d="M13.2,5.5h-0.7V4.4c0-2.2-1.9-4.3-4-4.3s-4,1.5-4,3.5H6c0-1,0.9-2,2.3-2c1.3,0,2.3,1.5,2.3,2.9v1.1H4.3
		c-1,0-2.8,1-2.8,2v7.4c0,1,1.8,1.7,2.8,1.7h8.9c1,0,2.3-0.7,2.3-1.7V7.5C15.5,6.5,14.2,5.5,13.2,5.5z M5.1,11.6
		c-0.4,0-0.7-0.3-0.7-0.7s0.3-0.7,0.7-0.7c0.4,0,0.7,0.3,0.7,0.7S5.4,11.6,5.1,11.6z M7.6,11.6c-0.4,0-0.7-0.3-0.7-0.7
		s0.3-0.7,0.7-0.7c0.4,0,0.7,0.3,0.7,0.7S8,11.6,7.6,11.6z M10.1,11.6c-0.4,0-0.7-0.3-0.7-0.7s0.3-0.7,0.7-0.7
		c0.4,0,0.7,0.3,0.7,0.7S10.5,11.6,10.1,11.6z M12.7,11.6c-0.4,0-0.7-0.3-0.7-0.7s0.3-0.7,0.7-0.7c0.4,0,0.7,0.3,0.7,0.7
		S13,11.6,12.7,11.6z"/>
</g>
<g id="change_password_copy">
	<path class="st3" d="M13.5,7V5c0-2.8-2.2-5-5-5s-5,2.2-5,5h1.9c0-1.7,1.4-3.1,3.1-3.1s3.1,1.4,3.1,3.1v2H13.5z"/>
	<path class="st3" d="M16,17H1.2c-0.6,0-1-0.4-1-1V8c0-0.6,0.4-1,1-1H16c0.6,0,1,0.4,1,1v8C17,16.6,16.6,17,16,17z"/>
	<circle class="st4" cx="4.1" cy="12" r="1"/>
	<circle class="st4" cx="7.5" cy="12" r="1"/>
	<circle class="st4" cx="11.1" cy="12" r="1"/>
	<circle class="st4" cx="14.1" cy="12" r="1"/>
</g>
<g id="change_password_copy_2" class="st0">
	<path class="st1" d="M13.5,7V5c0-2.8-2.2-5-5-5s-5,2.2-5,5h1.9c0-1.7,1.4-3.1,3.1-3.1s3.1,1.4,3.1,3.1v2H13.5z"/>
	<path class="st1" d="M16,17H1.2c-0.6,0-1-0.4-1-1V8c0-0.6,0.4-1,1-1H16c0.6,0,1,0.4,1,1v8C17,16.6,16.6,17,16,17z"/>
	<circle class="st2" cx="4.1" cy="12" r="1"/>
	<circle class="st2" cx="7.5" cy="12" r="1"/>
	<circle class="st2" cx="11.1" cy="12" r="1"/>
	<circle class="st2" cx="14.1" cy="12" r="1"/>
</g>
<g id="log_forwarding" class="st0">
	<g class="st1">
		<path class="st5" d="M15.6,17H0V0h15.6V17z M13.6,2H2V15h11.6"/>
		<rect x="4.5" y="4.5" class="st5" width="7" height="1"/>
		<rect x="4.5" y="6.5" class="st5" width="7" height="1"/>
	</g>
	<g class="st1">
		<rect x="4.5" y="11.5" class="st5" width="6" height="1"/>
		<g>
			<polygon class="st5" points="9.5,14.3 9.5,12 9.5,9.7 12.9,12 			"/>
		</g>
	</g>
</g>
<g id="log_forwarding_hover" class="st0">
	<g class="st1">
		<path class="st6" d="M15.6,17H0V0h15.6V17z M13.6,2H2V15h11.6"/>
		<rect x="4.5" y="4.5" class="st6" width="7" height="1"/>
		<rect x="4.5" y="6.5" class="st6" width="7" height="1"/>
	</g>
	<g class="st1">
		<rect x="4.5" y="11.5" class="st6" width="6" height="1"/>
		<g>
			<polygon class="st6" points="9.5,14.3 9.5,12 9.5,9.7 12.9,12 			"/>
		</g>
	</g>
</g>
<g id="log_forwarding_disable" class="st0">
	<g class="st1">
		<path class="st3" d="M15.6,17H0V0h15.6V17z M13.6,2H2V15h11.6"/>
		<rect x="4.5" y="4.5" class="st3" width="7" height="1"/>
		<rect x="4.5" y="6.5" class="st3" width="7" height="1"/>
	</g>
	<g class="st1">
		<rect x="4.5" y="11.5" class="st3" width="6" height="1"/>
		<g>
			<polygon class="st3" points="9.5,14.3 9.5,12 9.5,9.7 12.9,12 			"/>
		</g>
	</g>
</g>
<g id="Layer_11">
</g>
<g id="Layer_12">
</g>
<g id="Layer_13">
</g>
<g id="Layer_14">
</g>
<g id="Layer_15">
</g>
<g id="Layer_16">
</g>
<g id="Layer_6" class="st0">
</g>
<g id="Layer_7" class="st0">
</g>
<g id="Layer_8" class="st0">
</g>
</svg>
