<?xml version="1.0" encoding="utf-8"?>
<!-- Generator: Adobe Illustrator 18.1.1, SVG Export Plug-In . SVG Version: 6.00 Build 0)  -->
<!DOCTYPE svg PUBLIC "-//W3C//DTD SVG 1.1//EN" "http://www.w3.org/Graphics/SVG/1.1/DTD/svg11.dtd">
<svg version="1.1" id="Layer_1" xmlns="http://www.w3.org/2000/svg" xmlns:xlink="http://www.w3.org/1999/xlink" x="0px" y="0px"
	 viewBox="0 0 14 14" style="enable-background:new 0 0 14 14;" xml:space="preserve">
<path style="fill:#69929E;" d="M0,2.254v3.889h14V2.254H0z M4.519,5.496H1.785V4.348h2.734V5.496z M8.376,5.496H5.642V4.348h2.734
	V5.496z M12.233,5.496H9.499V4.348h2.734V5.496z"/>
<polygon style="fill:#69929E;" points="4.036,9.157 2.536,6.123 1.036,9.157 2.002,9.157 2.014,9.157 2.014,11.716 3.014,11.716 
	3.014,9.157 "/>
<polygon style="fill:#69929E;" points="8.495,9.123 6.995,6.123 5.495,9.123 6.478,9.123 6.49,9.123 6.49,11.746 7.49,11.746 
	7.49,9.123 "/>
<polygon style="fill:#69929E;" points="12.954,9.157 11.454,6.123 9.954,9.157 10.965,9.157 10.965,11.716 11.965,11.716 
	11.965,9.157 "/>
</svg>
