<?xml version="1.0" encoding="utf-8"?>
<!-- Generator: Adobe Illustrator 19.1.0, SVG Export Plug-In . SVG Version: 6.00 Build 0)  -->
<!DOCTYPE svg PUBLIC "-//W3C//DTD SVG 1.1//EN" "http://www.w3.org/Graphics/SVG/1.1/DTD/svg11.dtd">
<svg version="1.1" id="Layer_1" xmlns="http://www.w3.org/2000/svg" xmlns:xlink="http://www.w3.org/1999/xlink" x="0px" y="0px"
	 viewBox="0 0 18 18" style="enable-background:new 0 0 18 18;" xml:space="preserve">
<style type="text/css">
	.st0{fill:#CCCCCC;}
</style>
<g>
	<g>
		<path class="st0" d="M12.3,3.6h-0.8H6.4H5.5v8.7h0.8h5.1h0.8V3.6z M9.1,11.8c-0.2,0-0.4-0.2-0.4-0.4c0-0.2,0.2-0.4,0.4-0.4
			s0.4,0.2,0.4,0.4C9.5,11.6,9.3,11.8,9.1,11.8z M11.1,10.5H6.7V4.6h4.4V10.5z"/>
		<path class="st0" d="M8.7,0c-2.4,0-4.5,1-6,2.6C2.5,2.8,2.3,3,2.1,3.3c-1.1,1.4-1.7,3.1-1.7,5c0,1.9,0.6,3.6,1.7,5
			c0.2,0.2,0.4,0.5,0.6,0.7c1.5,1.6,3.6,2.6,6,2.6c0.7,0,1.3-0.1,1.9-0.2l-0.1-0.8l0-0.2c-0.6,0.1-1.2,0.2-1.8,0.2
			c-2.1,0-4-0.9-5.4-2.4c-0.2-0.2-0.4-0.5-0.6-0.7c-0.9-1.2-1.4-2.7-1.4-4.3c0-1.6,0.5-3.1,1.4-4.3c0.2-0.3,0.4-0.5,0.6-0.7
			c1.4-1.4,3.3-2.4,5.4-2.4c4.1,0,7.4,3.3,7.4,7.4c0,1-0.2,2-0.6,2.9c0.3,0.1,0.6,0.2,0.8,0.4c0.4-1,0.7-2.1,0.7-3.3
			C17.1,3.7,13.3,0,8.7,0z"/>
	</g>
	<g>
		<path class="st0" d="M11.9,15c0-1.4,1.1-2.5,2.5-2.5c0.6,0,1.2,0.3,1.6,0.7l-0.7,0.7l2,0.6l-0.4-2.2l-0.6,0.6
			c-0.5-0.5-1.2-0.8-2-0.8c-1.6,0-3,1.3-3,3L11.9,15z"/>
	</g>
	<g>
		<path class="st0" d="M17.1,15c0,1.4-1.1,2.5-2.5,2.5c-0.6,0-1.2-0.3-1.6-0.7l0.7-0.7l-2-0.6l0.4,2.2l0.6-0.6
			c0.5,0.5,1.2,0.8,2,0.8c1.6,0,3-1.3,3-3L17.1,15z"/>
	</g>
</g>
</svg>
