<?xml version="1.0" encoding="utf-8"?>
<!-- Generator: Adobe Illustrator 19.1.0, SVG Export Plug-In . SVG Version: 6.00 Build 0)  -->
<!DOCTYPE svg PUBLIC "-//W3C//DTD SVG 1.1//EN" "http://www.w3.org/Graphics/SVG/1.1/DTD/svg11.dtd">
<svg version="1.1" id="Layer_1" xmlns="http://www.w3.org/2000/svg" xmlns:xlink="http://www.w3.org/1999/xlink" x="0px" y="0px"
	 viewBox="0 0 16 16" style="enable-background:new 0 0 16 16;" xml:space="preserve">
<g>
	<g>
		<polygon style="fill:#D91E18;" points="12.466,11.428 8.894,7.81 12.351,4.307 11.626,3.573 8.057,7.191 4.484,3.573 3.76,4.307 
			7.33,7.926 3.76,11.545 4.484,12.279 8.055,8.661 11.626,12.279 		"/>
	</g>
	<g>
		<g>
			<g>
				<path style="fill:#D91E18;" d="M16,8c0,4.411-3.589,8-8,8s-8-3.589-8-8c0-4.411,3.589-8,8-8C12.411,0,16,3.589,16,8z M0.892,8
					c0,3.921,3.189,7.111,7.108,7.111s7.108-3.19,7.108-7.111S11.92,0.889,8,0.889S0.892,4.079,0.892,8z"/>
			</g>
		</g>
	</g>
</g>
</svg>
