<?xml version="1.0" encoding="utf-8"?>
<!-- Generator: Adobe Illustrator 18.1.1, SVG Export Plug-In . SVG Version: 6.00 Build 0)  -->
<!DOCTYPE svg PUBLIC "-//W3C//DTD SVG 1.1//EN" "http://www.w3.org/Graphics/SVG/1.1/DTD/svg11.dtd">
<svg version="1.1" id="Layer_1" xmlns="http://www.w3.org/2000/svg" xmlns:xlink="http://www.w3.org/1999/xlink" x="0px" y="0px"
	 viewBox="0 0 14 14" style="enable-background:new 0 0 14 14;" xml:space="preserve">
<g>
	<path style="fill:none;" d="M7,0.4C3.361,0.4,0.4,3.361,0.4,7c0,3.639,2.961,6.6,6.6,6.6s6.6-2.961,6.6-6.6
		C13.6,3.361,10.639,0.4,7,0.4z M7.32,1.803h1.05v3.536h2.346V4.561l1.959,1.096l-1.854,1.485V6.4H7.32V1.803z M6.27,12.056H5.22
		V8.874h-2.1v0.778l-1.89-1.449l1.89-1.097v0.708h3.15V12.056z M6.27,6.4H1.721V5.339H5.22V3.218H4.522L5.64,1.309l1.365,1.909H6.27
		V6.4z M12.22,8.874H8.37v1.768h0.701l-1.189,1.944l-1.26-1.944H7.32V7.814h4.9V8.874z"/>
	<path style="fill:#69929E;" d="M7,0C3.15,0,0,3.147,0,7c0,3.855,3.15,7,7,7s7-3.145,7-7C14,3.147,10.85,0,7,0z M7,13.6
		c-3.639,0-6.6-2.961-6.6-6.6c0-3.639,2.961-6.6,6.6-6.6s6.6,2.961,6.6,6.6C13.6,10.639,10.639,13.6,7,13.6z"/>
	<polygon style="fill:#69929E;" points="3.121,7.106 1.231,8.203 3.121,9.652 3.121,8.874 5.22,8.874 5.22,12.056 6.27,12.056 
		6.27,7.814 3.121,7.814 	"/>
	<polygon style="fill:#69929E;" points="10.821,7.142 12.675,5.657 10.716,4.561 10.716,5.339 8.37,5.339 8.37,1.803 7.32,1.803 
		7.32,6.4 10.821,6.4 	"/>
	<polygon style="fill:#69929E;" points="7.32,10.643 6.622,10.643 7.881,12.586 9.071,10.643 8.37,10.643 8.37,8.874 12.22,8.874 
		12.22,7.814 7.32,7.814 	"/>
	<polygon style="fill:#69929E;" points="5.64,1.309 4.522,3.218 5.22,3.218 5.22,5.339 1.721,5.339 1.721,6.4 6.27,6.4 6.27,3.218 
		7.005,3.218 	"/>
</g>
</svg>
