<?xml version="1.0" encoding="iso-8859-1"?>
<!-- Generator: Adobe Illustrator 18.1.1, SVG Export Plug-In . SVG Version: 6.00 Build 0)  -->
<!DOCTYPE svg PUBLIC "-//W3C//DTD SVG 1.1//EN" "http://www.w3.org/Graphics/SVG/1.1/DTD/svg11.dtd">
<svg version="1.1" id="Layer_1" xmlns="http://www.w3.org/2000/svg" xmlns:xlink="http://www.w3.org/1999/xlink" x="0px" y="0px"
	 viewBox="0 0 14 14" style="enable-background:new 0 0 14 14;" xml:space="preserve">
<g style="opacity:0.3;">
	<path style="fill:#FFFFFF;" d="M7,12.5c2.747,0,5.025-2.027,5.43-4.664H1.57C1.975,10.473,4.25,12.5,7,12.5z"/>
	<path style="fill:#FFFFFF;" d="M7,1.5c-2.635,0-4.838,1.861-5.374,4.336h10.747C11.837,3.361,9.632,1.5,7,1.5z"/>
	<path style="fill:#EF4944;" d="M8.365,0.129c-4.932-0.93-9.167,3.307-8.236,8.238c0.52,2.755,2.74,4.978,5.495,5.502
		c4.935,0.939,9.183-3.306,8.245-8.243C13.346,2.87,11.122,0.649,8.365,0.129z M7,1.5c2.632,0,4.837,1.861,5.373,4.336H1.626
		C2.162,3.361,4.365,1.5,7,1.5z M7,12.5c-2.75,0-5.025-2.027-5.43-4.664h10.859C12.025,10.473,9.746,12.5,7,12.5z"/>
</g>
</svg>
