<?xml version="1.0" encoding="utf-8"?>
<!-- Generator: Adobe Illustrator 19.1.0, SVG Export Plug-In . SVG Version: 6.00 Build 0)  -->
<!DOCTYPE svg PUBLIC "-//W3C//DTD SVG 1.1//EN" "http://www.w3.org/Graphics/SVG/1.1/DTD/svg11.dtd">
<svg version="1.1" id="Layer_1" xmlns="http://www.w3.org/2000/svg" xmlns:xlink="http://www.w3.org/1999/xlink" x="0px" y="0px"
	 viewBox="0 0 10 10" style="enable-background:new 0 0 10 10;" xml:space="preserve">
<path style="fill:#D91E18;" d="M8.537,1.463c-1.95-1.95-5.124-1.95-7.074,0s-1.95,5.124,0,7.074s5.124,1.95,7.074,0
	C10.488,6.587,10.488,3.413,8.537,1.463z M8.144,1.856L8.144,1.856L8.144,1.856L8.144,1.856z M1.857,1.857
	c1.541-1.541,3.937-1.709,5.669-0.513L1.344,7.526C0.148,5.794,0.316,3.398,1.857,1.857z M8.143,8.143
	C6.5,9.786,3.884,9.87,2.14,8.401L8.401,2.14C9.87,3.884,9.786,6.501,8.143,8.143z"/>
</svg>
