<?xml version="1.0" encoding="utf-8"?>
<!-- Generator: Adobe Illustrator 18.1.1, SVG Export Plug-In . SVG Version: 6.00 Build 0)  -->
<!DOCTYPE svg PUBLIC "-//W3C//DTD SVG 1.1//EN" "http://www.w3.org/Graphics/SVG/1.1/DTD/svg11.dtd">
<svg version="1.1" id="Layer_1" xmlns="http://www.w3.org/2000/svg" xmlns:xlink="http://www.w3.org/1999/xlink" x="0px" y="0px"
	 viewBox="0 0 14 14" style="enable-background:new 0 0 14 14;" xml:space="preserve">
<g>
	<g>
		<path style="fill:none;" d="M10.096,4.484L9.766,4.41L9.735,4.074C9.671,3.401,8.954,2.889,8.178,3.052L7.865,3.115l-0.172-0.27
			C7.342,2.288,6.681,1.943,5.972,1.943c-1.092,0-1.98,0.79-1.98,1.761c0,0.083,0.008,0.165,0.025,0.253l0.085,0.433L3.677,4.497
			c-0.826,0.21-1.403,0.884-1.403,1.638c0,0.944,0.865,1.712,1.927,1.712h5.433c1.062,0,1.926-0.768,1.926-1.712
			C11.559,5.367,10.944,4.672,10.096,4.484z"/>
		<path style="fill:#69929E;" d="M10.6,3.661c-0.258-0.948-1.218-1.645-2.3-1.562C7.755,1.423,6.889,1.014,5.971,1.014
			c-1.604,0-2.908,1.207-2.908,2.689c0,0.006,0,0.012,0,0.019c-1.028,0.415-1.718,1.36-1.718,2.413c0,1.456,1.281,2.641,2.855,2.641
			h2.203v1.066c-0.617,0.23-1.059,0.82-1.059,1.518c0,0.897,0.727,1.625,1.625,1.625s1.625-0.728,1.625-1.625
			c0-0.68-0.418-1.26-1.009-1.502V8.776h2.049c1.574,0,2.854-1.184,2.854-2.641C12.488,5.033,11.711,4.035,10.6,3.661z M9.633,7.848
			H4.201c-1.063,0-1.927-0.768-1.927-1.712c0-0.754,0.577-1.428,1.403-1.639l0.425-0.108L4.017,3.958
			C4.001,3.87,3.992,3.787,3.992,3.704c0-0.971,0.888-1.761,1.98-1.761c0.71,0,1.371,0.345,1.722,0.902l0.172,0.27l0.313-0.063
			c0.775-0.163,1.492,0.348,1.556,1.021L9.766,4.41l0.33,0.073c0.848,0.188,1.463,0.883,1.463,1.652
			C11.559,7.08,10.696,7.848,9.633,7.848z"/>
	</g>
	<path style="fill:#69929E;" d="M9.374,10.842c0.059,0.215,0.101,0.438,0.101,0.673c0,0.136-0.019,0.265-0.04,0.395H13.5v-1.067
		L9.374,10.842L9.374,10.842z"/>
	<path style="fill:#69929E;" d="M4.471,10.842H0.5v1.067h3.908c-0.02-0.129-0.04-0.259-0.04-0.395
		C4.369,11.282,4.411,11.059,4.471,10.842z"/>
</g>
</svg>
