<?xml version="1.0" encoding="iso-8859-1"?>
<!-- Generator: Adobe Illustrator 18.1.1, SVG Export Plug-In . SVG Version: 6.00 Build 0)  -->
<!DOCTYPE svg PUBLIC "-//W3C//DTD SVG 1.1//EN" "http://www.w3.org/Graphics/SVG/1.1/DTD/svg11.dtd">
<svg version="1.1" id="Layer_1" xmlns="http://www.w3.org/2000/svg" xmlns:xlink="http://www.w3.org/1999/xlink" x="0px" y="0px"
	 viewBox="0 0 16 16" style="enable-background:new 0 0 16 16;" xml:space="preserve">
<g>
	<path style="fill:none;" d="M8,0.914c-3.886,0-7.086,3.2-7.086,7.086s3.2,7.086,7.086,7.086s7.086-3.2,7.086-7.086
		S11.886,0.914,8,0.914z M6.857,11.886L2.743,7.771L4.114,6.4l2.743,2.743l5.029-5.029l1.371,1.371L6.857,11.886z"/>
	<path style="fill:#33CC00;" d="M8,0C3.543,0,0,3.543,0,8s3.543,8,8,8s8-3.543,8-8S12.457,0,8,0z M8,15.086
		c-3.886,0-7.086-3.2-7.086-7.086S4.114,0.914,8,0.914s7.086,3.2,7.086,7.086S11.886,15.086,8,15.086z"/>
	<polygon style="fill:#33CC00;" points="11.886,4.114 6.857,9.143 4.114,6.4 2.743,7.771 6.857,11.886 13.257,5.486 	"/>
</g>
</svg>
