<?xml version="1.0" encoding="utf-8"?>
<!-- Generator: Adobe Illustrator 18.1.1, SVG Export Plug-In . SVG Version: 6.00 Build 0)  -->
<!DOCTYPE svg PUBLIC "-//W3C//DTD SVG 1.1//EN" "http://www.w3.org/Graphics/SVG/1.1/DTD/svg11.dtd">
<svg version="1.1" id="Layer_1" xmlns="http://www.w3.org/2000/svg" xmlns:xlink="http://www.w3.org/1999/xlink" x="0px" y="0px"
	 viewBox="0 0 14 14" style="enable-background:new 0 0 14 14;" xml:space="preserve">
<g>
	<g>
		<g>
			<path style="fill:#00B16A;" d="M7,14c-3.86,0-7-3.14-7-7s3.14-7,7-7s7,3.14,7,7S10.86,14,7,14z M7,0.78
				C3.569,0.78,0.778,3.57,0.778,7S3.569,13.22,7,13.22s6.222-2.79,6.222-6.22S10.431,0.78,7,0.78z"/>
		</g>
	</g>
	<polygon style="fill:#00B16A;" points="7.075,3.5 6.42,4.155 8.729,6.464 3.495,6.464 3.495,7.391 8.734,7.391 6.279,9.845 
		6.934,10.5 10.505,6.93 	"/>
</g>
</svg>
