<?xml version="1.0" encoding="utf-8"?>
<!-- Generator: Adobe Illustrator 18.1.1, SVG Export Plug-In . SVG Version: 6.00 Build 0)  -->
<!DOCTYPE svg PUBLIC "-//W3C//DTD SVG 1.1//EN" "http://www.w3.org/Graphics/SVG/1.1/DTD/svg11.dtd">
<svg version="1.1" id="Layer_1" xmlns="http://www.w3.org/2000/svg" xmlns:xlink="http://www.w3.org/1999/xlink" x="0px" y="0px"
	 viewBox="0 0 14 14" style="enable-background:new 0 0 14 14;" xml:space="preserve">
<g>
	<path style="fill:#69929E;" d="M7.529,7.712c0-0.009-0.003-0.018-0.003-0.027L8.96,7.083L8.73,6.229L7.185,6.351
		C7.025,6.042,6.818,5.764,6.566,5.53l0.55-1.43L6.35,3.64L5.346,4.85C5.089,4.777,4.823,4.726,4.542,4.726
		c-0.049,0-0.096,0.012-0.144,0.015L3.723,3.233L2.873,3.44l0.179,1.699C2.81,5.28,2.586,5.446,2.393,5.647L0.778,4.994L0.336,5.743
		L1.691,6.87C1.614,7.132,1.56,7.403,1.558,7.689L0,8.346l0.23,0.855l1.668-0.13C2.039,9.345,2.211,9.6,2.426,9.817l-0.579,1.511
		l0.765,0.459l1.032-1.241c0.285,0.091,0.583,0.153,0.898,0.153c0.01,0,0.018-0.003,0.028-0.003l0.668,1.496l0.854-0.206
		L5.915,10.35c0.274-0.143,0.529-0.316,0.745-0.533l1.529,0.615l0.438-0.747L7.366,8.641C7.463,8.347,7.529,8.039,7.529,7.712z
		 M4.48,9.579c-1.031,0-1.867-0.836-1.867-1.867S3.449,5.846,4.48,5.846s1.867,0.836,1.867,1.867S5.511,9.579,4.48,9.579z"/>
	<circle style="fill:#FFFFFF;" cx="4.48" cy="7.713" r="1.867"/>
</g>
<g>
	<path style="fill:#69929E;" d="M12.959,5.065c0-0.007-0.002-0.013-0.002-0.02L14,4.607l-0.167-0.621l-1.124,0.088
		c-0.116-0.225-0.267-0.427-0.45-0.597l0.4-1.039l-0.557-0.335l-0.73,0.88c-0.187-0.053-0.381-0.09-0.585-0.09
		c-0.036,0-0.07,0.009-0.105,0.011l-0.491-1.096l-0.618,0.15l0.13,1.236C9.527,3.296,9.365,3.417,9.224,3.563L8.049,3.088
		L7.728,3.633l0.985,0.82C8.657,4.643,8.618,4.84,8.616,5.048L7.484,5.526l0.167,0.622l1.213-0.094
		c0.103,0.199,0.228,0.385,0.384,0.542L8.827,7.695l0.557,0.334l0.75-0.902c0.208,0.066,0.424,0.111,0.653,0.111
		c0.007,0,0.013-0.002,0.02-0.002l0.486,1.088l0.621-0.15l-0.129-1.191c0.199-0.104,0.385-0.23,0.541-0.388l1.112,0.447l0.318-0.543
		L12.84,5.741C12.912,5.527,12.959,5.303,12.959,5.065z M10.742,6.423c-0.75,0-1.358-0.608-1.358-1.358s0.608-1.358,1.358-1.358
		S12.1,4.315,12.1,5.065S11.491,6.423,10.742,6.423z"/>
	<circle style="fill:#FFFFFF;" cx="10.742" cy="5.065" r="1.358"/>
</g>
</svg>
