<?xml version="1.0" encoding="utf-8"?>
<!-- Generator: Adobe Illustrator 18.1.1, SVG Export Plug-In . SVG Version: 6.00 Build 0)  -->
<!DOCTYPE svg PUBLIC "-//W3C//DTD SVG 1.1//EN" "http://www.w3.org/Graphics/SVG/1.1/DTD/svg11.dtd">
<svg version="1.1" id="Layer_1" xmlns="http://www.w3.org/2000/svg" xmlns:xlink="http://www.w3.org/1999/xlink" x="0px" y="0px"
	 viewBox="0 0 14 14" style="enable-background:new 0 0 14 14;" xml:space="preserve">
<g>
	<g>
		<path style="fill:#69929E;" d="M7,0C3.14,0,0,3.14,0,7c0,3.86,3.14,7,7,7c3.86,0,7-3.14,7-7C14,3.14,10.86,0,7,0z M7,13.582
			c-3.629,0-6.582-2.953-6.582-6.582c0-3.629,2.953-6.582,6.582-6.582c3.629,0,6.582,2.953,6.582,6.582
			C13.582,10.629,10.629,13.582,7,13.582z"/>
	</g>
	<g>
		<path style="fill:#69929E;" d="M1.75,8.933V5.016h0.777v3.917H1.75z"/>
		<path style="fill:#69929E;" d="M3.267,8.933V5.016h1.247c0.473,0,0.78,0.02,0.924,0.059c0.22,0.059,0.405,0.187,0.554,0.383
			c0.149,0.198,0.223,0.452,0.223,0.763c0,0.24-0.043,0.443-0.129,0.607C6.001,6.992,5.891,7.12,5.76,7.214
			C5.627,7.307,5.493,7.369,5.357,7.399C5.171,7.437,4.903,7.456,4.551,7.456H4.044v1.478H3.267z M4.044,5.679V6.79H4.47
			c0.306,0,0.511-0.02,0.614-0.061c0.103-0.041,0.184-0.105,0.242-0.192c0.059-0.087,0.088-0.189,0.088-0.305
			c0-0.143-0.041-0.26-0.123-0.353C5.209,5.786,5.105,5.729,4.979,5.705C4.886,5.688,4.7,5.679,4.42,5.679H4.044z"/>
		<path style="fill:#69929E;" d="M7.614,8.933L6.491,6.096h0.774L7.79,7.544l0.152,0.484c0.04-0.123,0.066-0.204,0.076-0.243
			c0.024-0.08,0.051-0.16,0.079-0.24l0.53-1.448h0.759L8.278,8.933H7.614z"/>
		<path style="fill:#69929E;" d="M12.179,5.975l-0.714,0.08c-0.017-0.15-0.063-0.26-0.137-0.331
			c-0.073-0.071-0.169-0.107-0.286-0.107c-0.156,0-0.287,0.071-0.395,0.214c-0.107,0.143-0.175,0.439-0.203,0.89
			c0.184-0.221,0.412-0.331,0.685-0.331c0.308,0,0.571,0.119,0.792,0.358c0.219,0.239,0.329,0.547,0.329,0.925
			c0,0.401-0.116,0.722-0.347,0.965C11.672,8.879,11.376,9,11.014,9c-0.389,0-0.708-0.154-0.958-0.46
			C9.805,8.231,9.68,7.728,9.68,7.028c0-0.718,0.13-1.235,0.391-1.552S10.671,5,11.087,5c0.292,0,0.535,0.084,0.725,0.249
			C12.005,5.417,12.127,5.658,12.179,5.975z M10.507,7.613c0,0.244,0.055,0.433,0.165,0.565c0.11,0.134,0.236,0.2,0.378,0.2
			c0.137,0,0.25-0.054,0.341-0.163c0.091-0.109,0.136-0.287,0.136-0.534c0-0.255-0.049-0.441-0.147-0.56
			c-0.098-0.118-0.22-0.177-0.368-0.177c-0.142,0-0.262,0.057-0.36,0.17C10.556,7.226,10.507,7.392,10.507,7.613z"/>
	</g>
</g>
</svg>
