<?xml version="1.0" encoding="iso-8859-1"?>
<!-- Generator: Adobe Illustrator 18.1.1, SVG Export Plug-In . SVG Version: 6.00 Build 0)  -->
<!DOCTYPE svg PUBLIC "-//W3C//DTD SVG 1.1//EN" "http://www.w3.org/Graphics/SVG/1.1/DTD/svg11.dtd">
<svg version="1.1" id="Layer_1" xmlns="http://www.w3.org/2000/svg" xmlns:xlink="http://www.w3.org/1999/xlink" x="0px" y="0px"
	 viewBox="0 0 14 14" style="enable-background:new 0 0 14 14;" xml:space="preserve">
<g style="opacity:0.3;">
	<path style="fill:#EF4944;" d="M7,0C3.14,0,0,3.14,0,7s3.14,7,7,7s7-3.14,7-7S10.86,0,7,0z M7.029,12.496
		c-1.099,0-2.117-0.326-2.977-0.881l3.02-2.984l3.179,2.816C9.346,12.104,8.236,12.496,7.029,12.496z M5.42,7.168l-2.945,2.91
		C1.878,9.199,1.529,8.139,1.529,6.996c0-0.967,0.253-1.873,0.688-2.66L5.42,7.168z M3.648,2.662
		c0.933-0.729,2.106-1.166,3.382-1.166c1.166,0,2.244,0.363,3.132,0.982L6.989,5.617L3.648,2.662z M8.639,7.08l3.043-3.01
		c0.535,0.848,0.848,1.85,0.848,2.926c0,1.035-0.29,2-0.789,2.828L8.639,7.08z"/>
	<path style="fill:#FFFFFF;" d="M10.161,2.479C9.273,1.859,8.195,1.496,7.029,1.496c-1.275,0-2.448,0.438-3.382,1.166l3.342,2.955
		L10.161,2.479z"/>
	<path style="fill:#FFFFFF;" d="M12.529,6.996c0-1.076-0.312-2.078-0.848-2.926L8.639,7.08l3.102,2.744
		C12.239,8.996,12.529,8.031,12.529,6.996z"/>
	<path style="fill:#FFFFFF;" d="M4.053,11.615c0.859,0.555,1.878,0.881,2.977,0.881c1.207,0,2.316-0.393,3.223-1.049L7.073,8.631
		L4.053,11.615z"/>
	<path style="fill:#FFFFFF;" d="M1.529,6.996c0,1.143,0.349,2.203,0.945,3.082l2.945-2.91L2.217,4.336
		C1.782,5.123,1.529,6.029,1.529,6.996z"/>
</g>
</svg>
