<?xml version="1.0" encoding="utf-8"?>
<!-- Generator: Adobe Illustrator 18.1.1, SVG Export Plug-In . SVG Version: 6.00 Build 0)  -->
<!DOCTYPE svg PUBLIC "-//W3C//DTD SVG 1.1//EN" "http://www.w3.org/Graphics/SVG/1.1/DTD/svg11.dtd">
<svg version="1.1" id="Layer_1" xmlns="http://www.w3.org/2000/svg" xmlns:xlink="http://www.w3.org/1999/xlink" x="0px" y="0px"
	 viewBox="0 0 14 14" style="enable-background:new 0 0 14 14;" xml:space="preserve">
<g>
	<path style="fill:#69929E;" d="M7,0C3.14,0,0,3.14,0,7s3.14,7,7,7s7-3.14,7-7S10.86,0,7,0z M7,13.582
		c-3.629,0-6.582-2.953-6.582-6.582S3.371,0.418,7,0.418S13.582,3.371,13.582,7S10.629,13.582,7,13.582z"/>
</g>
<g>
	<path style="fill:#69929E;" d="M4.234,9.475H3.461L2.995,6.683H2.989L2.523,9.475H1.77l-0.696-4.08h0.74l0.396,3h0.012l0.466-3
		h0.638l0.479,3h0.012l0.402-3h0.722L4.234,9.475z"/>
	<path style="fill:#69929E;" d="M8.263,9.475H7.49L7.024,6.683H7.018L6.552,9.475H5.799l-0.696-4.08h0.74l0.396,3h0.012l0.466-3
		h0.638l0.479,3h0.012l0.402-3H8.97L8.263,9.475z"/>
	<path style="fill:#69929E;" d="M12.217,9.506h-0.773l-0.466-2.792h-0.006l-0.466,2.792H9.753l-0.696-4.08h0.74l0.396,3h0.012
		l0.466-3h0.638l0.479,3H11.8l0.402-3h0.722L12.217,9.506z"/>
</g>
</svg>
