<?xml version="1.0" encoding="utf-8"?>
<!-- Generator: Adobe Illustrator 18.1.1, SVG Export Plug-In . SVG Version: 6.00 Build 0)  -->
<!DOCTYPE svg PUBLIC "-//W3C//DTD SVG 1.1//EN" "http://www.w3.org/Graphics/SVG/1.1/DTD/svg11.dtd">
<svg version="1.1" id="Layer_1" xmlns="http://www.w3.org/2000/svg" xmlns:xlink="http://www.w3.org/1999/xlink" x="0px" y="0px"
	 viewBox="0 0 14 14" style="enable-background:new 0 0 14 14;" xml:space="preserve">
<path style="fill:none;" d="M5.93,5.768V5.056h5.444v0.778H6.041C6.072,5.855,6.106,5.868,6.136,5.89
	c0.51,0.373,0.881,0.896,1.089,1.5h4.15v0.778H7.382c0.142,1.594-0.878,3.073-2.395,3.366c-0.389,0.075-0.774,0.066-1.138-0.016
	c-0.05-0.011-0.094-0.037-0.143-0.051v1.756h9.559V0.778H3.706v4.675C3.78,5.432,3.85,5.401,3.926,5.386
	C4.624,5.251,5.323,5.395,5.93,5.768z M5.93,2.722h5.444V3.5H5.93V2.722z"/>
<rect x="5.93" y="2.722" style="fill:#444444;" width="5.444" height="0.778"/>
<path style="fill:#444444;" d="M2.971,0v5.77C2.602,5.997,2.277,6.3,2.027,6.683C1.579,7.369,1.41,8.2,1.552,9.02
	c0.086,0.5,0.284,0.949,0.557,1.328L0,12.549l0.545,0.585l2.111-2.203c0.098,0.079,0.209,0.136,0.315,0.203V14H14V0H2.971z
	 M2.315,8.873C2.211,8.268,2.336,7.656,2.666,7.15c0.089-0.137,0.193-0.259,0.305-0.37c0.212-0.211,0.461-0.371,0.735-0.477
	c0.116-0.045,0.235-0.084,0.36-0.108c0.286-0.056,0.57-0.049,0.839,0.011c0.63,0.141,1.177,0.575,1.479,1.183
	c0.1,0.201,0.219,0.738,0.223,0.778c0.069,0.565-0.052,1.13-0.36,1.602c-0.331,0.506-0.828,0.845-1.4,0.956
	C4.45,10.801,4.06,10.749,3.706,10.61c-0.274-0.107-0.523-0.269-0.735-0.48C2.643,9.805,2.402,9.376,2.315,8.873z M13.265,13.222
	H3.706v-1.756c0.049,0.014,0.093,0.04,0.143,0.051c0.365,0.082,0.75,0.091,1.138,0.016c1.517-0.293,2.537-1.771,2.395-3.366h3.992
	V7.389h-4.15C7.017,6.785,6.599,6.157,6.043,5.833h5.331V5.056H5.93v0.712C5.323,5.395,4.624,5.251,3.926,5.386
	C3.85,5.401,3.78,5.432,3.706,5.453V0.778h9.559V13.222z"/>
</svg>
