<?xml version="1.0" encoding="utf-8"?>
<!-- Generator: Adobe Illustrator 18.1.1, SVG Export Plug-In . SVG Version: 6.00 Build 0)  -->
<!DOCTYPE svg PUBLIC "-//W3C//DTD SVG 1.1//EN" "http://www.w3.org/Graphics/SVG/1.1/DTD/svg11.dtd">
<svg version="1.1" id="Layer_1" xmlns="http://www.w3.org/2000/svg" xmlns:xlink="http://www.w3.org/1999/xlink" x="0px" y="0px"
	 viewBox="0 0 14 14" style="enable-background:new 0 0 14 14;" xml:space="preserve">
<g>
	<path style="fill:#69929E;" d="M6.357,9.517c-0.405,0.15-0.732,0.455-0.91,0.845c-0.094,0.205-0.149,0.432-0.149,0.673
		c0,0.137,0.022,0.267,0.054,0.395c0.176,0.706,0.811,1.23,1.571,1.23s1.394-0.525,1.571-1.23c0.032-0.127,0.054-0.258,0.054-0.395
		c0-0.241-0.056-0.467-0.15-0.673c-0.171-0.374-0.477-0.673-0.86-0.829V8.366h5.519V1.339H1.072v7.026h5.285V9.517z M2.142,6.394
		V2.301h9.848v5.02H2.142V6.394z"/>
	<path style="fill:#69929E;" d="M9.374,10.362c0.059,0.215,0.101,0.438,0.101,0.673c0,0.136-0.019,0.265-0.04,0.395H13.5v-1.067
		L9.374,10.362L9.374,10.362z"/>
	<path style="fill:#69929E;" d="M4.471,10.362H0.5v1.067h3.908c-0.02-0.129-0.04-0.259-0.04-0.395
		C4.369,10.801,4.411,10.578,4.471,10.362z"/>
</g>
</svg>
