<?xml version="1.0" encoding="utf-8"?>
<!-- Generator: Adobe Illustrator 18.1.1, SVG Export Plug-In . SVG Version: 6.00 Build 0)  -->
<!DOCTYPE svg PUBLIC "-//W3C//DTD SVG 1.1//EN" "http://www.w3.org/Graphics/SVG/1.1/DTD/svg11.dtd">
<svg version="1.1" id="Layer_1" xmlns="http://www.w3.org/2000/svg" xmlns:xlink="http://www.w3.org/1999/xlink" x="0px" y="0px"
	 viewBox="0 0 14 14" enable-background="new 0 0 14 14" xml:space="preserve">
<g>
	<g>
		<g>
			<rect x="0.1" y="8.1" transform="matrix(0.4957 0.8685 -0.8685 0.4957 9.5306 0.177)" fill="#69929E" width="8.9" height="0.4"/>
		</g>
		<g>
			<rect x="9" y="3.6" transform="matrix(0.8622 0.5066 -0.5066 0.8622 5.4146 -3.5128)" fill="#69929E" width="0.4" height="9.2"/>
		</g>
		<g>
			<rect x="4.4" y="1.2" transform="matrix(0.873 0.4877 -0.4877 0.873 3.398 -1.5261)" fill="#69929E" width="0.4" height="9.1"/>
		</g>
		<g>
			<rect x="4.6" y="5.7" transform="matrix(0.506 0.8626 -0.8626 0.506 9.6034 -4.9777)" fill="#69929E" width="9.2" height="0.4"/>
		</g>
		<g>
			<rect x="2.4" y="9.5" fill="#69929E" width="9.2" height="0.4"/>
		</g>
		<g>
			<rect x="2.4" y="4.1" fill="#69929E" width="9.2" height="0.4"/>
		</g>
		<g>
			<rect x="2" y="6.8" transform="matrix(0.8876 0.4607 -0.4607 0.8876 4.0202 -2.4301)" fill="#69929E" width="9.9" height="0.4"/>
		</g>
		<g>
			<rect x="6.7" y="1.9" fill="#69929E" width="0.4" height="10.3"/>
		</g>
		<g>
			<rect x="6.8" y="2.5" transform="matrix(0.5087 0.8609 -0.8609 0.5087 9.4335 -2.5924)" fill="#69929E" width="0.4" height="9"/>
		</g>
		<g>
			
				<rect x="2.1" y="10.7" transform="matrix(0.8627 0.5056 -0.5056 0.8627 6.1631 -0.8629)" fill="#69929E" width="5" height="0.4"/>
		</g>
		<g>
			
				<rect x="8.8" y="8.3" transform="matrix(0.4647 0.8854 -0.8854 0.4647 14.499 -2.143)" fill="#69929E" width="0.4" height="5.3"/>
		</g>
		<g>
			
				<rect x="6.7" y="2.8" transform="matrix(0.8742 0.4856 -0.4856 0.8742 2.6236 -4.1375)" fill="#69929E" width="5.1" height="0.4"/>
		</g>
		<g>
			<rect x="4.6" y="0.4" transform="matrix(0.484 0.8751 -0.8751 0.484 5.0606 -2.6426)" fill="#69929E" width="0.4" height="5.1"/>
		</g>
		<g>
			<rect x="2.2" y="4.8" fill="#69929E" width="0.4" height="4.6"/>
		</g>
		<g>
			<rect x="11.3" y="4.2" fill="#69929E" width="0.4" height="5.5"/>
		</g>
	</g>
	<g>
		<circle fill="#69929E" cx="2.5" cy="9.7" r="1.7"/>
		<path fill="#FFFFFF" d="M2.5,8.1c0.9,0,1.6,0.7,1.6,1.6s-0.7,1.6-1.6,1.6s-1.6-0.7-1.6-1.6S1.6,8.1,2.5,8.1 M2.5,7.8
			c-1,0-1.9,0.9-1.9,1.9s0.9,1.9,1.9,1.9s1.9-0.9,1.9-1.9S3.5,7.8,2.5,7.8L2.5,7.8z"/>
	</g>
	<g>
		<circle fill="#69929E" cx="11.5" cy="9.7" r="1.7"/>
		<path fill="#FFFFFF" d="M11.5,8.1c0.9,0,1.6,0.7,1.6,1.6s-0.7,1.6-1.6,1.6s-1.6-0.7-1.6-1.6S10.6,8.1,11.5,8.1 M11.5,7.8
			c-1,0-1.9,0.9-1.9,1.9s0.9,1.9,1.9,1.9s1.9-0.9,1.9-1.9S12.6,7.8,11.5,7.8L11.5,7.8z"/>
	</g>
	<g>
		<circle fill="#69929E" cx="6.9" cy="12.1" r="1.7"/>
		<g>
			<path fill="#FFFFFF" d="M6.9,10.5c0.9,0,1.6,0.7,1.6,1.6s-0.7,1.6-1.6,1.6S5.3,13,5.3,12.1S6,10.5,6.9,10.5 M6.9,10.2
				c-1,0-1.9,0.9-1.9,1.9S5.9,14,6.9,14s1.9-0.9,1.9-1.9S8,10.2,6.9,10.2L6.9,10.2z"/>
		</g>
	</g>
	<g>
		<circle fill="#69929E" cx="2.5" cy="4.3" r="1.7"/>
		<path fill="#FFFFFF" d="M2.5,2.7c0.9,0,1.6,0.7,1.6,1.6S3.4,5.9,2.5,5.9S0.9,5.2,0.9,4.3S1.6,2.7,2.5,2.7 M2.5,2.4
			c-1,0-1.9,0.9-1.9,1.9s0.9,1.9,1.9,1.9s1.9-0.9,1.9-1.9S3.5,2.4,2.5,2.4L2.5,2.4z"/>
	</g>
	<g>
		<circle fill="#69929E" cx="11.5" cy="4.3" r="1.7"/>
		<path fill="#FFFFFF" d="M11.5,2.7c0.9,0,1.6,0.7,1.6,1.6s-0.7,1.6-1.6,1.6S9.9,5.2,9.9,4.3S10.6,2.7,11.5,2.7 M11.5,2.4
			c-1,0-1.9,0.9-1.9,1.9s0.9,1.9,1.9,1.9s1.9-0.9,1.9-1.9S12.6,2.4,11.5,2.4L11.5,2.4z"/>
	</g>
	<g>
		<circle fill="#69929E" cx="6.9" cy="1.9" r="1.7"/>
		<path fill="#FFFFFF" d="M6.9,0.3c0.9,0,1.6,0.7,1.6,1.6S7.8,3.5,6.9,3.5S5.3,2.8,5.3,1.9S6,0.3,6.9,0.3 M6.9,0C5.9,0,5,0.9,5,1.9
			s0.9,1.9,1.9,1.9s1.9-0.9,1.9-1.9S8,0,6.9,0L6.9,0z"/>
	</g>
</g>
</svg>
