<?xml version="1.0" encoding="utf-8"?>
<!-- Generator: Adobe Illustrator 18.1.1, SVG Export Plug-In . SVG Version: 6.00 Build 0)  -->
<!DOCTYPE svg PUBLIC "-//W3C//DTD SVG 1.1//EN" "http://www.w3.org/Graphics/SVG/1.1/DTD/svg11.dtd">
<svg version="1.1" id="Layer_1" xmlns="http://www.w3.org/2000/svg" xmlns:xlink="http://www.w3.org/1999/xlink" x="0px" y="0px"
	 viewBox="0 0 14 14" style="enable-background:new 0 0 14 14;" xml:space="preserve">
<g>
	<g>
		<path style="fill:#69929E;" d="M7,0C3.14,0,0,3.14,0,7s3.14,7,7,7s7-3.14,7-7S10.86,0,7,0z M7,13.582
			c-3.629,0-6.582-2.953-6.582-6.582S3.371,0.418,7,0.418S13.582,3.371,13.582,7S10.629,13.582,7,13.582z"/>
	</g>
	<g>
		<path style="fill:#69929E;" d="M1.75,9V5.017h0.772V9H1.75z"/>
		<path style="fill:#69929E;" d="M3.257,9V5.017h1.239c0.469,0,0.775,0.02,0.918,0.059c0.219,0.059,0.403,0.191,0.55,0.39
			c0.148,0.201,0.222,0.459,0.222,0.776c0,0.245-0.043,0.45-0.128,0.617C5.973,7.025,5.865,7.156,5.734,7.252
			C5.602,7.346,5.469,7.409,5.333,7.441c-0.184,0.037-0.451,0.056-0.8,0.056H4.029V9H3.257z M4.029,5.691v1.13h0.423
			c0.304,0,0.508-0.021,0.61-0.062c0.102-0.042,0.183-0.107,0.241-0.196c0.058-0.089,0.088-0.192,0.088-0.309
			c0-0.145-0.041-0.265-0.123-0.358c-0.082-0.094-0.185-0.153-0.31-0.177C4.866,5.7,4.681,5.691,4.402,5.691H4.029z"/>
		<path style="fill:#69929E;" d="M7.576,9L6.46,6.115h0.77l0.522,1.473l0.151,0.492c0.04-0.125,0.065-0.207,0.076-0.247
			c0.024-0.081,0.05-0.163,0.078-0.245l0.526-1.473h0.754L8.236,9H7.576z"/>
		<path style="fill:#69929E;" d="M11.066,9V8.198H9.501V7.53L11.16,5h0.615v2.526h0.475v0.672h-0.475V9H11.066z M11.066,7.527V6.166
			l-0.879,1.361H11.066z"/>
	</g>
</g>
</svg>
