<?xml version="1.0" encoding="utf-8"?>
<!-- Generator: Adobe Illustrator 18.1.1, SVG Export Plug-In . SVG Version: 6.00 Build 0)  -->
<!DOCTYPE svg PUBLIC "-//W3C//DTD SVG 1.1//EN" "http://www.w3.org/Graphics/SVG/1.1/DTD/svg11.dtd">
<svg version="1.1" id="Layer_1" xmlns="http://www.w3.org/2000/svg" xmlns:xlink="http://www.w3.org/1999/xlink" x="0px" y="0px"
	 viewBox="0 0 14 14" style="enable-background:new 0 0 14 14;" xml:space="preserve">
<g>
	<g>
		<polygon style="fill:none;" points="5.449,6.813 6.052,7.198 7.038,7.829 7.845,8.344 8.706,7.829 9.472,7.37 10.404,6.813 
			9.472,6.813 8.841,6.813 		"/>
		<polygon style="fill:none;" points="8.084,3.293 3.129,3.293 5.525,4.824 		"/>
		<polygon style="fill:none;" points="5.869,7.829 4.883,7.198 4.743,7.109 4.743,7.198 4.743,7.829 4.743,10.718 11.161,10.718 
			11.161,7.094 7.835,9.085 		"/>
		<polygon style="fill:none;" points="8.841,6.182 8.841,3.574 5.515,5.565 2.423,3.589 2.423,7.198 4.112,7.198 4.112,6.182 		"/>
		<path style="fill:#69929E;" d="M9.472,6.182v-3.52h-7.68v5.167h2.32v3.52h7.68V6.182H9.472z M10.404,6.813L9.472,7.37L8.706,7.829
			L7.845,8.344L7.038,7.829L6.052,7.198L5.449,6.813h3.393h0.631H10.404z M8.084,3.293L5.525,4.824L3.129,3.293H8.084z M2.423,7.198
			v-3.61l3.092,1.977l3.327-1.991v2.608h-4.73v1.016H2.423z M11.161,10.718H4.743V7.829V7.198v-0.09l0.14,0.09l0.986,0.631
			l1.966,1.257l3.327-1.991L11.161,10.718L11.161,10.718z"/>
	</g>
	<polygon style="fill:#69929E;" points="13.703,1.333 11.203,0.083 11.203,1.043 8.255,1.043 8.255,1.543 11.203,1.543 
		11.203,2.583 	"/>
	<polygon style="fill:#69929E;" points="5.745,12.457 2.797,12.457 2.797,11.417 0.297,12.667 2.797,13.917 2.797,12.957 
		5.745,12.957 	"/>
</g>
</svg>
