<?xml version="1.0" encoding="utf-8"?>
<!-- Generator: Adobe Illustrator 18.1.1, SVG Export Plug-In . SVG Version: 6.00 Build 0)  -->
<!DOCTYPE svg PUBLIC "-//W3C//DTD SVG 1.1//EN" "http://www.w3.org/Graphics/SVG/1.1/DTD/svg11.dtd">
<svg version="1.1" id="Layer_1" xmlns="http://www.w3.org/2000/svg" xmlns:xlink="http://www.w3.org/1999/xlink" x="0px" y="0px"
	 viewBox="0 0 14 14" style="enable-background:new 0 0 14 14;" xml:space="preserve">
<g>
	<g>
		<rect x="3.864" y="11.415" style="fill:#69929E;" width="6.273" height="0.73"/>
		<polygon style="fill:#69929E;" points="3.864,10.513 1.429,11.731 3.864,12.949 3.864,12.146 3.864,11.415 		"/>
		<polygon style="fill:#69929E;" points="12.571,11.731 10.136,10.513 10.136,11.415 10.136,12.146 10.136,12.949 		"/>
	</g>
	<g>
		<polygon style="fill:none;" points="1.985,2.499 1.985,8.139 12.015,8.139 12.015,2.477 6.817,5.588 		"/>
		<polygon style="fill:none;" points="10.831,2.037 3.089,2.037 6.832,4.429 		"/>
		<path style="fill:#69929E;" d="M1,1.051v8.073h12V1.051H1z M10.831,2.037L6.832,4.429L3.089,2.037H10.831z M12.015,8.139H1.985
			v-5.64l4.832,3.088l5.199-3.111V8.139z"/>
	</g>
</g>
</svg>
