<?xml version="1.0" encoding="utf-8"?>
<!-- Generator: Adobe Illustrator 18.1.1, SVG Export Plug-In . SVG Version: 6.00 Build 0)  -->
<!DOCTYPE svg PUBLIC "-//W3C//DTD SVG 1.1//EN" "http://www.w3.org/Graphics/SVG/1.1/DTD/svg11.dtd">
<svg version="1.1" id="Layer_1" xmlns="http://www.w3.org/2000/svg" xmlns:xlink="http://www.w3.org/1999/xlink" x="0px" y="0px"
	 viewBox="0 0 14 14" style="enable-background:new 0 0 14 14;" xml:space="preserve">
<g>
	<g>
		<circle style="fill:#69929E;" cx="12.034" cy="11.695" r="0.446"/>
		<circle style="fill:#69929E;" cx="5.879" cy="11.695" r="0.446"/>
		<g>
			<path style="fill:#69929E;" d="M9.439,11.87l0.537,0.785L9.494,13l-0.537-0.799l-0.53,0.778l-0.483-0.345l0.544-0.771
				l-0.867-0.296l0.2-0.537l0.847,0.303V10.39H9.26v0.944l0.855-0.289l0.179,0.544L9.439,11.87z"/>
		</g>
		<g>
			<path style="fill:#69929E;" d="M3.283,11.87l0.537,0.785L3.338,13l-0.537-0.799l-0.53,0.778l-0.483-0.345l0.544-0.771
				l-0.867-0.296l0.2-0.537l0.847,0.303V10.39h0.592v0.944l0.855-0.289l0.179,0.544L3.283,11.87z"/>
		</g>
	</g>
	<g>
		<polygon style="fill:none;" points="2.065,2.425 2.065,7.975 11.935,7.975 11.935,2.402 6.819,5.465 		"/>
		<polygon style="fill:none;" points="10.771,1.969 3.151,1.969 6.835,4.325 		"/>
		<path style="fill:#69929E;" d="M1.095,1v7.945h11.81V1H1.095z M10.771,1.969L6.835,4.325L3.151,1.969H10.771z M11.935,7.975H2.065
			V2.425l4.755,3.039l5.115-3.062L11.935,7.975L11.935,7.975z"/>
	</g>
</g>
</svg>
