<?xml version="1.0" encoding="utf-8"?>
<!-- Generator: Adobe Illustrator 18.1.1, SVG Export Plug-In . SVG Version: 6.00 Build 0)  -->
<!DOCTYPE svg PUBLIC "-//W3C//DTD SVG 1.1//EN" "http://www.w3.org/Graphics/SVG/1.1/DTD/svg11.dtd">
<svg version="1.1" id="Layer_1" xmlns="http://www.w3.org/2000/svg" xmlns:xlink="http://www.w3.org/1999/xlink" x="0px" y="0px"
	 viewBox="0 0 14 14" style="enable-background:new 0 0 14 14;" xml:space="preserve">
<g>
	<path style="fill:#69929E;" d="M11.424,7c0-0.014-0.004-0.026-0.004-0.04l2.08-0.875l-0.333-1.238l-2.242,0.176
		c-0.232-0.448-0.532-0.852-0.899-1.191l0.798-2.074L9.713,1.091L8.257,2.846C7.883,2.741,7.497,2.666,7.09,2.666
		c-0.072,0-0.138,0.018-0.21,0.021L5.901,0.5L4.668,0.801l0.26,2.465C4.577,3.47,4.252,3.712,3.973,4.003L1.628,3.055L0.988,4.142
		l1.966,1.635c-0.112,0.38-0.19,0.773-0.194,1.189L0.5,7.918l0.333,1.241l2.42-0.188c0.205,0.396,0.454,0.768,0.766,1.082
		l-0.84,2.192l1.111,0.666l1.497-1.8c0.414,0.132,0.846,0.222,1.303,0.222c0.014,0,0.027-0.004,0.04-0.004L8.1,13.5l1.239-0.299
		l-0.258-2.375c0.396-0.207,0.767-0.459,1.08-0.774l2.218,0.892l0.635-1.084l-1.827-1.514C11.329,7.92,11.424,7.473,11.424,7z
		 M7,9.709C5.504,9.709,4.291,8.496,4.291,7S5.504,4.291,7,4.291S9.709,5.504,9.709,7S8.496,9.709,7,9.709z"/>
	<circle style="fill:#FFFFFF;" cx="7" cy="7" r="2.709"/>
</g>
</svg>
