<?xml version="1.0" encoding="utf-8"?>
<!-- Generator: Adobe Illustrator 18.1.1, SVG Export Plug-In . SVG Version: 6.00 Build 0)  -->
<!DOCTYPE svg PUBLIC "-//W3C//DTD SVG 1.1//EN" "http://www.w3.org/Graphics/SVG/1.1/DTD/svg11.dtd">
<svg version="1.1" id="Layer_1" xmlns="http://www.w3.org/2000/svg" xmlns:xlink="http://www.w3.org/1999/xlink" x="0px" y="0px"
	 viewBox="0 0 14 14" style="enable-background:new 0 0 14 14;" xml:space="preserve">
<g>
	<g>
		<g>
			<g>
				<path style="fill:#0099FF;" d="M6.991,2.779c-2.837,0-5.144,2.308-5.144,5.144s2.308,5.144,5.144,5.144s5.144-2.308,5.144-5.144
					S9.828,2.779,6.991,2.779z M6.991,12.76c-2.667,0-4.837-2.17-4.837-4.837s2.17-4.837,4.837-4.837s4.837,2.17,4.837,4.837
					S9.659,12.76,6.991,12.76z"/>
			</g>
			<g>
				<path style="fill:#69929E;" d="M6.991,2.779c-2.837,0-5.144,2.308-5.144,5.144s2.308,5.144,5.144,5.144s5.144-2.308,5.144-5.144
					S9.828,2.779,6.991,2.779z M6.991,12.76c-2.667,0-4.837-2.17-4.837-4.837s2.17-4.837,4.837-4.837s4.837,2.17,4.837,4.837
					S9.659,12.76,6.991,12.76z"/>
			</g>
		</g>
	</g>
	<g>
		<circle style="fill:#FFFFFF;" cx="6.991" cy="2.945" r="1.222"/>
		<path style="fill:#69929E;" d="M6.991,0.933c-1.11,0-2.013,0.903-2.013,2.013c0,1.109,0.903,2.012,2.013,2.012
			s2.013-0.903,2.013-2.012C9.004,1.835,8.101,0.933,6.991,0.933z M6.991,4.167c-0.674,0-1.222-0.548-1.222-1.221
			s0.548-1.222,1.222-1.222s1.222,0.548,1.222,1.222S7.665,4.167,6.991,4.167z"/>
	</g>
	<g>
		<circle style="fill:#FFFFFF;" cx="2.013" cy="8.526" r="1.222"/>
		<path style="fill:#69929E;" d="M2.013,6.513C0.903,6.513,0,7.416,0,8.526c0,1.109,0.903,2.012,2.013,2.012
			c1.109,0,2.012-0.903,2.012-2.012C4.026,7.416,3.123,6.513,2.013,6.513z M2.013,9.747c-0.674,0-1.222-0.548-1.222-1.221
			S1.34,7.304,2.013,7.304s1.221,0.549,1.221,1.222S2.687,9.747,2.013,9.747z"/>
	</g>
	<g>
		<circle style="fill:#FFFFFF;" cx="11.987" cy="8.526" r="1.222"/>
		<path style="fill:#69929E;" d="M11.987,6.513c-1.11,0-2.013,0.903-2.013,2.013c0,1.109,0.903,2.012,2.013,2.012S14,9.635,14,8.526
			C14,7.416,13.097,6.513,11.987,6.513z M10.765,8.526c0-0.674,0.548-1.222,1.222-1.222s1.222,0.549,1.222,1.222
			s-0.548,1.221-1.222,1.221S10.765,9.2,10.765,8.526z"/>
	</g>
</g>
</svg>
