<?xml version="1.0" encoding="utf-8"?>
<!-- Generator: Adobe Illustrator 18.1.1, SVG Export Plug-In . SVG Version: 6.00 Build 0)  -->
<!DOCTYPE svg PUBLIC "-//W3C//DTD SVG 1.1//EN" "http://www.w3.org/Graphics/SVG/1.1/DTD/svg11.dtd">
<svg version="1.1" id="Layer_1" xmlns="http://www.w3.org/2000/svg" xmlns:xlink="http://www.w3.org/1999/xlink" x="0px" y="0px"
	 viewBox="0 0 14 14" style="enable-background:new 0 0 14 14;" xml:space="preserve">
<rect x="11.561" y="4.248" style="fill:#0099FF;" width="0" height="0.726"/>
<polygon style="fill:#0099FF;" points="8.491,10.6 7.469,9.735 10.569,5.854 10.569,5.854 7.469,9.735 "/>
<path style="fill:#0099FF;" d="M2.806,2.523H8.25v0.778H2.806V2.523z M2.806,4.857H8.25v0.778H2.806V4.857z"/>
<rect x="10.338" y="5.374" transform="matrix(-0.624 0.7814 -0.7814 -0.624 21.9848 0.1699)" style="fill:#0099FF;" width="1.227" height="0"/>
<polygon style="fill:#0099FF;" points="10.569,13.248 0.766,13.248 0.766,0.752 10.569,0.752 10.569,4.607 11.18,3.842 
	11.334,3.648 11.334,0 0,0 0,14 11.334,14 11.334,8.285 10.569,9.244 "/>
<rect x="2.806" y="2.523" style="fill:#0099FF;" width="5.444" height="0.778"/>
<rect x="2.806" y="4.857" style="fill:#0099FF;" width="5.444" height="0.778"/>
<polygon style="fill:#0099FF;" points="2.806,7.19 2.806,7.968 7.885,7.968 8.25,7.51 8.25,7.19 "/>
<polygon style="fill:#0099FF;" points="11.787,4.328 11.334,4.895 10.569,5.854 7.469,9.735 8.491,10.6 10.569,7.997 11.334,7.038 
	12.809,5.192 "/>
<polygon style="fill:#0099FF;" points="13.294,4.584 14,3.7 12.978,2.836 12.273,3.72 12.29,3.734 "/>
<polygon style="fill:#0099FF;" points="13.289,4.591 13.294,4.584 12.29,3.734 12.273,3.72 12.267,3.727 "/>
<polygon style="fill:#0099FF;" points="8.001,11.204 7.988,11.193 6.988,10.347 6.789,11.659 "/>
<polygon style="fill:#0099FF;" points="8.001,11.204 8.011,11.2 6.989,10.336 6.988,10.347 7.988,11.193 "/>
</svg>
