<?xml version="1.0" encoding="utf-8"?>
<!-- Generator: Adobe Illustrator 18.1.1, SVG Export Plug-In . SVG Version: 6.00 Build 0)  -->
<!DOCTYPE svg PUBLIC "-//W3C//DTD SVG 1.1//EN" "http://www.w3.org/Graphics/SVG/1.1/DTD/svg11.dtd">
<svg version="1.1" id="Layer_1" xmlns="http://www.w3.org/2000/svg" xmlns:xlink="http://www.w3.org/1999/xlink" x="0px" y="0px"
	 viewBox="0 0 14 14" style="enable-background:new 0 0 14 14;" xml:space="preserve">
<g>
	<g>
		<polygon style="fill:none;" points="3.292,5.058 3.292,9.288 10.814,9.288 10.814,5.041 6.915,7.375 		"/>
		<polygon style="fill:none;" points="9.926,4.711 4.12,4.711 6.927,6.506 		"/>
		<path style="fill:#69929E;" d="M2.553,3.973v6.055h9V3.973H2.553z M9.926,4.711l-3,1.795L4.12,4.711H9.926z M10.814,9.288H3.292
			v-4.23l3.624,2.316l3.899-2.333v4.247H10.814z"/>
	</g>
	<g>
		<path style="fill:#69929E;" d="M7,0C3.14,0,0,3.14,0,7s3.14,7,7,7s7-3.14,7-7S10.86,0,7,0z M7,13.582
			c-3.629,0-6.582-2.953-6.582-6.582S3.371,0.418,7,0.418S13.582,3.371,13.582,7S10.629,13.582,7,13.582z"/>
	</g>
</g>
</svg>
