<?xml version="1.0" encoding="utf-8"?>
<!-- Generator: Adobe Illustrator 18.1.1, SVG Export Plug-In . SVG Version: 6.00 Build 0)  -->
<!DOCTYPE svg PUBLIC "-//W3C//DTD SVG 1.1//EN" "http://www.w3.org/Graphics/SVG/1.1/DTD/svg11.dtd">
<svg version="1.1" id="Layer_1" xmlns="http://www.w3.org/2000/svg" xmlns:xlink="http://www.w3.org/1999/xlink" x="0px" y="0px"
	 viewBox="0 0 14 14" style="enable-background:new 0 0 14 14;" xml:space="preserve">
<g>
	<rect x="4.937" y="12.341" style="fill:#69929E;" width="4.953" height="0.791"/>
	<polygon style="fill:#69929E;" points="5.993,11.365 5.993,14 3.358,12.682 	"/>
</g>
<g>
	<rect x="4.468" y="0.869" style="fill:#69929E;" width="3.896" height="0.791"/>
	<polygon style="fill:#69929E;" points="11,1.318 8.364,0 8.364,0.869 8.364,1.659 8.364,2.635 	"/>
</g>
<g>
	<polygon style="fill:none;" points="3.145,4.991 3.145,9.326 10.855,9.326 10.855,4.973 6.859,7.365 	"/>
	<polygon style="fill:none;" points="9.945,4.635 3.994,4.635 6.871,6.475 	"/>
	<path style="fill:#69929E;" d="M2.388,3.878v6.205h9.224V3.878H2.388z M9.945,4.635l-3.074,1.84l-2.877-1.84H9.945z M10.855,9.326
		h-7.71V4.991l3.714,2.374l3.996-2.391C10.855,4.974,10.855,9.326,10.855,9.326z"/>
</g>
</svg>
