<?xml version="1.0" encoding="utf-8"?>
<!-- Generator: Adobe Illustrator 18.1.1, SVG Export Plug-In . SVG Version: 6.00 Build 0)  -->
<!DOCTYPE svg PUBLIC "-//W3C//DTD SVG 1.1//EN" "http://www.w3.org/Graphics/SVG/1.1/DTD/svg11.dtd">
<svg version="1.1" id="Layer_1" xmlns="http://www.w3.org/2000/svg" xmlns:xlink="http://www.w3.org/1999/xlink" x="0px" y="0px"
	 viewBox="0 0 14 14" style="enable-background:new 0 0 14 14;" xml:space="preserve">
<g>
	<g>
		<g>
			<polygon style="fill:none;" points="7.833,6.908 7.837,6.908 7.837,4.474 6.121,4.474 6.121,4.479 7.833,4.479 			"/>
			<polygon style="fill:none;" points="12.838,2.484 6.121,2.484 6.121,3.817 8.566,3.817 8.566,6.908 12.838,6.908 			"/>
			<polygon style="fill:none;" points="7.833,7.89 1.128,7.89 1.128,4.479 5.391,4.479 5.391,4.474 1.12,4.474 1.12,7.898 
				7.837,7.898 7.837,7.62 7.833,7.62 			"/>
			<path style="fill:#69929E;" d="M0,10.605v0.728h2.666c-0.014-0.088-0.027-0.177-0.027-0.269c0-0.16,0.029-0.312,0.069-0.459H0z"
				/>
			<path style="fill:#FFFFFF;" d="M9.367,12.159c-0.514,0-0.942-0.352-1.068-0.826c-0.024-0.091-0.041-0.184-0.041-0.282
				c0-0.159,0.035-0.309,0.095-0.446c0.122-0.277,0.355-0.492,0.643-0.594c0.116-0.042,0.24-0.068,0.371-0.068
				c0.154,0,0.301,0.032,0.435,0.089c0.259,0.11,0.466,0.317,0.579,0.574c0.06,0.137,0.095,0.287,0.095,0.446
				c0,0.098-0.017,0.192-0.041,0.282C10.309,11.807,9.881,12.159,9.367,12.159z"/>
		</g>
		<path style="fill:#69929E;" d="M13.566,6.62V1.828H5.391v1.99H0.39V8.61h3.605v1.419c-0.276,0.103-0.499,0.31-0.621,0.577
			c-0.064,0.14-0.102,0.295-0.102,0.459c0,0.093,0.015,0.183,0.037,0.269c0.121,0.481,0.553,0.839,1.072,0.839
			s0.951-0.358,1.072-0.839c0.022-0.087,0.037-0.176,0.037-0.269c0-0.164-0.038-0.319-0.102-0.459
			c-0.117-0.255-0.326-0.459-0.586-0.566V8.61h3.765V6.62h0.43v3.391c-0.287,0.103-0.52,0.317-0.642,0.594
			c-0.06,0.137-0.095,0.287-0.095,0.446c0,0.098,0.017,0.192,0.041,0.282c0.125,0.475,0.554,0.826,1.068,0.826
			s0.942-0.352,1.068-0.826c0.024-0.091,0.041-0.184,0.041-0.282c0-0.159-0.035-0.309-0.095-0.446
			c-0.111-0.253-0.315-0.456-0.567-0.568V6.62H13.566z M7.837,7.898H1.12V4.474h6.718L7.837,7.898L7.837,7.898z M6.121,3.817V2.484
			h6.718v3.424H8.566V3.817H6.121z"/>
	</g>
	<path style="fill:#69929E;" d="M11.043,10.605c0.038,0.143,0.065,0.291,0.065,0.446c0,0.097-0.013,0.19-0.028,0.282H14v-0.728
		H11.043z"/>
	<path style="fill:#69929E;" d="M7.69,10.605H5.921c0.041,0.147,0.069,0.299,0.069,0.459c0,0.092-0.013,0.181-0.027,0.269h1.69
		c-0.015-0.092-0.028-0.186-0.028-0.282C7.625,10.896,7.652,10.748,7.69,10.605z"/>
</g>
</svg>
