<?xml version="1.0" encoding="utf-8"?>
<!-- Generator: Adobe Illustrator 18.1.1, SVG Export Plug-In . SVG Version: 6.00 Build 0)  -->
<!DOCTYPE svg PUBLIC "-//W3C//DTD SVG 1.1//EN" "http://www.w3.org/Graphics/SVG/1.1/DTD/svg11.dtd">
<svg version="1.1" id="Layer_1" xmlns="http://www.w3.org/2000/svg" xmlns:xlink="http://www.w3.org/1999/xlink" x="0px" y="0px"
	 viewBox="0 0 14 14" style="enable-background:new 0 0 14 14;" xml:space="preserve">
<g>
	<g>
		<path style="fill:#69929E;" d="M7.792,2.902l2.67,7.14h-1.63l-0.54-1.59h-2.67l-0.561,1.59H3.482l2.699-7.14H7.792z M7.882,7.281
			l-0.899-2.62H6.962l-0.93,2.62H7.882z"/>
	</g>
	<path style="fill:#69929E;" d="M7,0C3.14,0,0,3.14,0,7c0,3.86,3.14,7,7,7c3.86,0,7-3.14,7-7C14,3.14,10.86,0,7,0z M7,13.582
		c-3.629,0-6.582-2.953-6.582-6.582c0-3.629,2.953-6.582,6.582-6.582c3.629,0,6.582,2.953,6.582,6.582
		C13.582,10.629,10.629,13.582,7,13.582z"/>
</g>
</svg>
