<?xml version="1.0" encoding="iso-8859-1"?>
<!-- Generator: Adobe Illustrator 18.1.1, SVG Export Plug-In . SVG Version: 6.00 Build 0)  -->
<!DOCTYPE svg PUBLIC "-//W3C//DTD SVG 1.1//EN" "http://www.w3.org/Graphics/SVG/1.1/DTD/svg11.dtd">
<svg version="1.1" id="Layer_1" xmlns="http://www.w3.org/2000/svg" xmlns:xlink="http://www.w3.org/1999/xlink" x="0px" y="0px"
	 viewBox="0 0 16 16" style="enable-background:new 0 0 16 16;" xml:space="preserve">
<g>
	<g>
		<path style="fill-rule:evenodd;clip-rule:evenodd;fill:#05A4FF;" d="M11.553,7.964v3.587v0.317c0,0.348-0.403,0.63-0.897,0.63
			H5.549c-0.495,0-0.897-0.282-0.897-0.63v-0.317V7.964V6.387h6.902V7.964L11.553,7.964z M8.098,7.335
			c0.668,0,1.208,0.541,1.208,1.209c0,0.52-0.329,0.965-0.793,1.135v1.352c0,0.229-0.187,0.415-0.416,0.415l0,0
			c-0.229,0-0.415-0.186-0.415-0.415V9.68C7.221,9.51,6.89,9.065,6.89,8.545C6.89,7.876,7.431,7.335,8.098,7.335L8.098,7.335z"/>
		<path style="fill:#05A4FF;" d="M4.65,6.46V6.459h0.004c0-0.934,0.386-1.778,1.008-2.389c0.622-0.61,1.486-0.986,2.441-0.986V3.081
			l0,0l0,0v0.004c0.954,0,1.817,0.376,2.44,0.986c0.626,0.61,1.01,1.454,1.01,2.389h0.003V6.46h-1.158V6.459h0.002
			c-0.001-0.616-0.258-1.178-0.674-1.586c-0.417-0.408-0.99-0.661-1.622-0.661v0.002l0,0l0,0V4.211
			c-0.633,0-1.206,0.253-1.622,0.661c-0.415,0.408-0.673,0.97-0.673,1.586h0.001V6.46H4.65L4.65,6.46z"/>
	</g>
	<path style="fill:#05A4FF;" d="M8,1c3.86,0,7,3.14,7,7s-3.14,7-7,7s-7-3.14-7-7S4.14,1,8,1 M8,0C3.582,0,0,3.582,0,8s3.582,8,8,8
		s8-3.582,8-8S12.418,0,8,0L8,0z"/>
</g>
</svg>
