<?xml version="1.0" encoding="utf-8"?>
<!-- Generator: Adobe Illustrator 19.2.1, SVG Export Plug-In . SVG Version: 6.00 Build 0)  -->
<!DOCTYPE svg PUBLIC "-//W3C//DTD SVG 1.1//EN" "http://www.w3.org/Graphics/SVG/1.1/DTD/svg11.dtd">
<svg version="1.1" id="Layer_1" xmlns="http://www.w3.org/2000/svg" xmlns:xlink="http://www.w3.org/1999/xlink" x="0px" y="0px"
	 viewBox="0 0 60 21" style="enable-background:new 0 0 60 21;" xml:space="preserve">
<style type="text/css">
	.st0{fill:#FAFAFB;}
	.st1{fill:#CCCCCC;}
</style>
<g>
	<rect x="1" y="1" class="st0" width="58" height="19"/>
	<path class="st1" d="M0,0v21h60V0H0z M59,20H1V1h58V20z"/>
</g>
<g>
	<path class="st1" d="M19.4,14.5V5.9h1.1v7.6h4.2v1H19.4z"/>
	<path class="st1" d="M30,13.7c-0.4,0.3-0.8,0.6-1.1,0.7s-0.7,0.2-1.2,0.2c-0.7,0-1.2-0.2-1.6-0.5s-0.6-0.8-0.6-1.3
		c0-0.3,0.1-0.6,0.2-0.8s0.3-0.5,0.5-0.6s0.5-0.3,0.8-0.3c0.2-0.1,0.5-0.1,0.9-0.2c0.9-0.1,1.5-0.2,1.9-0.4c0-0.1,0-0.2,0-0.3
		c0-0.4-0.1-0.7-0.3-0.9C29.4,9.1,29,9,28.5,9s-0.9,0.1-1.1,0.3s-0.4,0.5-0.5,0.9l-1-0.1C26,9.7,26.1,9.3,26.4,9s0.5-0.5,0.9-0.6
		s0.9-0.2,1.4-0.2s1,0.1,1.3,0.2s0.6,0.3,0.7,0.5S31,9.3,31,9.6c0,0.2,0.1,0.5,0.1,1V12c0,1,0,1.6,0.1,1.9s0.1,0.5,0.3,0.7h-1.1
		C30.1,14.2,30.1,14,30,13.7z M30,11.3c-0.4,0.2-1,0.3-1.7,0.4c-0.4,0.1-0.7,0.1-0.9,0.2s-0.3,0.2-0.4,0.3s-0.1,0.3-0.1,0.5
		c0,0.3,0.1,0.5,0.3,0.7s0.5,0.3,0.9,0.3s0.8-0.1,1.1-0.3s0.5-0.4,0.7-0.7c0.1-0.2,0.2-0.6,0.2-1.1v-0.3H30z"/>
	<path class="st1" d="M32.2,12.6l1-0.2c0.1,0.4,0.2,0.7,0.5,1s0.6,0.3,1.1,0.3s0.8-0.1,1.1-0.3s0.4-0.4,0.4-0.7
		c0-0.2-0.1-0.4-0.3-0.6c-0.1-0.1-0.5-0.2-1.1-0.4c-0.8-0.2-1.3-0.4-1.6-0.5s-0.5-0.3-0.7-0.6s-0.2-0.5-0.2-0.8s0.1-0.5,0.2-0.8
		s0.3-0.4,0.5-0.6c0.2-0.1,0.4-0.2,0.7-0.3S34.4,8,34.7,8c0.5,0,0.9,0.1,1.3,0.2s0.6,0.3,0.8,0.6s0.3,0.6,0.4,1l-1,0.1
		c0-0.3-0.2-0.6-0.4-0.8S35.2,9,34.8,9c-0.5,0-0.8,0.1-1,0.2s-0.3,0.3-0.3,0.6c0,0.1,0,0.3,0.1,0.4c0.1,0.1,0.2,0.2,0.4,0.3
		c0.1,0,0.4,0.1,0.9,0.3c0.7,0.2,1.3,0.4,1.6,0.5s0.5,0.3,0.7,0.6s0.3,0.5,0.3,0.9s-0.1,0.7-0.3,1s-0.5,0.6-0.9,0.7
		s-0.8,0.3-1.3,0.3c-0.8,0-1.4-0.2-1.8-0.5S32.4,13.3,32.2,12.6z"/>
	<path class="st1" d="M41,13.5l0.2,0.9c-0.3,0.1-0.6,0.1-0.8,0.1c-0.4,0-0.7-0.1-0.9-0.2s-0.4-0.3-0.4-0.5S39,13.2,39,12.6V9.1h-0.8
		V8.2H39V6.7l1-0.6v2.2h1v0.8h-1.1v3.6c0,0.3,0,0.5,0.1,0.6s0.1,0.2,0.2,0.2s0.2,0.1,0.4,0.1C40.6,13.6,40.8,13.5,41,13.5z"/>
</g>
</svg>
