<?xml version="1.0" encoding="utf-8"?>
<!-- Generator: Adobe Illustrator 19.2.1, SVG Export Plug-In . SVG Version: 6.00 Build 0)  -->
<!DOCTYPE svg PUBLIC "-//W3C//DTD SVG 1.1//EN" "http://www.w3.org/Graphics/SVG/1.1/DTD/svg11.dtd">
<svg version="1.1" id="Layer_1" xmlns="http://www.w3.org/2000/svg" xmlns:xlink="http://www.w3.org/1999/xlink" x="0px" y="0px"
	 viewBox="0 0 74 21" style="enable-background:new 0 0 74 21;" xml:space="preserve">
<style type="text/css">
	.st0{fill:#FAFAFB;}
	.st1{fill:#CCCCCC;}
</style>
<g>
	<g>
		<rect x="1.1" y="1.1" class="st0" width="71.8" height="18.8"/>
		<path class="st1" d="M0,0v21h74V0H0z M72.9,19.9H1.1V1.1h71.8V19.9z"/>
	</g>
	<g>
		<path class="st1" d="M16.4,13.8V6h3c0.5,0,0.9,0,1.2,0.1c0.4,0.1,0.7,0.2,1,0.4s0.5,0.4,0.6,0.8c0.2,0.3,0.2,0.7,0.2,1.1
			c0,0.7-0.2,1.2-0.6,1.7s-1.2,0.7-2.3,0.7h-2V14h-1.1V13.8z M17.5,9.7h2c0.7,0,1.2-0.1,1.4-0.4c0.3-0.3,0.4-0.6,0.4-1.1
			c0-0.3-0.1-0.6-0.2-0.8C20.9,7.2,20.7,7,20.4,7c-0.2,0-0.5-0.1-1-0.1h-2v2.8H17.5z"/>
		<path class="st1" d="M23.6,13.8V8.1h0.9V9c0.2-0.4,0.4-0.7,0.6-0.8C25.3,8.1,25.5,8,25.7,8c0.3,0,0.7,0.1,1,0.3l-0.3,0.9
			C26.2,9.1,25.9,9,25.7,9c-0.2,0-0.4,0.1-0.6,0.2s-0.3,0.3-0.4,0.5c-0.1,0.3-0.2,0.7-0.2,1.1v3H23.6z"/>
		<path class="st1" d="M31.2,12l1,0.1c-0.2,0.6-0.4,1-0.9,1.4s-1,0.5-1.6,0.5c-0.8,0-1.5-0.3-2-0.8C27.3,12.7,27,12,27,11
			s0.2-1.7,0.7-2.2s1.2-0.8,2-0.8c0.8,0,1.4,0.3,1.9,0.8C32,9.3,32.3,10,32.3,11c0,0.1,0,0.1,0,0.3H28c0,0.6,0.2,1.1,0.5,1.4
			c0.3,0.3,0.7,0.5,1.2,0.5c0.4,0,0.7-0.1,0.9-0.3S31.1,12.4,31.2,12z M28.1,10.4h3.2c0-0.5-0.2-0.8-0.4-1.1
			c-0.3-0.4-0.7-0.6-1.2-0.6c-0.4,0-0.8,0.1-1.1,0.4C28.3,9.5,28.1,9.9,28.1,10.4z"/>
		<path class="st1" d="M35.1,13.8l-2.2-5.7h1l1.2,3.4c0.1,0.4,0.3,0.8,0.4,1.1c0.1-0.3,0.2-0.7,0.4-1.1L37.2,8h1L36,13.8H35.1z"/>
		<path class="st1" d="M39,7.1V6h1v1.1H39z M39,13.8V8.1h1v5.7H39z"/>
		<path class="st1" d="M41.1,11c0-1.1,0.3-1.8,0.9-2.3C42.5,8.2,43.1,8,43.8,8c0.8,0,1.4,0.3,1.9,0.8s0.7,1.2,0.7,2.1
			c0,0.7-0.1,1.3-0.3,1.7s-0.5,0.7-1,1c-0.4,0.2-0.9,0.3-1.4,0.3c-0.8,0-1.4-0.3-1.9-0.8C41.4,12.7,41.1,11.9,41.1,11z M42.1,11
			c0,0.7,0.2,1.3,0.5,1.6s0.7,0.5,1.2,0.5s0.9-0.2,1.2-0.5s0.5-0.9,0.5-1.7c0-0.7-0.2-1.2-0.5-1.6c-0.3-0.4-0.7-0.5-1.2-0.5
			S42.9,9,42.6,9.3S42.1,10.3,42.1,11z"/>
		<path class="st1" d="M51.3,13.8V13c-0.4,0.6-1,1-1.8,1c-0.3,0-0.7-0.1-0.9-0.2c-0.3-0.1-0.5-0.3-0.7-0.5c-0.1-0.2-0.2-0.4-0.3-0.7
			c0-0.2-0.1-0.5-0.1-0.9V8.1h1v3.2c0,0.5,0,0.8,0.1,1c0.1,0.3,0.2,0.5,0.4,0.6s0.4,0.2,0.7,0.2s0.6-0.1,0.8-0.2s0.4-0.4,0.5-0.6
			c0.1-0.3,0.2-0.6,0.2-1.1V8.1h1v5.7H51.3z"/>
		<path class="st1" d="M53.4,12.1l1-0.2c0.1,0.4,0.2,0.7,0.4,0.9s0.6,0.3,1,0.3s0.8-0.1,1-0.3s0.3-0.4,0.3-0.6
			c0-0.2-0.1-0.4-0.3-0.5c-0.1-0.1-0.5-0.2-1-0.3c-0.7-0.2-1.2-0.3-1.5-0.5c-0.3-0.1-0.5-0.3-0.6-0.5s-0.2-0.5-0.2-0.8
			s0.1-0.5,0.2-0.7c0.1-0.2,0.3-0.4,0.5-0.5s0.4-0.2,0.6-0.3C55,8,55.3,8,55.6,8c0.4,0,0.8,0.1,1.2,0.2c0.3,0.1,0.6,0.3,0.7,0.5
			c0.2,0.2,0.3,0.5,0.3,0.9l-0.9,0.1c0-0.3-0.2-0.5-0.4-0.7S56,8.8,55.6,8.8s-0.8,0.1-1,0.2c-0.2,0.1-0.3,0.3-0.3,0.5
			c0,0.1,0,0.2,0.1,0.3s0.2,0.2,0.4,0.3c0.1,0,0.4,0.1,0.9,0.2c0.7,0.2,1.2,0.3,1.4,0.4c0.3,0.1,0.5,0.3,0.6,0.5s0.2,0.5,0.2,0.8
			s-0.1,0.6-0.3,0.9c-0.2,0.3-0.5,0.5-0.8,0.7c-0.4,0.2-0.8,0.2-1.2,0.2c-0.7,0-1.3-0.2-1.7-0.5C53.7,13.2,53.5,12.7,53.4,12.1z"/>
	</g>
</g>
</svg>
