<?xml version="1.0" encoding="utf-8"?>
<!-- Generator: Adobe Illustrator 19.2.1, SVG Export Plug-In . SVG Version: 6.00 Build 0)  -->
<!DOCTYPE svg PUBLIC "-//W3C//DTD SVG 1.1//EN" "http://www.w3.org/Graphics/SVG/1.1/DTD/svg11.dtd">
<svg version="1.1" id="Layer_1" xmlns="http://www.w3.org/2000/svg" xmlns:xlink="http://www.w3.org/1999/xlink" x="0px" y="0px"
	 viewBox="0 0 60 21" style="enable-background:new 0 0 60 21;" xml:space="preserve">
<style type="text/css">
	.st0{fill:#FFFFFF;}
	.st1{fill:#96A5AA;}
	.st2{fill:#0099FF;}
</style>
<g>
	<rect x="1" y="1" class="st0" width="58" height="19"/>
	<path class="st1" d="M0,0v21h60V0H0z M59,20H1V1h58V20z"/>
</g>
<g>
	<path class="st2" d="M18.4,14.5V5.9h1.2l4.5,6.7V5.9h1.1v8.6H24l-4.5-6.8v6.8H18.4z"/>
	<path class="st2" d="M31.2,12.5l1.1,0.1c-0.2,0.6-0.5,1.1-1,1.5s-1.1,0.5-1.8,0.5c-0.9,0-1.6-0.3-2.2-0.8s-0.8-1.3-0.8-2.4
		c0-1,0.3-1.9,0.8-2.4s1.2-0.9,2.1-0.9c0.8,0,1.5,0.3,2,0.8s0.8,1.4,0.8,2.4c0,0.1,0,0.2,0,0.3h-4.6c0,0.7,0.2,1.2,0.6,1.6
		s0.8,0.5,1.3,0.5c0.4,0,0.7-0.1,1-0.3S31.1,12.9,31.2,12.5z M27.8,10.7h3.5c0-0.5-0.2-0.9-0.4-1.2C30.5,9.2,30.1,9,29.5,9
		c-0.5,0-0.9,0.2-1.2,0.5S27.8,10.2,27.8,10.7z"/>
	<path class="st2" d="M32.9,14.5l2.3-3.2l-2.1-3h1.3l1,1.5c0.2,0.3,0.3,0.5,0.4,0.7c0.2-0.3,0.3-0.5,0.5-0.7l1-1.5h1.3l-2.2,2.9
		l2.3,3.3h-1.3l-1.3-1.9L35.9,12l-1.6,2.5H32.9z"/>
	<path class="st2" d="M42,13.5l0.2,0.9c-0.3,0.1-0.6,0.1-0.8,0.1c-0.4,0-0.7-0.1-0.9-0.2s-0.4-0.3-0.4-0.5s-0.1-0.6-0.1-1.2V9.1
		h-0.8V8.2h0.8V6.7l1-0.6v2.2H42v0.8h-1.1v3.6c0,0.3,0,0.5,0.1,0.6s0.1,0.2,0.2,0.2s0.2,0.1,0.4,0.1C41.6,13.6,41.8,13.5,42,13.5z"
		/>
</g>
</svg>
