<?xml version="1.0" encoding="utf-8"?>
<!-- Generator: Adobe Illustrator 19.2.1, SVG Export Plug-In . SVG Version: 6.00 Build 0)  -->
<!DOCTYPE svg PUBLIC "-//W3C//DTD SVG 1.1//EN" "http://www.w3.org/Graphics/SVG/1.1/DTD/svg11.dtd">
<svg version="1.1" id="Layer_1" xmlns="http://www.w3.org/2000/svg" xmlns:xlink="http://www.w3.org/1999/xlink" x="0px" y="0px"
	 viewBox="0 0 60 21" style="enable-background:new 0 0 60 21;" xml:space="preserve">
<style type="text/css">
	.st0{fill:#FFFFFF;}
	.st1{fill:#96A5AA;}
	.st2{fill:#0099FF;}
</style>
<g>
	<g>
		<rect x="1" y="1" class="st0" width="58" height="19"/>
		<path class="st1" d="M0,0v21h60V0H0z M59,20H1V1h58V20z"/>
	</g>
	<g>
		<path class="st2" d="M20.5,13.8V6h5.3v0.9h-4.3v2.4h3.7v0.9h-3.7v3.6H20.5z"/>
		<path class="st2" d="M27.1,7.1V6h1v1.1H27.1z M27.1,13.8V8.1h1v5.7H27.1z"/>
		<path class="st2" d="M29.5,13.8V8.1h0.9V9c0.2-0.4,0.4-0.7,0.6-0.8C31.2,8.1,31.4,8,31.7,8c0.3,0,0.7,0.1,1,0.3l-0.3,0.9
			C32.1,9.1,31.8,9,31.6,9c-0.2,0-0.4,0.1-0.6,0.2s-0.3,0.3-0.4,0.5c-0.1,0.3-0.2,0.7-0.2,1.1v3H29.5z"/>
		<path class="st2" d="M32.9,12.1l1-0.2c0.1,0.4,0.2,0.7,0.4,0.9c0.2,0.2,0.6,0.3,1,0.3c0.4,0,0.8-0.1,1-0.3s0.3-0.4,0.3-0.6
			c0-0.2-0.1-0.4-0.3-0.5c-0.1-0.1-0.5-0.2-1-0.3c-0.7-0.2-1.2-0.3-1.5-0.5c-0.3-0.1-0.5-0.3-0.6-0.5C33.1,10.2,33,9.9,33,9.6
			c0-0.3,0.1-0.5,0.2-0.7c0.1-0.2,0.3-0.4,0.5-0.5c0.2-0.1,0.4-0.2,0.6-0.3C34.5,8,34.8,8,35.1,8c0.4,0,0.8,0.1,1.2,0.2
			c0.3,0.1,0.6,0.3,0.7,0.5c0.2,0.2,0.3,0.5,0.3,0.9l-0.9,0.1c0-0.3-0.2-0.5-0.4-0.7c-0.2-0.2-0.5-0.2-0.9-0.2c-0.4,0-0.8,0.1-1,0.2
			C34,9.2,34,9.3,34,9.5c0,0.1,0,0.2,0.1,0.3c0.1,0.1,0.2,0.2,0.4,0.3c0.1,0,0.4,0.1,0.9,0.2c0.7,0.2,1.2,0.3,1.4,0.4
			c0.3,0.1,0.5,0.3,0.6,0.5s0.2,0.5,0.2,0.8c0,0.3-0.1,0.6-0.3,0.9c-0.2,0.3-0.5,0.5-0.8,0.7c-0.4,0.2-0.8,0.2-1.2,0.2
			c-0.7,0-1.3-0.2-1.7-0.5C33.2,13.2,33,12.7,32.9,12.1z"/>
		<path class="st2" d="M40.9,13l0.1,0.9c-0.3,0.1-0.5,0.1-0.7,0.1c-0.4,0-0.6-0.1-0.8-0.2c-0.2-0.1-0.3-0.3-0.4-0.4
			s-0.1-0.6-0.1-1.1V8.9h-0.7V8.1h0.7V6.7l1-0.6v2h1v0.8h-1v3.3c0,0.3,0,0.5,0.1,0.5c0,0.1,0.1,0.1,0.2,0.2c0.1,0,0.2,0.1,0.3,0.1
			C40.6,13,40.7,13,40.9,13z"/>
	</g>
</g>
</svg>
