<svg id="Layer_1" data-name="Layer 1" xmlns="http://www.w3.org/2000/svg" xmlns:xlink="http://www.w3.org/1999/xlink" viewBox="0 0 160 90"><defs><style>.cls-1{fill:#f5f5f5;}.cls-2{fill:url(#linear-gradient);}.cls-3{opacity:0.6;fill:url(#linear-gradient-2);}.cls-10,.cls-12,.cls-3,.cls-6,.cls-8,.cls-9{isolation:isolate;}.cls-4{fill:url(#linear-gradient-3);}.cls-5{fill:url(#linear-gradient-4);}.cls-6,.cls-8{opacity:0.5;}.cls-6{fill:url(#linear-gradient-5);}.cls-7{fill:url(#linear-gradient-6);}.cls-8{fill:url(#linear-gradient-7);}.cls-9{opacity:0.25;fill:url(#linear-gradient-8);}.cls-10{opacity:0.7;fill:url(#linear-gradient-9);}.cls-11{fill:url(#linear-gradient-10);}.cls-12{opacity:0.71;fill:url(#linear-gradient-11);}</style><linearGradient id="linear-gradient" x1="-1028.74" y1="-823.3" x2="-1027.47" y2="-822.02" gradientTransform="translate(9366.71 20705.73) scale(9.06 25.11)" gradientUnits="userSpaceOnUse"><stop offset="0" stop-color="#8be8fb"/><stop offset="1" stop-color="#09f" stop-opacity="0.5"/></linearGradient><linearGradient id="linear-gradient-2" x1="-1127.16" y1="-804.5" x2="-1125.88" y2="-803.22" gradientTransform="translate(39010.52 12873.38) scale(34.57 15.93)" xlink:href="#linear-gradient"/><linearGradient id="linear-gradient-3" x1="-1117.33" y1="-839.92" x2="-1116.06" y2="-838.64" gradientTransform="translate(30489.54 43836.35) scale(27.22 52.19)" xlink:href="#linear-gradient"/><linearGradient id="linear-gradient-4" x1="-1042.54" y1="-746.59" x2="-1041.26" y2="-745.31" gradientTransform="translate(10632.93 5485.06) scale(10.13 7.33)" xlink:href="#linear-gradient"/><linearGradient id="linear-gradient-5" x1="-1057.46" y1="-792.9" x2="-1056.18" y2="-791.62" gradientTransform="translate(12254.27 10195.72) scale(11.54 12.83)" xlink:href="#linear-gradient"/><linearGradient id="linear-gradient-6" x1="-1032.61" y1="-764.14" x2="-1031.34" y2="-762.86" gradientTransform="translate(9694.36 6707.45) scale(9.33 8.76)" xlink:href="#linear-gradient"/><linearGradient id="linear-gradient-7" x1="-992.73" y1="-814.73" x2="-991.46" y2="-813.45" gradientTransform="translate(7140.56 16155.96) scale(7.14 19.79)" xlink:href="#linear-gradient"/><linearGradient id="linear-gradient-8" x1="-1131.59" y1="-836.51" x2="-1130.31" y2="-835.23" gradientTransform="translate(44993.41 36091.21) scale(39.71 43.12)" xlink:href="#linear-gradient"/><linearGradient id="linear-gradient-9" x1="-1010.58" y1="-717.52" x2="-1009.3" y2="-716.25" gradientTransform="translate(8151.63 4161.9) scale(8 5.78)" xlink:href="#linear-gradient"/><linearGradient id="linear-gradient-10" x1="-1028.86" y1="-776.63" x2="-1027.58" y2="-775.35" gradientTransform="translate(9415.39 7874.11) scale(9.1 10.11)" xlink:href="#linear-gradient"/><linearGradient id="linear-gradient-11" x1="-997.49" y1="-739.5" x2="-996.21" y2="-738.22" gradientTransform="translate(7398.86 5125.62) scale(7.35 6.9)" xlink:href="#linear-gradient"/></defs><title>icon_image1</title><rect class="cls-1" width="160" height="90"/><g id="Dashboard-Empty-Screen"><g id="Group-2"><path id="Fill-1" class="cls-2" d="M54.67,34.33l-6.82-2.88a35.16,35.16,0,0,0,2.56,32.12l6.28-4a27.68,27.68,0,0,1-2-25.3Z"/><path id="Fill-3" class="cls-3" d="M80,72.56A27.42,27.42,0,0,1,56.71,59.63l-6.3,3.94A34.78,34.78,0,0,0,94.64,76.75L91.52,70A27.23,27.23,0,0,1,80,72.56"/><path id="Fill-5" class="cls-4" d="M114.87,45A34.87,34.87,0,0,0,80.09,10h0v7.43A27.57,27.57,0,0,1,91.59,70l3.09,6.75A35,35,0,0,0,114.87,45"/><path id="Fill-8" class="cls-5" d="M67.11,12.48l2.74,6.9a26.14,26.14,0,0,1,10.23-1.94V10a35.7,35.7,0,0,0-13,2.47"/><path id="Fill-11" class="cls-6" d="M57.91,17.92A35.12,35.12,0,0,0,47.85,31.45l6.83,2.88a27.64,27.64,0,0,1,7.93-10.65Z"/><path id="Fill-13" class="cls-7" d="M69.85,19.38l-2.74-6.9a35,35,0,0,0-9.2,5.44l4.7,5.76a27.64,27.64,0,0,1,7.25-4.29"/><path id="Fill-15" class="cls-8" d="M58.36,45a21.8,21.8,0,0,1,1.69-8.4l-5.38-2.27a27.73,27.73,0,0,0,2,25.31l4.95-3.11A21.78,21.78,0,0,1,58.36,45"/><path id="Fill-17" class="cls-9" d="M80.08,17.43v5.85A21.74,21.74,0,1,1,61.66,56.53l-4.95,3.11A27.4,27.4,0,0,0,80,72.58c17.9,0,27.51-15,27.51-27.57A27.54,27.54,0,0,0,80.08,17.43"/><path id="Fill-19" class="cls-10" d="M69.85,19.37,72,24.82a22.77,22.77,0,0,1,8.07-1.54V17.43a27.59,27.59,0,0,0-10.23,1.94"/><path id="Fill-21" class="cls-11" d="M66.29,28.16l-3.7-4.54a27.62,27.62,0,0,0-7.94,10.66L60,36.54a21.65,21.65,0,0,1,6.25-8.38"/><path id="Fill-23" class="cls-12" d="M72,24.82l-2.14-5.45a27.46,27.46,0,0,0-7.26,4.3l3.7,4.49A21.36,21.36,0,0,1,72,24.78"/></g></g></svg>