<?xml version="1.0" encoding="iso-8859-1"?>
<!-- Generator: Adobe Illustrator 18.1.1, SVG Export Plug-In . SVG Version: 6.00 Build 0)  -->
<!DOCTYPE svg PUBLIC "-//W3C//DTD SVG 1.1//EN" "http://www.w3.org/Graphics/SVG/1.1/DTD/svg11.dtd">
<svg version="1.1" id="Layer_1" xmlns="http://www.w3.org/2000/svg" xmlns:xlink="http://www.w3.org/1999/xlink" x="0px" y="0px"
	 viewBox="0 0 18 18" style="enable-background:new 0 0 18 18;" xml:space="preserve">
<g>
	<g>
		<path style="fill:#FF6600;" d="M8.999,12.202c-0.565,0-1.025,0.45-1.025,1.004c0,0.553,0.46,1.004,1.025,1.004
			c0.569,0,1.028-0.45,1.028-1.004C10.027,12.652,9.568,12.202,8.999,12.202z"/>
		<path style="fill:#FF6600;" d="M8.998,5.791C8.172,5.791,7.5,6.449,7.5,7.257l0.982,3.962h1.036L10.5,7.257
			C10.5,6.449,9.83,5.791,8.998,5.791z"/>
	</g>
	<g id="Layer_2_3_">
		<g>
			<path style="fill:#FF6600;" d="M14.979,18H3.02c-0.962,0-1.803-0.504-2.367-1.418c-0.803-1.302-0.874-3.106-0.166-4.195
				L6.597,1.36C7.365,0.17,8.337,0,8.851,0c0.966,0,1.884,0.562,2.519,1.54l6.167,10.77c0.768,1.183,0.499,3.117-0.218,4.279
				C16.757,17.499,15.926,18,14.979,18z M8.851,1.839c-0.15,0-0.339,0.153-0.505,0.409L2.235,13.276
				c-0.33,0.513-0.313,1.637,0.157,2.399c0.112,0.181,0.343,0.486,0.628,0.486h11.959c0.266,0,0.491-0.301,0.602-0.48
				c0.49-0.795,0.518-2.002,0.214-2.471L9.627,2.44C9.365,2.038,9.043,1.839,8.851,1.839z"/>
		</g>
	</g>
</g>
</svg>
