<?xml version="1.0" encoding="utf-8"?>
<!-- Generator: Adobe Illustrator 18.1.1, SVG Export Plug-In . SVG Version: 6.00 Build 0)  -->
<!DOCTYPE svg PUBLIC "-//W3C//DTD SVG 1.1//EN" "http://www.w3.org/Graphics/SVG/1.1/DTD/svg11.dtd">
<svg version="1.1" id="Layer_1" xmlns="http://www.w3.org/2000/svg" xmlns:xlink="http://www.w3.org/1999/xlink" x="0px" y="0px"
	 viewBox="0 0 14 14" style="enable-background:new 0 0 14 14;" xml:space="preserve">
<g>
	<path style="fill:#69929E;" d="M10.665,5.058V4.017c0-1.942-1.576-3.517-3.517-3.517c-1.788,0-3.267,1.337-3.489,3.065
		C3.645,3.674,3.636,4.544,3.632,5.058H2.276V13.5h9.446V5.058H10.665z M7.148,9.969c-0.583,0-1.055-0.473-1.055-1.055
		c0-0.583,0.473-1.055,1.055-1.055s1.055,0.473,1.055,1.055C8.202,9.496,7.731,9.969,7.148,9.969z M9.328,5.058H4.97
		c0.006-0.511,0.02-1.372,0.04-1.476c0.202-0.995,1.084-1.746,2.138-1.746c1.202,0,2.18,0.978,2.18,2.18V5.058z"/>
</g>
</svg>
