<?xml version="1.0" encoding="utf-8"?>
<!-- Generator: Adobe Illustrator 19.1.0, SVG Export Plug-In . SVG Version: 6.00 Build 0)  -->
<!DOCTYPE svg PUBLIC "-//W3C//DTD SVG 1.1//EN" "http://www.w3.org/Graphics/SVG/1.1/DTD/svg11.dtd">
<svg version="1.1" id="Layer_1" xmlns="http://www.w3.org/2000/svg" xmlns:xlink="http://www.w3.org/1999/xlink" x="0px" y="0px"
	 viewBox="0 0 18 18" style="enable-background:new 0 0 18 18;" xml:space="preserve">
<style type="text/css">
	.st0{fill:none;}
	.st1{fill:#444444;}
</style>
<g>
	<path class="st0" d="M3.8,3h7.8v0.9H3.8V3z M3.8,6.7V5.7h7.8v0.9H3.8z"/>
	<polygon class="st1" points="1,15.6 1,0.9 14.1,0.9 14.1,7.2 15.1,7.2 15.1,0 0,0 0,16.5 9.1,16.5 9.1,15.6 	"/>
	<rect x="3.8" y="3" class="st1" width="7.8" height="0.9"/>
	<rect x="3.8" y="5.7" class="st1" width="7.8" height="0.9"/>
	<path class="st1" d="M17.6,11.7h-0.8v-1.3v-0.1h0c0-1-0.7-1.9-1.6-2.3c-0.3-0.1-0.6-0.2-1-0.2c0,0-0.1,0-0.1,0
		c-1.4,0-2.5,1-2.7,2.2c0.3,0,0.7,0,1,0c0.1-0.5,0.5-1.2,1.6-1.2c0,0,0.1,0,0.1,0c0.4,0,0.7,0.1,1,0.3c0.7,0.5,0.6,1.6,0.6,1.6v1
		h-0.6h-1h-1.8h-1h-0.8c-0.2,0-0.4,0.2-0.4,0.4v3.5v0.9v1c0,0.2,0.2,0.4,0.4,0.4h7.1c0.2,0,0.4-0.2,0.4-0.4v-5.4
		C18,11.9,17.8,11.7,17.6,11.7z"/>
</g>
</svg>
