<?xml version="1.0" encoding="utf-8"?>
<!-- Generator: Adobe Illustrator 18.1.1, SVG Export Plug-In . SVG Version: 6.00 Build 0)  -->
<!DOCTYPE svg PUBLIC "-//W3C//DTD SVG 1.1//EN" "http://www.w3.org/Graphics/SVG/1.1/DTD/svg11.dtd">
<svg version="1.1" id="Layer_1" xmlns="http://www.w3.org/2000/svg" xmlns:xlink="http://www.w3.org/1999/xlink" x="0px" y="0px"
	 viewBox="0 0 14 14" style="enable-background:new 0 0 14 14;" xml:space="preserve">
<g>
	<g>
		<path style="fill:#444444;" d="M7,14"/>
	</g>
</g>
<path style="fill:#444444;" d="M7,14"/>
<path style="fill:#CCCCCC;" d="M7,0C3.14,0,0,3.14,0,7s3.14,7,7,7s7-3.14,7-7S10.86,0,7,0z M7,13.582
	c-3.629,0-6.582-2.953-6.582-6.582S3.371,0.418,7,0.418S13.582,3.371,13.582,7S10.629,13.582,7,13.582z"/>
<rect x="2.031" y="5.861" style="fill:#CCCCCC;" width="10.187" height="0.849"/>
<g>
	<rect x="6.689" y="2.872" style="fill:#CCCCCC;" width="0.6" height="3"/>
	<polygon style="fill:#CCCCCC;" points="8.03,3.674 6.03,3.674 7.03,1.674 	"/>
</g>
<g>
	<rect x="3.392" y="7.959" style="fill:#CCCCCC;" width="0.6" height="2.694"/>
	<polygon style="fill:#CCCCCC;" points="4.733,8.767 2.733,8.767 3.733,6.767 	"/>
</g>
<g>
	<rect x="6.673" y="7.903" style="fill:#CCCCCC;" width="0.6" height="2.694"/>
	<polygon style="fill:#CCCCCC;" points="8.014,8.705 6.014,8.705 7.014,6.705 	"/>
</g>
<g>
	<rect x="9.954" y="7.959" style="fill:#CCCCCC;" width="0.6" height="2.694"/>
	<polygon style="fill:#CCCCCC;" points="11.295,8.767 9.295,8.767 10.295,6.767 	"/>
</g>
</svg>
