<?xml version="1.0" encoding="utf-8"?>
<!-- Generator: Adobe Illustrator 18.1.1, SVG Export Plug-In . SVG Version: 6.00 Build 0)  -->
<!DOCTYPE svg PUBLIC "-//W3C//DTD SVG 1.1//EN" "http://www.w3.org/Graphics/SVG/1.1/DTD/svg11.dtd">
<svg version="1.1" id="Layer_1" xmlns="http://www.w3.org/2000/svg" xmlns:xlink="http://www.w3.org/1999/xlink" x="0px" y="0px"
	 viewBox="0 0 14 14" style="enable-background:new 0 0 14 14;" xml:space="preserve">
<g>
	<path style="fill:#444444;" d="M10.947,4.909V3.788C10.947,1.697,9.25,0,7.159,0C5.233,0,3.641,1.44,3.402,3.301
		C3.387,3.418,3.377,4.355,3.373,4.909h-1.46V14h10.173V4.909H10.947z M7.159,10.197c-0.628,0-1.136-0.509-1.136-1.136
		c0-0.628,0.509-1.136,1.136-1.136s1.136,0.509,1.136,1.136C8.295,9.688,7.787,10.197,7.159,10.197z M9.507,4.909H4.814
		C4.82,4.359,4.835,3.431,4.857,3.32c0.218-1.072,1.167-1.88,2.302-1.88c1.295,0,2.348,1.053,2.348,2.348V4.909z"/>
</g>
</svg>
