<?xml version="1.0" encoding="iso-8859-1"?>
<!-- Generator: Adobe Illustrator 18.1.1, SVG Export Plug-In . SVG Version: 6.00 Build 0)  -->
<!DOCTYPE svg PUBLIC "-//W3C//DTD SVG 1.1//EN" "http://www.w3.org/Graphics/SVG/1.1/DTD/svg11.dtd">
<svg version="1.1" id="Layer_1" xmlns="http://www.w3.org/2000/svg" xmlns:xlink="http://www.w3.org/1999/xlink" x="0px" y="0px"
	 viewBox="0 0 18 18" style="enable-background:new 0 0 18 18;" xml:space="preserve">
<g>
	<g>
		<path style="fill:#444444;" d="M9,18c-5,0-9-4-9-9s4-9,9-9s9,4,9,9S14,18,9,18z M9,1C4.6,1,1,4.6,1,9s3.6,8,8,8s8-3.6,8-8
			S13.4,1,9,1z"/>
	</g>
	<path style="fill-rule:evenodd;clip-rule:evenodd;fill:#444444;" d="M13.568,7.075c0.358,0.316,0.392,0.863,0.076,1.221
		c-0.366,0.415-1.041,0.394-1.376-0.099c-0.169-0.249-0.19-0.586-0.052-0.854C12.488,6.811,13.154,6.71,13.568,7.075 M14.345,6.194
		c-1.132-0.999-2.861-0.892-3.86,0.24C9.71,7.313,9.602,8.55,10.12,9.527l-2.178,2.468l-1.671,1.892l0.003,1.29
		c0.04,0.145,0.138,0.181,0.21,0.173l1.241-0.18l0.697-0.79l-0.037-0.593l0.476,0.096l0.535-0.606l0.143-0.162l-0.189-0.562
		l0.581,0.118l0.51-0.578L10.377,11.1l0.735,0.649l0.752-0.854c0.961,0.243,2.021-0.047,2.721-0.841
		C15.586,8.922,15.478,7.193,14.345,6.194"/>
	<g>
		<polygon style="fill:#444444;" points="6.203,2.917 4.203,6.799 5.534,6.799 5.534,11.21 6.871,11.21 6.871,6.799 8.203,6.799 		
			"/>
	</g>
</g>
</svg>

