<?xml version="1.0" encoding="utf-8"?>
<!-- Generator: Adobe Illustrator 19.1.0, SVG Export Plug-In . SVG Version: 6.00 Build 0)  -->
<!DOCTYPE svg PUBLIC "-//W3C//DTD SVG 1.1//EN" "http://www.w3.org/Graphics/SVG/1.1/DTD/svg11.dtd">
<svg version="1.1" id="Layer_1" xmlns="http://www.w3.org/2000/svg" xmlns:xlink="http://www.w3.org/1999/xlink" x="0px" y="0px"
	 viewBox="0 0 18 18" style="enable-background:new 0 0 18 18;" xml:space="preserve">
<style type="text/css">
	.st0{fill:#CCCCCC;}
	.st1{font-family:'ArialMT';}
	.st2{font-size:7px;}
</style>
<g>
	<g>
		<path class="st0" d="M10.5,15.4c-0.6,0.1-1.2,0.2-1.8,0.2c-4.1,0-7.4-3.3-7.4-7.4s3.3-7.4,7.4-7.4s7.4,3.3,7.4,7.4
			c0,1-0.2,2-0.6,2.9c0.3,0.1,0.6,0.2,0.8,0.4c0.4-1,0.7-2.1,0.7-3.3c0-4.6-3.7-8.3-8.3-8.3S0.4,3.6,0.4,8.2s3.7,8.3,8.3,8.3
			c0.7,0,1.3-0.1,1.9-0.2l-0.1-0.8L10.5,15.4z"/>
	</g>
	<g>
		<path class="st0" d="M12,15.1c0-1.4,1.1-2.5,2.5-2.5c0.6,0,1.2,0.3,1.6,0.7l-0.7,0.7l2,0.6l-0.4-2.2l-0.6,0.6
			c-0.5-0.5-1.2-0.8-2-0.8c-1.6,0-3,1.3-3,3L12,15.1z"/>
	</g>
	<g>
		<path class="st0" d="M17.1,15.1c0,1.4-1.1,2.5-2.5,2.5c-0.6,0-1.2-0.3-1.6-0.7l0.7-0.7l-2-0.6l0.4,2.2l0.6-0.6
			c0.5,0.5,1.2,0.8,2,0.8c1.6,0,3-1.3,3-3L17.1,15.1z"/>
	</g>
</g>
<text transform="matrix(1 0 0 1 4.2554 10.7588)" class="st0 st1 st2">SD</text>
</svg>
