<?xml version="1.0" encoding="utf-8"?>
<!-- Generator: Adobe Illustrator 18.1.1, SVG Export Plug-In . SVG Version: 6.00 Build 0)  -->
<!DOCTYPE svg PUBLIC "-//W3C//DTD SVG 1.1//EN" "http://www.w3.org/Graphics/SVG/1.1/DTD/svg11.dtd">
<svg version="1.1" id="Layer_1" xmlns="http://www.w3.org/2000/svg" xmlns:xlink="http://www.w3.org/1999/xlink" x="0px" y="0px"
	 viewBox="0 0 14 14" style="enable-background:new 0 0 14 14;" xml:space="preserve">
<g>
	<path style="fill:none;" d="M6.825,5.552H6.417v1.344h0.408c0.168,0,0.306-0.059,0.414-0.176c0.108-0.118,0.162-0.29,0.162-0.518
		c0-0.227-0.054-0.392-0.162-0.495S6.993,5.552,6.825,5.552z"/>
	<path style="fill:none;" d="M7,0.418C3.371,0.418,0.418,3.371,0.418,7S3.371,13.582,7,13.582S13.582,10.629,13.582,7
		S10.629,0.418,7,0.418z M4.203,9.188H3.291L2.253,4.94h0.805l0.708,3.408h0.018L4.491,4.94H5.26L4.203,9.188z M7.981,6.761
		c-0.065,0.162-0.152,0.297-0.26,0.404C7.614,7.274,7.49,7.354,7.35,7.406C7.211,7.458,7.068,7.484,6.92,7.484H6.417v1.704H5.709
		V4.94h1.174c0.135,0,0.274,0.021,0.419,0.06c0.144,0.04,0.271,0.109,0.386,0.207c0.113,0.099,0.207,0.228,0.281,0.388
		c0.073,0.16,0.11,0.359,0.11,0.6C8.079,6.409,8.047,6.599,7.981,6.761z M11.331,9.188h-0.792l-1.206-3H9.316l0.012,3H8.679V4.94
		h0.822l1.194,3.018h0.018L10.707,4.94h0.624V9.188z"/>
	<g>
		<polygon style="fill:#CCCCCC;" points="3.783,8.348 3.766,8.348 3.058,4.94 2.253,4.94 3.291,9.188 4.203,9.188 5.26,4.94 
			4.491,4.94 		"/>
		<path style="fill:#CCCCCC;" d="M7.688,5.206C7.573,5.109,7.446,5.039,7.302,4.999C7.157,4.96,7.018,4.94,6.883,4.94H5.709v4.248
			h0.708V7.484H6.92c0.147,0,0.291-0.025,0.43-0.078c0.14-0.052,0.264-0.132,0.371-0.24c0.107-0.107,0.194-0.242,0.26-0.404
			c0.066-0.162,0.099-0.352,0.099-0.567c0-0.24-0.037-0.439-0.11-0.6C7.895,5.434,7.801,5.305,7.688,5.206z M7.24,6.72
			C7.131,6.837,6.993,6.896,6.825,6.896H6.417V5.552h0.408c0.168,0,0.306,0.052,0.414,0.155s0.162,0.269,0.162,0.495
			C7.402,6.43,7.348,6.602,7.24,6.72z"/>
		<polygon style="fill:#CCCCCC;" points="10.713,7.957 10.696,7.957 9.501,4.94 8.679,4.94 8.679,9.188 9.327,9.188 9.316,6.188 
			9.333,6.188 10.539,9.188 11.331,9.188 11.331,4.94 10.707,4.94 		"/>
		<path style="fill:#CCCCCC;" d="M7,0C3.14,0,0,3.14,0,7s3.14,7,7,7c3.86,0,7-3.14,7-7S10.86,0,7,0z M7,13.582
			c-3.629,0-6.582-2.953-6.582-6.582S3.371,0.418,7,0.418S13.582,3.371,13.582,7S10.629,13.582,7,13.582z"/>
	</g>
</g>
</svg>
