<?xml version="1.0" encoding="utf-8"?>
<!-- Generator: Adobe Illustrator 18.1.1, SVG Export Plug-In . SVG Version: 6.00 Build 0)  -->
<!DOCTYPE svg PUBLIC "-//W3C//DTD SVG 1.1//EN" "http://www.w3.org/Graphics/SVG/1.1/DTD/svg11.dtd">
<svg version="1.1" id="Layer_1" xmlns="http://www.w3.org/2000/svg" xmlns:xlink="http://www.w3.org/1999/xlink" x="0px" y="0px"
	 viewBox="0 0 14 14" style="enable-background:new 0 0 14 14;" xml:space="preserve">
<g>
	<g>
		<g>
			<path style="fill:#0099FF;" d="M10.812,6.386c-0.742-0.655-1.6-1.083-2.557-1.276C8.886,4.72,9.302,4.03,9.302,3.32
				C9.25,2.121,8.323,1.216,7.145,1.216c-1.183,0-2.109,0.926-2.109,2.109c0,0.735,0.409,1.417,1.047,1.793
				C4.972,5.385,3.145,6.214,3.145,7.107v2.109h8V7.107C11.145,6.767,10.94,6.512,10.812,6.386z"/>
		</g>
		<path style="fill:#FFFFFF;" d="M3.931,6.953c0.881-0.835,1.992-1.276,3.214-1.276c1.203,0,2.327,0.436,3.162,1.225
			c0.041,0.041,0.11,0.11,0.11,0.205v1.43H3.823V7.156C3.823,7.032,3.912,6.967,3.931,6.953z"/>
		<circle style="fill:#FFFFFF;" cx="7.144" cy="3.325" r="1.382"/>
	</g>
	<g>
		<rect x="0.25" y="8.034" style="fill:#FFFFFF;" width="13.5" height="4.499"/>
		<path style="fill:#0099FF;" d="M13.5,8.284v4h-13v-4H13.5 M14,7.784H0v5h14V7.784L14,7.784z"/>
	</g>
	<rect x="5.642" y="9.975" style="fill:#0099FF;" width="2.734" height="1.481"/>
	<rect x="1.785" y="9.975" style="fill:#0099FF;" width="2.734" height="1.481"/>
	<rect x="9.499" y="9.975" style="fill:#0099FF;" width="2.734" height="1.481"/>
</g>
</svg>
