<?xml version="1.0" encoding="utf-8"?>
<!-- Generator: Adobe Illustrator 18.1.1, SVG Export Plug-In . SVG Version: 6.00 Build 0)  -->
<!DOCTYPE svg PUBLIC "-//W3C//DTD SVG 1.1//EN" "http://www.w3.org/Graphics/SVG/1.1/DTD/svg11.dtd">
<svg version="1.1" id="Layer_1" xmlns="http://www.w3.org/2000/svg" xmlns:xlink="http://www.w3.org/1999/xlink" x="0px" y="0px"
	 viewBox="0 0 14 14" style="enable-background:new 0 0 14 14;" xml:space="preserve">
<path style="fill:none;" d="M7.051,4.669h-0.63v2.072h0.63c0.259,0,0.471-0.09,0.639-0.271c0.167-0.182,0.25-0.447,0.25-0.798
	c0-0.349-0.083-0.604-0.25-0.764C7.523,4.749,7.31,4.669,7.051,4.669z"/>
<path style="fill:none;" d="M3.007,10.276H1.601L0,3.724h1.241L2.333,8.98H2.36l1.092-5.256h1.185L3.007,10.276z M8.833,6.533
	c-0.101,0.25-0.235,0.458-0.401,0.623C8.266,7.324,8.075,7.447,7.86,7.527c-0.214,0.081-0.435,0.12-0.663,0.12H6.422v2.628H5.33
	V3.724h1.81c0.208,0,0.423,0.032,0.646,0.092c0.221,0.062,0.419,0.169,0.595,0.319C8.556,4.288,8.7,4.486,8.815,4.733
	c0.113,0.247,0.17,0.554,0.17,0.925C8.985,5.991,8.935,6.283,8.833,6.533z M14,10.276h-1.221l-1.86-4.627h-0.027l0.018,4.627h-1
	V3.724h1.268l1.842,4.654h0.027l-0.009-4.654H14V10.276z"/>
<polygon style="fill:#69929E;" points="2.36,8.98 2.333,8.98 1.241,3.724 0,3.724 1.601,10.276 3.007,10.276 4.637,3.724 
	3.452,3.724 "/>
<path style="fill:#69929E;" d="M8.381,4.136c-0.176-0.151-0.374-0.258-0.595-0.32C7.563,3.756,7.348,3.724,7.14,3.724H5.33v6.551
	h1.092V7.648h0.776c0.227,0,0.449-0.039,0.663-0.12c0.215-0.08,0.407-0.203,0.572-0.37c0.166-0.166,0.3-0.373,0.401-0.623
	c0.102-0.25,0.152-0.542,0.152-0.875c0-0.37-0.057-0.678-0.17-0.925C8.7,4.486,8.556,4.288,8.381,4.136z M7.69,6.47
	C7.523,6.651,7.31,6.741,7.051,6.741h-0.63V4.669h0.63c0.259,0,0.471,0.08,0.639,0.239c0.167,0.16,0.25,0.414,0.25,0.764
	C7.94,6.023,7.857,6.288,7.69,6.47z"/>
<polygon style="fill:#69929E;" points="13.047,8.378 13.02,8.378 11.178,3.724 9.91,3.724 9.91,10.276 10.91,10.276 10.891,5.649 
	10.919,5.649 12.779,10.276 14,10.276 14,3.724 13.038,3.724 "/>
</svg>
