<?xml version="1.0" encoding="utf-8"?>
<!-- Generator: Adobe Illustrator 19.1.0, SVG Export Plug-In . SVG Version: 6.00 Build 0)  -->
<!DOCTYPE svg PUBLIC "-//W3C//DTD SVG 1.1//EN" "http://www.w3.org/Graphics/SVG/1.1/DTD/svg11.dtd">
<svg version="1.1" id="Layer_1" xmlns="http://www.w3.org/2000/svg" xmlns:xlink="http://www.w3.org/1999/xlink" x="0px" y="0px"
	 viewBox="0 0 29 18" style="enable-background:new 0 0 29 18;" xml:space="preserve">
<style type="text/css">
	.st0{fill:#444444;}
	.st1{fill:none;}
	.st2{font-family:'ArialMT';}
	.st3{font-size:6px;}
</style>
<g>
	<g>
		<path class="st0" d="M23.9,3.7H23h-5.1h-0.8v8.7h0.8H23h0.8V3.7z M20.6,11.9c-0.2,0-0.4-0.2-0.4-0.4c0-0.2,0.2-0.4,0.4-0.4
			c0.2,0,0.4,0.2,0.4,0.4C21,11.7,20.8,11.9,20.6,11.9z M22.7,10.6h-4.4V4.8h4.4V10.6z"/>
		<path class="st0" d="M20.3,0.1c-2.4,0-4.5,1-6,2.6c-0.3-0.3-0.6-0.6-0.9-0.9C9.7-1,4.5-0.3,1.7,3.4C-1.1,7-0.4,12.2,3.2,15
			c3.4,2.6,8.2,2.2,11.1-0.8c1.5,1.6,3.6,2.6,6,2.6c0.7,0,1.3-0.1,1.9-0.2l-0.1-0.8l0-0.2c-0.6,0.1-1.2,0.2-1.8,0.2
			c-2.1,0-4-0.9-5.4-2.4c-0.2-0.2-0.4-0.5-0.6-0.7c-0.9-1.2-1.4-2.7-1.4-4.3c0-1.6,0.5-3.1,1.4-4.3c0.2-0.3,0.4-0.5,0.6-0.7
			C16.2,1.9,18.2,1,20.3,1c4.1,0,7.4,3.3,7.4,7.4c0,1-0.2,2-0.6,2.9c0.3,0.1,0.6,0.2,0.8,0.4c0.4-1,0.7-2.1,0.7-3.3
			C28.6,3.9,24.9,0.1,20.3,0.1z M12,8.4c0,1.9,0.6,3.6,1.7,5c-2.6,2.8-6.9,3.2-9.9,0.8C0.5,11.8-0.1,7.2,2.4,3.9s7.1-3.8,10.4-1.4
			c0.3,0.3,0.6,0.5,0.9,0.8C12.6,4.8,12,6.5,12,8.4z"/>
	</g>
	<g>
		<path class="st0" d="M23.4,14.9c0-1.4,1.1-2.5,2.5-2.5c0.6,0,1.2,0.3,1.6,0.7l-0.7,0.7l2,0.6l-0.4-2.2l-0.6,0.6
			c-0.5-0.5-1.2-0.8-2-0.8c-1.6,0-3,1.3-3,3L23.4,14.9z"/>
	</g>
	<g>
		<path class="st0" d="M28.5,14.9c0,1.4-1.1,2.5-2.5,2.5c-0.6,0-1.2-0.3-1.6-0.7l0.7-0.7l-2-0.6l0.4,2.2l0.6-0.6
			c0.5,0.5,1.2,0.8,2,0.8c1.6,0,3-1.3,3-3L28.5,14.9z"/>
	</g>
</g>
<rect x="3.4" y="6" class="st1" width="15.5" height="8.7"/>
<text transform="matrix(1 0 0 1 3.3916 10.2764)" class="st0 st2 st3">SD</text>
</svg>
