<?xml version="1.0" encoding="iso-8859-1"?>
<!-- Generator: Adobe Illustrator 18.1.1, SVG Export Plug-In . SVG Version: 6.00 Build 0)  -->
<!DOCTYPE svg PUBLIC "-//W3C//DTD SVG 1.1//EN" "http://www.w3.org/Graphics/SVG/1.1/DTD/svg11.dtd">
<svg version="1.1" id="Layer_1" xmlns="http://www.w3.org/2000/svg" xmlns:xlink="http://www.w3.org/1999/xlink" x="0px" y="0px"
	 viewBox="0 0 35 35" style="enable-background:new 0 0 35 35;" xml:space="preserve">
<g>
	<path d="M0,0v35h35V0H0z M17.375,32.687c-8.457,0-15.312-6.855-15.312-15.312S8.918,2.063,17.375,2.063s15.312,6.855,15.312,15.312
		S25.832,32.687,17.375,32.687z"/>
	<path style="fill:none;" d="M17.375,2.937c-7.961,0-14.438,6.477-14.438,14.438s6.477,14.438,14.438,14.438
		s14.438-6.477,14.438-14.438S25.336,2.937,17.375,2.937z"/>
	<path style="fill:#95C1E7;" d="M17.375,2.063c-8.457,0-15.312,6.855-15.312,15.312s6.855,15.312,15.312,15.312
		s15.312-6.855,15.312-15.312S25.832,2.063,17.375,2.063z M17.375,31.813c-7.961,0-14.438-6.477-14.438-14.438
		S9.414,2.937,17.375,2.937s14.438,6.477,14.438,14.438S25.336,31.813,17.375,31.813z"/>
</g>
<circle style="fill:#95C1E7;" cx="19.771" cy="17.522" r="1.5"/>
<circle style="fill:#95C1E7;" cx="24.648" cy="17.515" r="1.5"/>
<g>
	<circle style="fill:#95C1E7;" cx="10.019" cy="17.507" r="1.5"/>
</g>
<g>
	<circle style="fill:#95C1E7;" cx="14.895" cy="17.529" r="1.5"/>
</g>
</svg>
