<?xml version="1.0" encoding="iso-8859-1"?>
<!-- Generator: Adobe Illustrator 18.1.1, SVG Export Plug-In . SVG Version: 6.00 Build 0)  -->
<!DOCTYPE svg PUBLIC "-//W3C//DTD SVG 1.1//EN" "http://www.w3.org/Graphics/SVG/1.1/DTD/svg11.dtd">
<svg version="1.1" id="Layer_1" xmlns="http://www.w3.org/2000/svg" xmlns:xlink="http://www.w3.org/1999/xlink" x="0px" y="0px"
	 viewBox="0 0 14 14" style="enable-background:new 0 0 14 14;" xml:space="preserve">
<g>
	<g>
		<path style="fill:#D91E18;" d="M7,0L7,0v0.001c1.933,0,3.683,0.784,4.949,2.049c1.265,1.266,2.049,3.016,2.049,4.949H14V7l0,0
			h-0.002c0,1.933-0.784,3.684-2.049,4.949c-1.266,1.267-3.016,2.05-4.948,2.05V14H7l0,0v-0.001c-1.934,0-3.684-0.783-4.95-2.05
			C0.785,10.684,0.001,8.933,0.001,7H0l0,0l0,0h0.001c0-1.934,0.784-3.684,2.049-4.95C3.316,0.785,5.066,0.001,7,0.001V0L7,0L7,0z
			 M7,0.946v0.001l0,0l0,0V0.946c-1.67,0-3.183,0.677-4.279,1.774C1.624,3.817,0.946,5.33,0.946,7h0.001l0,0l0,0H0.946
			c0,1.669,0.678,3.183,1.775,4.278c1.096,1.097,2.609,1.775,4.279,1.775v-0.002l0,0h0.001v0.002c1.669,0,3.182-0.678,4.277-1.774
			c1.097-1.096,1.775-2.61,1.775-4.279h-0.001l0,0V6.999h0.001c0-1.669-0.678-3.182-1.775-4.278C10.184,1.622,8.671,0.946,7,0.946
			L7,0.946z"/>
	</g>
	<g>
		<path style="fill:#D91E18;" d="M6.3,9.953h1.4V11.2H6.3V9.953z M6.413,2.8h1.175L7.463,8.887H6.538L6.413,2.8z"/>
	</g>
</g>
</svg>
