<?xml version="1.0" encoding="iso-8859-1"?>
<!-- Generator: Adobe Illustrator 18.1.1, SVG Export Plug-In . SVG Version: 6.00 Build 0)  -->
<!DOCTYPE svg PUBLIC "-//W3C//DTD SVG 1.1//EN" "http://www.w3.org/Graphics/SVG/1.1/DTD/svg11.dtd">
<svg version="1.1" id="Layer_1" xmlns="http://www.w3.org/2000/svg" xmlns:xlink="http://www.w3.org/1999/xlink" x="0px" y="0px"
	 viewBox="0 0 14 14" style="enable-background:new 0 0 14 14;" xml:space="preserve">
<g>
	<g>
		<path style="fill:#5092FA;" d="M7,14c-3.86,0-7-3.14-7-7s3.14-7,7-7s7,3.14,7,7S10.86,14,7,14z M7,0.78
			C3.569,0.78,0.778,3.57,0.778,7S3.569,13.22,7,13.22s6.222-2.79,6.222-6.22S10.431,0.78,7,0.78z"/>
	</g>
	<g>
		<path style="fill:#5092FA;" d="M8.083,5.647H7.754L5.9,5.948L5.829,6.166c0.077-0.003,0.142-0.005,0.197-0.005
			c0.12,0,0.215,0.031,0.284,0.093c0.069,0.062,0.104,0.133,0.104,0.213c0,0.128-0.037,0.317-0.11,0.569L5.545,9.65
			c-0.061,0.208-0.093,0.38-0.093,0.514c0,0.204,0.07,0.373,0.211,0.506s0.329,0.199,0.566,0.199c0.62,0,1.206-0.479,1.756-1.438
			L7.8,9.321c-0.23,0.354-0.427,0.598-0.591,0.733c-0.062,0.054-0.124,0.082-0.186,0.082c-0.037,0-0.071-0.017-0.103-0.052
			C6.886,10.049,6.87,10.011,6.87,9.971c0-0.069,0.03-0.215,0.093-0.437L8.083,5.647z"/>
		<path style="fill:#5092FA;" d="M7.744,3.131c-0.222,0-0.411,0.079-0.566,0.235C7.022,3.523,6.946,3.713,6.946,3.935
			c0,0.222,0.079,0.412,0.235,0.569C7.337,4.66,7.525,4.738,7.744,4.738c0.222,0,0.411-0.079,0.569-0.235
			c0.156-0.157,0.235-0.346,0.235-0.569S8.47,3.523,8.315,3.366C8.16,3.21,7.969,3.131,7.744,3.131z"/>
	</g>
</g>
</svg>
