<?xml version="1.0" encoding="utf-8"?>
<!-- Generator: Adobe Illustrator 18.1.1, SVG Export Plug-In . SVG Version: 6.00 Build 0)  -->
<!DOCTYPE svg PUBLIC "-//W3C//DTD SVG 1.1//EN" "http://www.w3.org/Graphics/SVG/1.1/DTD/svg11.dtd">
<svg version="1.1" id="Layer_1" xmlns="http://www.w3.org/2000/svg" xmlns:xlink="http://www.w3.org/1999/xlink" x="0px" y="0px"
	 viewBox="0 0 14 14" enable-background="new 0 0 14 14" xml:space="preserve">
<g>
	<g>
		<g>
			<path fill="#F9BF3B" d="M6.3,10.4h1.4v0.9H6.3V10.4z M6.4,5.1h1.2L7.5,9.6H6.5L6.4,5.1z"/>
		</g>
	</g>
	<g>
		<polygon fill="none" points="0.9,12.5 13.1,12.5 7,1.6 		"/>
		<path fill="#F9BF3B" d="M13.9,12.1L7.7,1.1C7.6,0.8,7.3,0.6,7,0.6c-0.3,0-0.6,0.2-0.7,0.5L0.1,12.1C0,12.4,0,12.7,0.1,13
			c0.1,0.2,0.4,0.4,0.8,0.4h12.3c0.3,0,0.6-0.1,0.8-0.4C14,12.7,14,12.4,13.9,12.1z M13.1,12.5H0.9L7,1.6L13.1,12.5z"/>
	</g>
</g>
</svg>
